<svg width="500" height="300" viewBox="0 0 500 300" fill="none" xmlns="http://www.w3.org/2000/svg">
<g clip-path="url(#clip0_7390_33943)">
<g clip-path="url(#clip1_7390_33943)">
<rect width="500" height="300" rx="16" fill="#F5F5F5"/>
<rect width="500" height="300" rx="16" fill="url(#paint0_linear_7390_33943)"/>
<path d="M44.6914 43.7832L37.7305 65H32.123L41.6328 39.4062H45.2012L44.6914 43.7832ZM50.4746 65L43.4961 43.7832L42.9336 39.4062H46.5371L56.0996 65H50.4746ZM50.1582 55.4727V59.6035H36.6406V55.4727H50.1582ZM70.1973 45.9805H74.7852V64.3672C74.7852 66.1016 74.3984 67.5723 73.625 68.7793C72.8633 69.998 71.7969 70.918 70.4258 71.5391C69.0547 72.1719 67.4609 72.4883 65.6445 72.4883C64.8477 72.4883 64.0039 72.3828 63.1133 72.1719C62.2344 71.9609 61.3906 71.6328 60.582 71.1875C59.7852 70.7422 59.1172 70.1797 58.5781 69.5L60.8105 66.5117C61.3965 67.1914 62.0762 67.7188 62.8496 68.0938C63.623 68.4805 64.4785 68.6738 65.416 68.6738C66.3301 68.6738 67.1035 68.5039 67.7363 68.1641C68.3691 67.8359 68.8555 67.3496 69.1953 66.7051C69.5352 66.0723 69.7051 65.3047 69.7051 64.4023V50.375L70.1973 45.9805ZM57.4004 55.7188V55.3496C57.4004 53.8965 57.5762 52.5781 57.9277 51.3945C58.291 50.1992 58.8008 49.1738 59.457 48.3184C60.125 47.4629 60.9336 46.8008 61.8828 46.332C62.832 45.8633 63.9043 45.6289 65.0996 45.6289C66.3652 45.6289 67.4258 45.8633 68.2812 46.332C69.1367 46.8008 69.8398 47.4688 70.3906 48.3359C70.9414 49.1914 71.3691 50.2051 71.6738 51.377C71.9902 52.5371 72.2363 53.8086 72.4121 55.1914V56C72.2363 57.3242 71.9727 58.5547 71.6211 59.6914C71.2695 60.8281 70.8066 61.8242 70.2324 62.6797C69.6582 63.5234 68.9434 64.1797 68.0879 64.6484C67.2441 65.1172 66.2363 65.3516 65.0645 65.3516C63.8926 65.3516 62.832 65.1113 61.8828 64.6309C60.9453 64.1504 60.1426 63.4766 59.4746 62.6094C58.8066 61.7422 58.291 60.7227 57.9277 59.5508C57.5762 58.3789 57.4004 57.1016 57.4004 55.7188ZM62.4629 55.3496V55.7188C62.4629 56.5039 62.5391 57.2363 62.6914 57.916C62.8438 58.5957 63.0781 59.1992 63.3945 59.7266C63.7227 60.2422 64.127 60.6465 64.6074 60.9395C65.0996 61.2207 65.6797 61.3613 66.3477 61.3613C67.2734 61.3613 68.0293 61.168 68.6152 60.7812C69.2012 60.3828 69.6406 59.8379 69.9336 59.1465C70.2266 58.4551 70.3965 57.6582 70.4434 56.7559V54.4531C70.4199 53.7148 70.3203 53.0527 70.1445 52.4668C69.9688 51.8691 69.7227 51.3594 69.4062 50.9375C69.0898 50.5156 68.6797 50.1875 68.1758 49.9531C67.6719 49.7188 67.0742 49.6016 66.3828 49.6016C65.7148 49.6016 65.1348 49.7539 64.6426 50.0586C64.1621 50.3516 63.7578 50.7559 63.4297 51.2715C63.1133 51.7871 62.873 52.3965 62.709 53.0996C62.5449 53.791 62.4629 54.541 62.4629 55.3496ZM87.4766 65.3516C86 65.3516 84.6758 65.1172 83.5039 64.6484C82.332 64.168 81.3359 63.5059 80.5156 62.6621C79.707 61.8184 79.0859 60.8398 78.6523 59.7266C78.2188 58.6016 78.002 57.4062 78.002 56.1406V55.4375C78.002 53.9961 78.207 52.6777 78.6172 51.4824C79.0273 50.2871 79.6133 49.25 80.375 48.3711C81.1484 47.4922 82.0859 46.8184 83.1875 46.3496C84.2891 45.8691 85.5312 45.6289 86.9141 45.6289C88.2617 45.6289 89.457 45.8516 90.5 46.2969C91.543 46.7422 92.416 47.375 93.1191 48.1953C93.834 49.0156 94.373 50 94.7363 51.1484C95.0996 52.2852 95.2812 53.5508 95.2812 54.9453V57.0547H80.1641V53.6797H90.3066V53.293C90.3066 52.5898 90.1777 51.9629 89.9199 51.4121C89.6738 50.8496 89.2988 50.4043 88.7949 50.0762C88.291 49.748 87.6465 49.584 86.8613 49.584C86.1934 49.584 85.6191 49.7305 85.1387 50.0234C84.6582 50.3164 84.2656 50.7266 83.9609 51.2539C83.668 51.7812 83.4453 52.4023 83.293 53.1172C83.1523 53.8203 83.082 54.5938 83.082 55.4375V56.1406C83.082 56.9023 83.1875 57.6055 83.3984 58.25C83.6211 58.8945 83.9316 59.4512 84.3301 59.9199C84.7402 60.3887 85.2324 60.752 85.8066 61.0098C86.3926 61.2676 87.0547 61.3965 87.793 61.3965C88.707 61.3965 89.5566 61.2207 90.3418 60.8691C91.1387 60.5059 91.8242 59.9609 92.3984 59.2344L94.8594 61.9062C94.4609 62.4805 93.916 63.0312 93.2246 63.5586C92.5449 64.0859 91.7246 64.5195 90.7637 64.8594C89.8027 65.1875 88.707 65.3516 87.4766 65.3516ZM107.445 39.4062H116.99C118.947 39.4062 120.629 39.6992 122.035 40.2852C123.453 40.8711 124.543 41.7383 125.305 42.8867C126.066 44.0352 126.447 45.4473 126.447 47.123C126.447 48.4941 126.213 49.6719 125.744 50.6562C125.287 51.6289 124.637 52.4434 123.793 53.0996C122.961 53.7441 121.982 54.2598 120.857 54.6465L119.188 55.5254H110.891L110.855 51.4121H117.025C117.951 51.4121 118.719 51.248 119.328 50.9199C119.938 50.5918 120.395 50.1348 120.699 49.5488C121.016 48.9629 121.174 48.2832 121.174 47.5098C121.174 46.6895 121.021 45.9805 120.717 45.3828C120.412 44.7852 119.949 44.3281 119.328 44.0117C118.707 43.6953 117.928 43.5371 116.99 43.5371H112.719V65H107.445V39.4062ZM121.754 65L115.918 53.5918L121.49 53.5566L127.396 64.7539V65H121.754ZM140.457 60.7109V52.2383C140.457 51.6289 140.357 51.1074 140.158 50.6738C139.959 50.2285 139.648 49.8828 139.227 49.6367C138.816 49.3906 138.283 49.2676 137.627 49.2676C137.064 49.2676 136.578 49.3672 136.168 49.5664C135.758 49.7539 135.441 50.0293 135.219 50.3926C134.996 50.7441 134.885 51.1602 134.885 51.6406H129.822C129.822 50.832 130.01 50.0645 130.385 49.3379C130.76 48.6113 131.305 47.9727 132.02 47.4219C132.734 46.8594 133.584 46.4199 134.568 46.1035C135.564 45.7871 136.678 45.6289 137.908 45.6289C139.385 45.6289 140.697 45.875 141.846 46.3672C142.994 46.8594 143.896 47.5977 144.553 48.582C145.221 49.5664 145.555 50.7969 145.555 52.2734V60.4121C145.555 61.4551 145.619 62.3105 145.748 62.9785C145.877 63.6348 146.064 64.209 146.311 64.7012V65H141.195C140.949 64.4844 140.762 63.8398 140.633 63.0664C140.516 62.2812 140.457 61.4961 140.457 60.7109ZM141.125 53.416L141.16 56.2812H138.33C137.662 56.2812 137.082 56.3574 136.59 56.5098C136.098 56.6621 135.693 56.8789 135.377 57.1602C135.061 57.4297 134.826 57.7461 134.674 58.1094C134.533 58.4727 134.463 58.8711 134.463 59.3047C134.463 59.7383 134.562 60.1309 134.762 60.4824C134.961 60.8223 135.248 61.0918 135.623 61.291C135.998 61.4785 136.438 61.5723 136.941 61.5723C137.703 61.5723 138.365 61.4199 138.928 61.1152C139.49 60.8105 139.924 60.4355 140.229 59.9902C140.545 59.5449 140.709 59.123 140.721 58.7246L142.057 60.8691C141.869 61.3496 141.611 61.8477 141.283 62.3633C140.967 62.8789 140.562 63.3652 140.07 63.8223C139.578 64.2676 138.986 64.6367 138.295 64.9297C137.604 65.2109 136.783 65.3516 135.834 65.3516C134.627 65.3516 133.531 65.1113 132.547 64.6309C131.574 64.1387 130.801 63.4648 130.227 62.6094C129.664 61.7422 129.383 60.7578 129.383 59.6562C129.383 58.6602 129.57 57.7754 129.945 57.002C130.32 56.2285 130.871 55.5781 131.598 55.0508C132.336 54.5117 133.256 54.1074 134.357 53.8379C135.459 53.5566 136.736 53.416 138.189 53.416H141.125ZM154.414 50.041V65H149.352V45.9805H154.098L154.414 50.041ZM153.676 54.8223H152.305C152.305 53.416 152.486 52.1504 152.85 51.0254C153.213 49.8887 153.723 48.9219 154.379 48.125C155.035 47.3164 155.814 46.7012 156.717 46.2793C157.631 45.8457 158.65 45.6289 159.775 45.6289C160.666 45.6289 161.48 45.7578 162.219 46.0156C162.957 46.2734 163.59 46.6836 164.117 47.2461C164.656 47.8086 165.066 48.5527 165.348 49.4785C165.641 50.4043 165.787 51.5352 165.787 52.8711V65H160.689V52.8535C160.689 52.0098 160.572 51.3535 160.338 50.8848C160.104 50.416 159.758 50.0879 159.301 49.9004C158.855 49.7012 158.305 49.6016 157.648 49.6016C156.969 49.6016 156.377 49.7363 155.873 50.0059C155.381 50.2754 154.971 50.6504 154.643 51.1309C154.326 51.5996 154.086 52.1504 153.922 52.7832C153.758 53.416 153.676 54.0957 153.676 54.8223ZM181.678 45.9805H186.266V64.3672C186.266 66.1016 185.879 67.5723 185.105 68.7793C184.344 69.998 183.277 70.918 181.906 71.5391C180.535 72.1719 178.941 72.4883 177.125 72.4883C176.328 72.4883 175.484 72.3828 174.594 72.1719C173.715 71.9609 172.871 71.6328 172.062 71.1875C171.266 70.7422 170.598 70.1797 170.059 69.5L172.291 66.5117C172.877 67.1914 173.557 67.7188 174.33 68.0938C175.104 68.4805 175.959 68.6738 176.896 68.6738C177.811 68.6738 178.584 68.5039 179.217 68.1641C179.85 67.8359 180.336 67.3496 180.676 66.7051C181.016 66.0723 181.186 65.3047 181.186 64.4023V50.375L181.678 45.9805ZM168.881 55.7188V55.3496C168.881 53.8965 169.057 52.5781 169.408 51.3945C169.771 50.1992 170.281 49.1738 170.938 48.3184C171.605 47.4629 172.414 46.8008 173.363 46.332C174.312 45.8633 175.385 45.6289 176.58 45.6289C177.846 45.6289 178.906 45.8633 179.762 46.332C180.617 46.8008 181.32 47.4688 181.871 48.3359C182.422 49.1914 182.85 50.2051 183.154 51.377C183.471 52.5371 183.717 53.8086 183.893 55.1914V56C183.717 57.3242 183.453 58.5547 183.102 59.6914C182.75 60.8281 182.287 61.8242 181.713 62.6797C181.139 63.5234 180.424 64.1797 179.568 64.6484C178.725 65.1172 177.717 65.3516 176.545 65.3516C175.373 65.3516 174.312 65.1113 173.363 64.6309C172.426 64.1504 171.623 63.4766 170.955 62.6094C170.287 61.7422 169.771 60.7227 169.408 59.5508C169.057 58.3789 168.881 57.1016 168.881 55.7188ZM173.943 55.3496V55.7188C173.943 56.5039 174.02 57.2363 174.172 57.916C174.324 58.5957 174.559 59.1992 174.875 59.7266C175.203 60.2422 175.607 60.6465 176.088 60.9395C176.58 61.2207 177.16 61.3613 177.828 61.3613C178.754 61.3613 179.51 61.168 180.096 60.7812C180.682 60.3828 181.121 59.8379 181.414 59.1465C181.707 58.4551 181.877 57.6582 181.924 56.7559V54.4531C181.9 53.7148 181.801 53.0527 181.625 52.4668C181.449 51.8691 181.203 51.3594 180.887 50.9375C180.57 50.5156 180.16 50.1875 179.656 49.9531C179.152 49.7188 178.555 49.6016 177.863 49.6016C177.195 49.6016 176.615 49.7539 176.123 50.0586C175.643 50.3516 175.238 50.7559 174.91 51.2715C174.594 51.7871 174.354 52.3965 174.189 53.0996C174.025 53.791 173.943 54.541 173.943 55.3496ZM198.957 65.3516C197.48 65.3516 196.156 65.1172 194.984 64.6484C193.812 64.168 192.816 63.5059 191.996 62.6621C191.188 61.8184 190.566 60.8398 190.133 59.7266C189.699 58.6016 189.482 57.4062 189.482 56.1406V55.4375C189.482 53.9961 189.688 52.6777 190.098 51.4824C190.508 50.2871 191.094 49.25 191.855 48.3711C192.629 47.4922 193.566 46.8184 194.668 46.3496C195.77 45.8691 197.012 45.6289 198.395 45.6289C199.742 45.6289 200.938 45.8516 201.98 46.2969C203.023 46.7422 203.896 47.375 204.6 48.1953C205.314 49.0156 205.854 50 206.217 51.1484C206.58 52.2852 206.762 53.5508 206.762 54.9453V57.0547H191.645V53.6797H201.787V53.293C201.787 52.5898 201.658 51.9629 201.4 51.4121C201.154 50.8496 200.779 50.4043 200.275 50.0762C199.771 49.748 199.127 49.584 198.342 49.584C197.674 49.584 197.1 49.7305 196.619 50.0234C196.139 50.3164 195.746 50.7266 195.441 51.2539C195.148 51.7812 194.926 52.4023 194.773 53.1172C194.633 53.8203 194.562 54.5938 194.562 55.4375V56.1406C194.562 56.9023 194.668 57.6055 194.879 58.25C195.102 58.8945 195.412 59.4512 195.811 59.9199C196.221 60.3887 196.713 60.752 197.287 61.0098C197.873 61.2676 198.535 61.3965 199.273 61.3965C200.188 61.3965 201.037 61.2207 201.822 60.8691C202.619 60.5059 203.305 59.9609 203.879 59.2344L206.34 61.9062C205.941 62.4805 205.396 63.0312 204.705 63.5586C204.025 64.0859 203.205 64.5195 202.244 64.8594C201.283 65.1875 200.188 65.3516 198.957 65.3516Z" fill="white"/>
<rect x="416" y="32" width="52" height="52" rx="8" fill="white"/>
<path d="M438.59 66.5C438.11 66.5 437.654 66.3103 437.318 65.9782L430.522 59.266C429.826 58.5781 429.826 57.4397 430.522 56.7518C431.219 56.064 432.371 56.064 433.068 56.7518L438.59 62.207L450.932 50.0159C451.629 49.328 452.781 49.328 453.478 50.0159C454.174 50.7037 454.174 51.8422 453.478 52.53L439.863 65.9782C439.527 66.3103 439.071 66.5 438.59 66.5Z" fill="#01308F"/>
</g>
<g opacity="0.07">
<path d="M398.225 161.959C431.082 152.538 450.081 118.265 440.659 85.4084C431.238 52.5513 396.964 33.5526 364.107 42.9741C331.25 52.3955 312.251 86.6696 321.672 119.527C331.094 152.384 365.368 171.381 398.225 161.959Z" fill="white"/>
<path d="M500.679 261.086C521.361 255.155 526.773 228.734 510.377 214.921C485.62 194.111 446.937 186.412 408.381 197.468C369.826 208.523 341.1 235.55 331.132 266.318C324.547 286.72 343.137 306.259 363.82 300.329L500.679 261.086Z" fill="white"/>
</g>
</g>
<defs>
<linearGradient id="paint0_linear_7390_33943" x1="500" y1="300" x2="-1.60933e-05" y2="2.68221e-05" gradientUnits="userSpaceOnUse">
<stop offset="0.0408417" stop-color="#0241D2"/>
<stop offset="0.565" stop-color="#01308F"/>
</linearGradient>
<clipPath id="clip0_7390_33943">
<rect width="500" height="300" fill="white"/>
</clipPath>
<clipPath id="clip1_7390_33943">
<rect width="500" height="300" rx="16" fill="white"/>
</clipPath>
</defs>
</svg>
