<svg width="500" height="300" viewBox="0 0 500 300" fill="none" xmlns="http://www.w3.org/2000/svg">
<g clip-path="url(#clip0_7390_33938)">
<g clip-path="url(#clip1_7390_33938)">
<rect width="500" height="300" rx="16" fill="#F5F5F5"/>
<rect width="500" height="300" rx="16" fill="url(#paint0_linear_7390_33938)"/>
<path d="M44.252 55.877H37.7305V51.7637H44.252C45.2598 51.7637 46.0801 51.5996 46.7129 51.2715C47.3457 50.9316 47.8086 50.4629 48.1016 49.8652C48.3945 49.2676 48.541 48.5938 48.541 47.8438C48.541 47.082 48.3945 46.373 48.1016 45.7168C47.8086 45.0605 47.3457 44.5332 46.7129 44.1348C46.0801 43.7363 45.2598 43.5371 44.252 43.5371H39.5586V65H34.2852V39.4062H44.252C46.2559 39.4062 47.9727 39.7695 49.4023 40.4961C50.8438 41.2109 51.9453 42.2012 52.707 43.4668C53.4688 44.7324 53.8496 46.1797 53.8496 47.8086C53.8496 49.4609 53.4688 50.8906 52.707 52.0977C51.9453 53.3047 50.8438 54.2363 49.4023 54.8926C47.9727 55.5488 46.2559 55.877 44.252 55.877ZM62.2344 50.1289V65H57.1719V45.9805H61.9355L62.2344 50.1289ZM67.9648 45.8574L67.877 50.5508C67.6309 50.5156 67.332 50.4863 66.9805 50.4629C66.6406 50.4277 66.3301 50.4102 66.0488 50.4102C65.334 50.4102 64.7129 50.5039 64.1855 50.6914C63.6699 50.8672 63.2363 51.1309 62.8848 51.4824C62.5449 51.834 62.2871 52.2617 62.1113 52.7656C61.9473 53.2695 61.8535 53.8438 61.8301 54.4883L60.8105 54.1719C60.8105 52.9414 60.9336 51.8105 61.1797 50.7793C61.4258 49.7363 61.7832 48.8281 62.252 48.0547C62.7324 47.2812 63.3184 46.6836 64.0098 46.2617C64.7012 45.8398 65.4922 45.6289 66.3828 45.6289C66.6641 45.6289 66.9512 45.6523 67.2441 45.6992C67.5371 45.7344 67.7773 45.7871 67.9648 45.8574ZM69.0195 55.6836V55.3145C69.0195 53.9199 69.2188 52.6367 69.6172 51.4648C70.0156 50.2812 70.5957 49.2559 71.3574 48.3887C72.1191 47.5215 73.0566 46.8477 74.1699 46.3672C75.2832 45.875 76.5605 45.6289 78.002 45.6289C79.4434 45.6289 80.7266 45.875 81.8516 46.3672C82.9766 46.8477 83.9199 47.5215 84.6816 48.3887C85.4551 49.2559 86.041 50.2812 86.4395 51.4648C86.8379 52.6367 87.0371 53.9199 87.0371 55.3145V55.6836C87.0371 57.0664 86.8379 58.3496 86.4395 59.5332C86.041 60.7051 85.4551 61.7305 84.6816 62.6094C83.9199 63.4766 82.9824 64.1504 81.8691 64.6309C80.7559 65.1113 79.4785 65.3516 78.0371 65.3516C76.5957 65.3516 75.3125 65.1113 74.1875 64.6309C73.0742 64.1504 72.1309 63.4766 71.3574 62.6094C70.5957 61.7305 70.0156 60.7051 69.6172 59.5332C69.2188 58.3496 69.0195 57.0664 69.0195 55.6836ZM74.082 55.3145V55.6836C74.082 56.4805 74.1523 57.2246 74.293 57.916C74.4336 58.6074 74.6562 59.2168 74.9609 59.7441C75.2773 60.2598 75.6875 60.6641 76.1914 60.957C76.6953 61.25 77.3105 61.3965 78.0371 61.3965C78.7402 61.3965 79.3438 61.25 79.8477 60.957C80.3516 60.6641 80.7559 60.2598 81.0605 59.7441C81.3652 59.2168 81.5879 58.6074 81.7285 57.916C81.8809 57.2246 81.957 56.4805 81.957 55.6836V55.3145C81.957 54.541 81.8809 53.8145 81.7285 53.1348C81.5879 52.4434 81.3594 51.834 81.043 51.3066C80.7383 50.7676 80.334 50.3457 79.8301 50.041C79.3262 49.7363 78.7168 49.584 78.002 49.584C77.2871 49.584 76.6777 49.7363 76.1738 50.041C75.6816 50.3457 75.2773 50.7676 74.9609 51.3066C74.6562 51.834 74.4336 52.4434 74.293 53.1348C74.1523 53.8145 74.082 54.541 74.082 55.3145ZM89.3398 55.6836V55.3145C89.3398 53.9199 89.5391 52.6367 89.9375 51.4648C90.3359 50.2812 90.916 49.2559 91.6777 48.3887C92.4395 47.5215 93.377 46.8477 94.4902 46.3672C95.6035 45.875 96.8809 45.6289 98.3223 45.6289C99.7637 45.6289 101.047 45.875 102.172 46.3672C103.297 46.8477 104.24 47.5215 105.002 48.3887C105.775 49.2559 106.361 50.2812 106.76 51.4648C107.158 52.6367 107.357 53.9199 107.357 55.3145V55.6836C107.357 57.0664 107.158 58.3496 106.76 59.5332C106.361 60.7051 105.775 61.7305 105.002 62.6094C104.24 63.4766 103.303 64.1504 102.189 64.6309C101.076 65.1113 99.7988 65.3516 98.3574 65.3516C96.916 65.3516 95.6328 65.1113 94.5078 64.6309C93.3945 64.1504 92.4512 63.4766 91.6777 62.6094C90.916 61.7305 90.3359 60.7051 89.9375 59.5332C89.5391 58.3496 89.3398 57.0664 89.3398 55.6836ZM94.4023 55.3145V55.6836C94.4023 56.4805 94.4727 57.2246 94.6133 57.916C94.7539 58.6074 94.9766 59.2168 95.2812 59.7441C95.5977 60.2598 96.0078 60.6641 96.5117 60.957C97.0156 61.25 97.6309 61.3965 98.3574 61.3965C99.0605 61.3965 99.6641 61.25 100.168 60.957C100.672 60.6641 101.076 60.2598 101.381 59.7441C101.686 59.2168 101.908 58.6074 102.049 57.916C102.201 57.2246 102.277 56.4805 102.277 55.6836V55.3145C102.277 54.541 102.201 53.8145 102.049 53.1348C101.908 52.4434 101.68 51.834 101.363 51.3066C101.059 50.7676 100.654 50.3457 100.15 50.041C99.6465 49.7363 99.0371 49.584 98.3223 49.584C97.6074 49.584 96.998 49.7363 96.4941 50.041C96.002 50.3457 95.5977 50.7676 95.2812 51.3066C94.9766 51.834 94.7539 52.4434 94.6133 53.1348C94.4727 53.8145 94.4023 54.541 94.4023 55.3145ZM116.92 65H111.822V44.293C111.822 42.8516 112.104 41.6387 112.666 40.6543C113.24 39.6582 114.043 38.9082 115.074 38.4043C116.117 37.8887 117.354 37.6309 118.783 37.6309C119.252 37.6309 119.703 37.666 120.137 37.7363C120.57 37.7949 120.992 37.8711 121.402 37.9648L121.35 41.7793C121.127 41.7207 120.893 41.6797 120.646 41.6562C120.4 41.6328 120.113 41.6211 119.785 41.6211C119.176 41.6211 118.654 41.7266 118.221 41.9375C117.799 42.1367 117.477 42.4355 117.254 42.834C117.031 43.2324 116.92 43.7188 116.92 44.293V65ZM120.717 45.9805V49.5664H108.992V45.9805H120.717ZM131.527 55.6836V55.3145C131.527 53.9199 131.727 52.6367 132.125 51.4648C132.523 50.2812 133.104 49.2559 133.865 48.3887C134.627 47.5215 135.564 46.8477 136.678 46.3672C137.791 45.875 139.068 45.6289 140.51 45.6289C141.951 45.6289 143.234 45.875 144.359 46.3672C145.484 46.8477 146.428 47.5215 147.189 48.3887C147.963 49.2559 148.549 50.2812 148.947 51.4648C149.346 52.6367 149.545 53.9199 149.545 55.3145V55.6836C149.545 57.0664 149.346 58.3496 148.947 59.5332C148.549 60.7051 147.963 61.7305 147.189 62.6094C146.428 63.4766 145.49 64.1504 144.377 64.6309C143.264 65.1113 141.986 65.3516 140.545 65.3516C139.104 65.3516 137.82 65.1113 136.695 64.6309C135.582 64.1504 134.639 63.4766 133.865 62.6094C133.104 61.7305 132.523 60.7051 132.125 59.5332C131.727 58.3496 131.527 57.0664 131.527 55.6836ZM136.59 55.3145V55.6836C136.59 56.4805 136.66 57.2246 136.801 57.916C136.941 58.6074 137.164 59.2168 137.469 59.7441C137.785 60.2598 138.195 60.6641 138.699 60.957C139.203 61.25 139.818 61.3965 140.545 61.3965C141.248 61.3965 141.852 61.25 142.355 60.957C142.859 60.6641 143.264 60.2598 143.568 59.7441C143.873 59.2168 144.096 58.6074 144.236 57.916C144.389 57.2246 144.465 56.4805 144.465 55.6836V55.3145C144.465 54.541 144.389 53.8145 144.236 53.1348C144.096 52.4434 143.867 51.834 143.551 51.3066C143.246 50.7676 142.842 50.3457 142.338 50.041C141.834 49.7363 141.225 49.584 140.51 49.584C139.795 49.584 139.186 49.7363 138.682 50.041C138.189 50.3457 137.785 50.7676 137.469 51.3066C137.164 51.834 136.941 52.4434 136.801 53.1348C136.66 53.8145 136.59 54.541 136.59 55.3145ZM159.107 65H154.01V44.293C154.01 42.8516 154.291 41.6387 154.854 40.6543C155.428 39.6582 156.23 38.9082 157.262 38.4043C158.305 37.8887 159.541 37.6309 160.971 37.6309C161.439 37.6309 161.891 37.666 162.324 37.7363C162.758 37.7949 163.18 37.8711 163.59 37.9648L163.537 41.7793C163.314 41.7207 163.08 41.6797 162.834 41.6562C162.588 41.6328 162.301 41.6211 161.973 41.6211C161.363 41.6211 160.842 41.7266 160.408 41.9375C159.986 42.1367 159.664 42.4355 159.441 42.834C159.219 43.2324 159.107 43.7188 159.107 44.293V65ZM162.904 45.9805V49.5664H151.18V45.9805H162.904ZM185.246 43.7832L178.285 65H172.678L182.188 39.4062H185.756L185.246 43.7832ZM191.029 65L184.051 43.7832L183.488 39.4062H187.092L196.654 65H191.029ZM190.713 55.4727V59.6035H177.195V55.4727H190.713ZM210.752 45.9805H215.34V64.3672C215.34 66.1016 214.953 67.5723 214.18 68.7793C213.418 69.998 212.352 70.918 210.98 71.5391C209.609 72.1719 208.016 72.4883 206.199 72.4883C205.402 72.4883 204.559 72.3828 203.668 72.1719C202.789 71.9609 201.945 71.6328 201.137 71.1875C200.34 70.7422 199.672 70.1797 199.133 69.5L201.365 66.5117C201.951 67.1914 202.631 67.7188 203.404 68.0938C204.178 68.4805 205.033 68.6738 205.971 68.6738C206.885 68.6738 207.658 68.5039 208.291 68.1641C208.924 67.8359 209.41 67.3496 209.75 66.7051C210.09 66.0723 210.26 65.3047 210.26 64.4023V50.375L210.752 45.9805ZM197.955 55.7188V55.3496C197.955 53.8965 198.131 52.5781 198.482 51.3945C198.846 50.1992 199.355 49.1738 200.012 48.3184C200.68 47.4629 201.488 46.8008 202.438 46.332C203.387 45.8633 204.459 45.6289 205.654 45.6289C206.92 45.6289 207.98 45.8633 208.836 46.332C209.691 46.8008 210.395 47.4688 210.945 48.3359C211.496 49.1914 211.924 50.2051 212.229 51.377C212.545 52.5371 212.791 53.8086 212.967 55.1914V56C212.791 57.3242 212.527 58.5547 212.176 59.6914C211.824 60.8281 211.361 61.8242 210.787 62.6797C210.213 63.5234 209.498 64.1797 208.643 64.6484C207.799 65.1172 206.791 65.3516 205.619 65.3516C204.447 65.3516 203.387 65.1113 202.438 64.6309C201.5 64.1504 200.697 63.4766 200.029 62.6094C199.361 61.7422 198.846 60.7227 198.482 59.5508C198.131 58.3789 197.955 57.1016 197.955 55.7188ZM203.018 55.3496V55.7188C203.018 56.5039 203.094 57.2363 203.246 57.916C203.398 58.5957 203.633 59.1992 203.949 59.7266C204.277 60.2422 204.682 60.6465 205.162 60.9395C205.654 61.2207 206.234 61.3613 206.902 61.3613C207.828 61.3613 208.584 61.168 209.17 60.7812C209.756 60.3828 210.195 59.8379 210.488 59.1465C210.781 58.4551 210.951 57.6582 210.998 56.7559V54.4531C210.975 53.7148 210.875 53.0527 210.699 52.4668C210.523 51.8691 210.277 51.3594 209.961 50.9375C209.645 50.5156 209.234 50.1875 208.73 49.9531C208.227 49.7188 207.629 49.6016 206.938 49.6016C206.27 49.6016 205.689 49.7539 205.197 50.0586C204.717 50.3516 204.312 50.7559 203.984 51.2715C203.668 51.7871 203.428 52.3965 203.264 53.0996C203.1 53.791 203.018 54.541 203.018 55.3496ZM228.031 65.3516C226.555 65.3516 225.23 65.1172 224.059 64.6484C222.887 64.168 221.891 63.5059 221.07 62.6621C220.262 61.8184 219.641 60.8398 219.207 59.7266C218.773 58.6016 218.557 57.4062 218.557 56.1406V55.4375C218.557 53.9961 218.762 52.6777 219.172 51.4824C219.582 50.2871 220.168 49.25 220.93 48.3711C221.703 47.4922 222.641 46.8184 223.742 46.3496C224.844 45.8691 226.086 45.6289 227.469 45.6289C228.816 45.6289 230.012 45.8516 231.055 46.2969C232.098 46.7422 232.971 47.375 233.674 48.1953C234.389 49.0156 234.928 50 235.291 51.1484C235.654 52.2852 235.836 53.5508 235.836 54.9453V57.0547H220.719V53.6797H230.861V53.293C230.861 52.5898 230.732 51.9629 230.475 51.4121C230.229 50.8496 229.854 50.4043 229.35 50.0762C228.846 49.748 228.201 49.584 227.416 49.584C226.748 49.584 226.174 49.7305 225.693 50.0234C225.213 50.3164 224.82 50.7266 224.516 51.2539C224.223 51.7812 224 52.4023 223.848 53.1172C223.707 53.8203 223.637 54.5938 223.637 55.4375V56.1406C223.637 56.9023 223.742 57.6055 223.953 58.25C224.176 58.8945 224.486 59.4512 224.885 59.9199C225.295 60.3887 225.787 60.752 226.361 61.0098C226.947 61.2676 227.609 61.3965 228.348 61.3965C229.262 61.3965 230.111 61.2207 230.896 60.8691C231.693 60.5059 232.379 59.9609 232.953 59.2344L235.414 61.9062C235.016 62.4805 234.471 63.0312 233.779 63.5586C233.1 64.0859 232.279 64.5195 231.318 64.8594C230.357 65.1875 229.262 65.3516 228.031 65.3516ZM248 39.4062H257.545C259.502 39.4062 261.184 39.6992 262.59 40.2852C264.008 40.8711 265.098 41.7383 265.859 42.8867C266.621 44.0352 267.002 45.4473 267.002 47.123C267.002 48.4941 266.768 49.6719 266.299 50.6562C265.842 51.6289 265.191 52.4434 264.348 53.0996C263.516 53.7441 262.537 54.2598 261.412 54.6465L259.742 55.5254H251.445L251.41 51.4121H257.58C258.506 51.4121 259.273 51.248 259.883 50.9199C260.492 50.5918 260.949 50.1348 261.254 49.5488C261.57 48.9629 261.729 48.2832 261.729 47.5098C261.729 46.6895 261.576 45.9805 261.271 45.3828C260.967 44.7852 260.504 44.3281 259.883 44.0117C259.262 43.6953 258.482 43.5371 257.545 43.5371H253.273V65H248V39.4062ZM262.309 65L256.473 53.5918L262.045 53.5566L267.951 64.7539V65H262.309ZM281.012 60.7109V52.2383C281.012 51.6289 280.912 51.1074 280.713 50.6738C280.514 50.2285 280.203 49.8828 279.781 49.6367C279.371 49.3906 278.838 49.2676 278.182 49.2676C277.619 49.2676 277.133 49.3672 276.723 49.5664C276.312 49.7539 275.996 50.0293 275.773 50.3926C275.551 50.7441 275.439 51.1602 275.439 51.6406H270.377C270.377 50.832 270.564 50.0645 270.939 49.3379C271.314 48.6113 271.859 47.9727 272.574 47.4219C273.289 46.8594 274.139 46.4199 275.123 46.1035C276.119 45.7871 277.232 45.6289 278.463 45.6289C279.939 45.6289 281.252 45.875 282.4 46.3672C283.549 46.8594 284.451 47.5977 285.107 48.582C285.775 49.5664 286.109 50.7969 286.109 52.2734V60.4121C286.109 61.4551 286.174 62.3105 286.303 62.9785C286.432 63.6348 286.619 64.209 286.865 64.7012V65H281.75C281.504 64.4844 281.316 63.8398 281.188 63.0664C281.07 62.2812 281.012 61.4961 281.012 60.7109ZM281.68 53.416L281.715 56.2812H278.885C278.217 56.2812 277.637 56.3574 277.145 56.5098C276.652 56.6621 276.248 56.8789 275.932 57.1602C275.615 57.4297 275.381 57.7461 275.229 58.1094C275.088 58.4727 275.018 58.8711 275.018 59.3047C275.018 59.7383 275.117 60.1309 275.316 60.4824C275.516 60.8223 275.803 61.0918 276.178 61.291C276.553 61.4785 276.992 61.5723 277.496 61.5723C278.258 61.5723 278.92 61.4199 279.482 61.1152C280.045 60.8105 280.479 60.4355 280.783 59.9902C281.1 59.5449 281.264 59.123 281.275 58.7246L282.611 60.8691C282.424 61.3496 282.166 61.8477 281.838 62.3633C281.521 62.8789 281.117 63.3652 280.625 63.8223C280.133 64.2676 279.541 64.6367 278.85 64.9297C278.158 65.2109 277.338 65.3516 276.389 65.3516C275.182 65.3516 274.086 65.1113 273.102 64.6309C272.129 64.1387 271.355 63.4648 270.781 62.6094C270.219 61.7422 269.938 60.7578 269.938 59.6562C269.938 58.6602 270.125 57.7754 270.5 57.002C270.875 56.2285 271.426 55.5781 272.152 55.0508C272.891 54.5117 273.811 54.1074 274.912 53.8379C276.014 53.5566 277.291 53.416 278.744 53.416H281.68ZM294.969 50.041V65H289.906V45.9805H294.652L294.969 50.041ZM294.23 54.8223H292.859C292.859 53.416 293.041 52.1504 293.404 51.0254C293.768 49.8887 294.277 48.9219 294.934 48.125C295.59 47.3164 296.369 46.7012 297.271 46.2793C298.186 45.8457 299.205 45.6289 300.33 45.6289C301.221 45.6289 302.035 45.7578 302.773 46.0156C303.512 46.2734 304.145 46.6836 304.672 47.2461C305.211 47.8086 305.621 48.5527 305.902 49.4785C306.195 50.4043 306.342 51.5352 306.342 52.8711V65H301.244V52.8535C301.244 52.0098 301.127 51.3535 300.893 50.8848C300.658 50.416 300.312 50.0879 299.855 49.9004C299.41 49.7012 298.859 49.6016 298.203 49.6016C297.523 49.6016 296.932 49.7363 296.428 50.0059C295.936 50.2754 295.525 50.6504 295.197 51.1309C294.881 51.5996 294.641 52.1504 294.477 52.7832C294.312 53.416 294.23 54.0957 294.23 54.8223ZM322.232 45.9805H326.82V64.3672C326.82 66.1016 326.434 67.5723 325.66 68.7793C324.898 69.998 323.832 70.918 322.461 71.5391C321.09 72.1719 319.496 72.4883 317.68 72.4883C316.883 72.4883 316.039 72.3828 315.148 72.1719C314.27 71.9609 313.426 71.6328 312.617 71.1875C311.82 70.7422 311.152 70.1797 310.613 69.5L312.846 66.5117C313.432 67.1914 314.111 67.7188 314.885 68.0938C315.658 68.4805 316.514 68.6738 317.451 68.6738C318.365 68.6738 319.139 68.5039 319.771 68.1641C320.404 67.8359 320.891 67.3496 321.23 66.7051C321.57 66.0723 321.74 65.3047 321.74 64.4023V50.375L322.232 45.9805ZM309.436 55.7188V55.3496C309.436 53.8965 309.611 52.5781 309.963 51.3945C310.326 50.1992 310.836 49.1738 311.492 48.3184C312.16 47.4629 312.969 46.8008 313.918 46.332C314.867 45.8633 315.939 45.6289 317.135 45.6289C318.4 45.6289 319.461 45.8633 320.316 46.332C321.172 46.8008 321.875 47.4688 322.426 48.3359C322.977 49.1914 323.404 50.2051 323.709 51.377C324.025 52.5371 324.271 53.8086 324.447 55.1914V56C324.271 57.3242 324.008 58.5547 323.656 59.6914C323.305 60.8281 322.842 61.8242 322.268 62.6797C321.693 63.5234 320.979 64.1797 320.123 64.6484C319.279 65.1172 318.271 65.3516 317.1 65.3516C315.928 65.3516 314.867 65.1113 313.918 64.6309C312.98 64.1504 312.178 63.4766 311.51 62.6094C310.842 61.7422 310.326 60.7227 309.963 59.5508C309.611 58.3789 309.436 57.1016 309.436 55.7188ZM314.498 55.3496V55.7188C314.498 56.5039 314.574 57.2363 314.727 57.916C314.879 58.5957 315.113 59.1992 315.43 59.7266C315.758 60.2422 316.162 60.6465 316.643 60.9395C317.135 61.2207 317.715 61.3613 318.383 61.3613C319.309 61.3613 320.064 61.168 320.65 60.7812C321.236 60.3828 321.676 59.8379 321.969 59.1465C322.262 58.4551 322.432 57.6582 322.479 56.7559V54.4531C322.455 53.7148 322.355 53.0527 322.18 52.4668C322.004 51.8691 321.758 51.3594 321.441 50.9375C321.125 50.5156 320.715 50.1875 320.211 49.9531C319.707 49.7188 319.109 49.6016 318.418 49.6016C317.75 49.6016 317.17 49.7539 316.678 50.0586C316.197 50.3516 315.793 50.7559 315.465 51.2715C315.148 51.7871 314.908 52.3965 314.744 53.0996C314.58 53.791 314.498 54.541 314.498 55.3496ZM339.512 65.3516C338.035 65.3516 336.711 65.1172 335.539 64.6484C334.367 64.168 333.371 63.5059 332.551 62.6621C331.742 61.8184 331.121 60.8398 330.688 59.7266C330.254 58.6016 330.037 57.4062 330.037 56.1406V55.4375C330.037 53.9961 330.242 52.6777 330.652 51.4824C331.062 50.2871 331.648 49.25 332.41 48.3711C333.184 47.4922 334.121 46.8184 335.223 46.3496C336.324 45.8691 337.566 45.6289 338.949 45.6289C340.297 45.6289 341.492 45.8516 342.535 46.2969C343.578 46.7422 344.451 47.375 345.154 48.1953C345.869 49.0156 346.408 50 346.771 51.1484C347.135 52.2852 347.316 53.5508 347.316 54.9453V57.0547H332.199V53.6797H342.342V53.293C342.342 52.5898 342.213 51.9629 341.955 51.4121C341.709 50.8496 341.334 50.4043 340.83 50.0762C340.326 49.748 339.682 49.584 338.896 49.584C338.229 49.584 337.654 49.7305 337.174 50.0234C336.693 50.3164 336.301 50.7266 335.996 51.2539C335.703 51.7812 335.48 52.4023 335.328 53.1172C335.188 53.8203 335.117 54.5938 335.117 55.4375V56.1406C335.117 56.9023 335.223 57.6055 335.434 58.25C335.656 58.8945 335.967 59.4512 336.365 59.9199C336.775 60.3887 337.268 60.752 337.842 61.0098C338.428 61.2676 339.09 61.3965 339.828 61.3965C340.742 61.3965 341.592 61.2207 342.377 60.8691C343.174 60.5059 343.859 59.9609 344.434 59.2344L346.895 61.9062C346.496 62.4805 345.951 63.0312 345.26 63.5586C344.58 64.0859 343.76 64.5195 342.799 64.8594C341.838 65.1875 340.742 65.3516 339.512 65.3516Z" fill="white"/>
<rect x="416" y="32" width="52" height="52" rx="8" fill="white"/>
<path d="M438.59 66.5C438.11 66.5 437.654 66.3103 437.318 65.9782L430.522 59.266C429.826 58.5781 429.826 57.4397 430.522 56.7518C431.219 56.064 432.371 56.064 433.068 56.7518L438.59 62.207L450.932 50.0159C451.629 49.328 452.781 49.328 453.478 50.0159C454.174 50.7037 454.174 51.8422 453.478 52.53L439.863 65.9782C439.527 66.3103 439.071 66.5 438.59 66.5Z" fill="#EF4868"/>
</g>
<g opacity="0.07">
<path d="M398.225 161.959C431.082 152.538 450.081 118.265 440.659 85.4084C431.238 52.5513 396.964 33.5526 364.107 42.9741C331.25 52.3955 312.251 86.6696 321.672 119.527C331.094 152.384 365.368 171.381 398.225 161.959Z" fill="white"/>
<path d="M500.679 261.086C521.361 255.155 526.773 228.734 510.377 214.921C485.62 194.111 446.937 186.412 408.381 197.468C369.826 208.523 341.1 235.55 331.132 266.318C324.547 286.72 343.137 306.259 363.82 300.329L500.679 261.086Z" fill="white"/>
</g>
</g>
<defs>
<linearGradient id="paint0_linear_7390_33938" x1="500" y1="300" x2="-1.60933e-05" y2="2.68221e-05" gradientUnits="userSpaceOnUse">
<stop offset="0.0408417" stop-color="#EE4C6B"/>
<stop offset="0.565" stop-color="#EF4868"/>
</linearGradient>
<clipPath id="clip0_7390_33938">
<rect width="500" height="300" fill="white"/>
</clipPath>
<clipPath id="clip1_7390_33938">
<rect width="500" height="300" rx="16" fill="white"/>
</clipPath>
</defs>
</svg>
