<svg width="16" height="17" viewBox="0 0 16 17" fill="none" xmlns="http://www.w3.org/2000/svg">
<path d="M8 0.867676C3.58894 0.867676 0 4.45662 0 8.86768C0 13.2787 3.58894 16.8677 8 16.8677C12.4111 16.8677 16 13.2787 16 8.86768C16 4.45662 12.4111 0.867676 8 0.867676ZM8 2.09845C11.7452 2.09845 14.7692 5.12248 14.7692 8.86768C14.7692 12.6129 11.7452 15.6369 8 15.6369C4.25481 15.6369 1.23077 12.6129 1.23077 8.86768C1.23077 5.12248 4.25481 2.09845 8 2.09845ZM6.15385 6.40614L3.69231 8.86768L6.15385 11.3292V9.48306H12.3077V8.25229H6.15385V6.40614Z" fill="black"/>
</svg>
