<svg width="17" height="17" viewBox="0 0 17 17" fill="none" xmlns="http://www.w3.org/2000/svg">
<circle cx="8.5" cy="8.73535" r="8" fill="#330080"/>
<path d="M7.36466 11.6009C7.28588 11.6009 7.20789 11.5853 7.13513 11.5551C7.06238 11.5249 6.99629 11.4807 6.94066 11.4249L4.67666 9.16011C4.57067 9.04637 4.51298 8.89594 4.51572 8.7405C4.51846 8.58506 4.58143 8.43675 4.69136 8.32682C4.80129 8.21689 4.9496 8.15392 5.10504 8.15118C5.26048 8.14843 5.41092 8.20613 5.52466 8.31212L7.36466 10.1521L11.4767 6.04092C11.5904 5.93493 11.7408 5.87723 11.8963 5.87998C12.0517 5.88272 12.2 5.94569 12.31 6.05562C12.4199 6.16555 12.4829 6.31386 12.4856 6.4693C12.4883 6.62474 12.4306 6.77518 12.3247 6.88892L7.78866 11.4249C7.73302 11.4807 7.66694 11.5249 7.59418 11.5551C7.52143 11.5853 7.44343 11.6009 7.36466 11.6009Z" fill="white"/>
</svg>
