<svg width="42" height="43" viewBox="0 0 42 43" fill="none" xmlns="http://www.w3.org/2000/svg">
<g filter="url(#filter0_d_1106_18181)">
<rect x="1" y="1.73535" width="40" height="40" rx="4" fill="white"/>
<rect x="1.5" y="2.23535" width="39" height="39" rx="3.5" stroke="black" stroke-opacity="0.08"/>
<path d="M33.4007 15.842H25.9607C25.4407 15.842 25.0273 15.4287 25.0273 14.9087C25.0273 14.3887 25.4407 13.9753 25.9607 13.9753H33.4007C33.9207 13.9753 34.334 14.3887 34.334 14.9087C34.334 15.4287 33.9207 15.842 33.4007 15.842Z" fill="#B0A7BC"/>
<path d="M13.5593 15.842H8.59935C8.07935 15.842 7.66602 15.4287 7.66602 14.9087C7.66602 14.3887 8.07935 13.9753 8.59935 13.9753H13.5593C14.0793 13.9753 14.4927 14.3887 14.4927 14.9087C14.4927 15.4287 14.066 15.842 13.5593 15.842Z" fill="#B0A7BC"/>
<path d="M18.5206 20.1754C21.4293 20.1754 23.7872 17.8175 23.7872 14.9088C23.7872 12.0001 21.4293 9.64209 18.5206 9.64209C15.6119 9.64209 13.2539 12.0001 13.2539 14.9088C13.2539 17.8175 15.6119 20.1754 18.5206 20.1754Z" fill="#B0A7BC"/>
<path d="M33.3992 29.4819H28.4392C27.9192 29.4819 27.5059 29.0686 27.5059 28.5486C27.5059 28.0286 27.9192 27.6152 28.4392 27.6152H33.3992C33.9192 27.6152 34.3325 28.0286 34.3325 28.5486C34.3325 29.0686 33.9192 29.4819 33.3992 29.4819Z" fill="#B0A7BC"/>
<path d="M16.0393 29.4819H8.59935C8.07935 29.4819 7.66602 29.0686 7.66602 28.5486C7.66602 28.0286 8.07935 27.6152 8.59935 27.6152H16.0393C16.5593 27.6152 16.9727 28.0286 16.9727 28.5486C16.9727 29.0686 16.546 29.4819 16.0393 29.4819Z" fill="#B0A7BC"/>
<path d="M23.4796 33.8287C26.3883 33.8287 28.7462 31.4708 28.7462 28.5621C28.7462 25.6534 26.3883 23.2954 23.4796 23.2954C20.5709 23.2954 18.2129 25.6534 18.2129 28.5621C18.2129 31.4708 20.5709 33.8287 23.4796 33.8287Z" fill="#B0A7BC"/>
</g>
<defs>
<filter id="filter0_d_1106_18181" x="0" y="0.735352" width="42" height="42" filterUnits="userSpaceOnUse" color-interpolation-filters="sRGB">
<feFlood flood-opacity="0" result="BackgroundImageFix"/>
<feColorMatrix in="SourceAlpha" type="matrix" values="0 0 0 0 0 0 0 0 0 0 0 0 0 0 0 0 0 0 127 0" result="hardAlpha"/>
<feOffset/>
<feGaussianBlur stdDeviation="0.5"/>
<feComposite in2="hardAlpha" operator="out"/>
<feColorMatrix type="matrix" values="0 0 0 0 0 0 0 0 0 0 0 0 0 0 0 0 0 0 0.25 0"/>
<feBlend mode="normal" in2="BackgroundImageFix" result="effect1_dropShadow_1106_18181"/>
<feBlend mode="normal" in="SourceGraphic" in2="effect1_dropShadow_1106_18181" result="shape"/>
</filter>
</defs>
</svg>
