<svg width="500" height="300" viewBox="0 0 500 300" fill="none" xmlns="http://www.w3.org/2000/svg">
<g clip-path="url(#clip0_7390_33890)">
<g clip-path="url(#clip1_7390_33890)">
<rect width="500" height="300" rx="16" fill="#F5F5F5"/>
<rect width="500" height="300" rx="16" fill="url(#paint0_linear_7390_33890)"/>
<path d="M41.5791 64H36.3164L36.3496 60.1152H41.5791C42.8851 60.1152 43.9863 59.8219 44.8828 59.2354C45.7793 58.6377 46.4544 57.7689 46.9082 56.6289C47.373 55.4889 47.6055 54.111 47.6055 52.4951V51.3164C47.6055 50.0768 47.4727 48.9867 47.207 48.0459C46.9525 47.1051 46.5706 46.3138 46.0615 45.6719C45.5524 45.0299 44.9271 44.5485 44.1855 44.2275C43.444 43.8955 42.5918 43.7295 41.6289 43.7295H36.2168V39.8281H41.6289C43.2448 39.8281 44.7223 40.1048 46.0615 40.6582C47.4118 41.2005 48.5794 41.9808 49.5645 42.999C50.5495 44.0173 51.3076 45.2347 51.8389 46.6514C52.3812 48.057 52.6523 49.623 52.6523 51.3496V52.4951C52.6523 54.2106 52.3812 55.7767 51.8389 57.1934C51.3076 58.61 50.5495 59.8275 49.5645 60.8457C48.5905 61.8529 47.4229 62.6331 46.0615 63.1865C44.7113 63.7288 43.2171 64 41.5791 64ZM39.1387 39.8281V64H34.1582V39.8281H39.1387ZM64.2402 64.332C62.8457 64.332 61.5951 64.1107 60.4883 63.668C59.3815 63.2142 58.4408 62.5889 57.666 61.792C56.9023 60.9951 56.3158 60.071 55.9062 59.0195C55.4967 57.957 55.292 56.8281 55.292 55.6328V54.9688C55.292 53.6074 55.4857 52.3623 55.873 51.2334C56.2604 50.1045 56.8138 49.125 57.5332 48.2949C58.2637 47.4648 59.1491 46.8285 60.1895 46.3857C61.2298 45.932 62.403 45.7051 63.709 45.7051C64.9818 45.7051 66.1107 45.9154 67.0957 46.3359C68.0807 46.7565 68.9053 47.3542 69.5693 48.1289C70.2445 48.9036 70.7536 49.8333 71.0967 50.918C71.4398 51.9915 71.6113 53.1868 71.6113 54.5039V56.4961H57.334V53.3086H66.9131V52.9434C66.9131 52.2793 66.7913 51.6872 66.5479 51.167C66.3154 50.6357 65.9613 50.2152 65.4854 49.9053C65.0094 49.5954 64.4007 49.4404 63.6592 49.4404C63.0283 49.4404 62.486 49.5788 62.0322 49.8555C61.5785 50.1322 61.2077 50.5195 60.9199 51.0176C60.6432 51.5156 60.4329 52.1022 60.2891 52.7773C60.1562 53.4414 60.0898 54.1719 60.0898 54.9688V55.6328C60.0898 56.3522 60.1895 57.0163 60.3887 57.625C60.599 58.2337 60.8923 58.7594 61.2686 59.2021C61.6559 59.6449 62.1208 59.988 62.6631 60.2314C63.2165 60.4749 63.8418 60.5967 64.5391 60.5967C65.4023 60.5967 66.2048 60.4307 66.9463 60.0986C67.6989 59.7555 68.3464 59.2409 68.8887 58.5547L71.2129 61.0781C70.8366 61.6204 70.3219 62.1406 69.6689 62.6387C69.027 63.1367 68.2523 63.5462 67.3447 63.8672C66.4372 64.1771 65.4023 64.332 64.2402 64.332ZM79.6133 39.8281V64H74.6328V39.8281H79.6133ZM89.2422 50.1543V54.0391H78.252V50.1543H89.2422ZM90.4043 39.8281V43.7295H78.252V39.8281H90.4043ZM98.041 46.0371V64H93.2432V46.0371H98.041ZM92.9443 41.3555C92.9443 40.6582 93.1878 40.0827 93.6748 39.6289C94.1618 39.1751 94.8148 38.9482 95.6338 38.9482C96.4417 38.9482 97.0892 39.1751 97.5762 39.6289C98.0742 40.0827 98.3232 40.6582 98.3232 41.3555C98.3232 42.0527 98.0742 42.6283 97.5762 43.082C97.0892 43.5358 96.4417 43.7627 95.6338 43.7627C94.8148 43.7627 94.1618 43.5358 93.6748 43.082C93.1878 42.6283 92.9443 42.0527 92.9443 41.3555ZM117.88 60.5967C118.466 60.5967 118.987 60.486 119.44 60.2646C119.894 60.0322 120.248 59.7113 120.503 59.3018C120.769 58.8812 120.907 58.3887 120.918 57.8242H125.417C125.406 59.0859 125.068 60.2093 124.404 61.1943C123.74 62.1683 122.849 62.9375 121.731 63.502C120.614 64.0553 119.363 64.332 117.979 64.332C116.585 64.332 115.368 64.0996 114.327 63.6348C113.298 63.1699 112.44 62.528 111.754 61.709C111.068 60.8789 110.553 59.916 110.21 58.8203C109.867 57.7135 109.695 56.5293 109.695 55.2676V54.7861C109.695 53.5133 109.867 52.3291 110.21 51.2334C110.553 50.1266 111.068 49.1637 111.754 48.3447C112.44 47.5146 113.298 46.8672 114.327 46.4023C115.356 45.9375 116.563 45.7051 117.946 45.7051C119.418 45.7051 120.708 45.9873 121.814 46.5518C122.932 47.1162 123.807 47.9242 124.438 48.9756C125.079 50.016 125.406 51.25 125.417 52.6777H120.918C120.907 52.0801 120.78 51.5378 120.536 51.0508C120.304 50.5638 119.961 50.1764 119.507 49.8887C119.064 49.5898 118.516 49.4404 117.863 49.4404C117.166 49.4404 116.596 49.5898 116.153 49.8887C115.711 50.1764 115.368 50.5749 115.124 51.084C114.881 51.582 114.709 52.152 114.609 52.7939C114.521 53.4248 114.477 54.0889 114.477 54.7861V55.2676C114.477 55.9648 114.521 56.6344 114.609 57.2764C114.698 57.9183 114.864 58.4883 115.107 58.9863C115.362 59.4844 115.711 59.8773 116.153 60.165C116.596 60.4528 117.172 60.5967 117.88 60.5967ZM127.426 55.2012V54.8525C127.426 53.5355 127.614 52.3236 127.99 51.2168C128.367 50.099 128.914 49.1305 129.634 48.3115C130.353 47.4925 131.239 46.8561 132.29 46.4023C133.341 45.9375 134.548 45.7051 135.909 45.7051C137.271 45.7051 138.482 45.9375 139.545 46.4023C140.607 46.8561 141.498 47.4925 142.218 48.3115C142.948 49.1305 143.502 50.099 143.878 51.2168C144.254 52.3236 144.442 53.5355 144.442 54.8525V55.2012C144.442 56.5072 144.254 57.7191 143.878 58.8369C143.502 59.9437 142.948 60.9121 142.218 61.7422C141.498 62.5612 140.613 63.1976 139.562 63.6514C138.51 64.1051 137.304 64.332 135.942 64.332C134.581 64.332 133.369 64.1051 132.307 63.6514C131.255 63.1976 130.364 62.5612 129.634 61.7422C128.914 60.9121 128.367 59.9437 127.99 58.8369C127.614 57.7191 127.426 56.5072 127.426 55.2012ZM132.207 54.8525V55.2012C132.207 55.9538 132.273 56.6566 132.406 57.3096C132.539 57.9626 132.749 58.5381 133.037 59.0361C133.336 59.5231 133.723 59.9049 134.199 60.1816C134.675 60.4583 135.256 60.5967 135.942 60.5967C136.606 60.5967 137.176 60.4583 137.652 60.1816C138.128 59.9049 138.51 59.5231 138.798 59.0361C139.086 58.5381 139.296 57.9626 139.429 57.3096C139.573 56.6566 139.645 55.9538 139.645 55.2012V54.8525C139.645 54.1221 139.573 53.4359 139.429 52.7939C139.296 52.141 139.08 51.5654 138.781 51.0674C138.493 50.5583 138.112 50.1598 137.636 49.8721C137.16 49.5843 136.584 49.4404 135.909 49.4404C135.234 49.4404 134.659 49.5843 134.183 49.8721C133.718 50.1598 133.336 50.5583 133.037 51.0674C132.749 51.5654 132.539 52.141 132.406 52.7939C132.273 53.4359 132.207 54.1221 132.207 54.8525ZM152.162 49.7559V64H147.364V46.0371H151.863L152.162 49.7559ZM151.498 54.3877H150.17C150.17 53.137 150.319 51.986 150.618 50.9346C150.928 49.8721 151.376 48.9535 151.963 48.1787C152.561 47.3929 153.297 46.7842 154.171 46.3525C155.045 45.9209 156.058 45.7051 157.209 45.7051C158.006 45.7051 158.736 45.8268 159.4 46.0703C160.064 46.3027 160.634 46.6735 161.11 47.1826C161.597 47.6807 161.974 48.3337 162.239 49.1416C162.505 49.9385 162.638 50.8958 162.638 52.0137V64H157.856V52.5449C157.856 51.7259 157.746 51.0951 157.524 50.6523C157.303 50.2096 156.988 49.8997 156.578 49.7227C156.18 49.5456 155.698 49.457 155.134 49.457C154.514 49.457 153.972 49.5843 153.507 49.8389C153.053 50.0934 152.677 50.4476 152.378 50.9014C152.079 51.3441 151.858 51.8643 151.714 52.4619C151.57 53.0596 151.498 53.7015 151.498 54.3877ZM162.189 53.8398L160.479 54.0557C160.479 52.8825 160.623 51.7923 160.911 50.7852C161.21 49.778 161.647 48.8926 162.223 48.1289C162.809 47.3652 163.534 46.7731 164.397 46.3525C165.261 45.9209 166.257 45.7051 167.386 45.7051C168.249 45.7051 169.035 45.8324 169.743 46.0869C170.451 46.3304 171.055 46.7233 171.553 47.2656C172.062 47.7969 172.449 48.4941 172.715 49.3574C172.992 50.2207 173.13 51.2777 173.13 52.5283V64H168.332V52.5283C168.332 51.6982 168.221 51.0674 168 50.6357C167.79 50.193 167.48 49.8887 167.07 49.7227C166.672 49.5456 166.196 49.457 165.643 49.457C165.067 49.457 164.563 49.5732 164.132 49.8057C163.7 50.027 163.34 50.3369 163.053 50.7354C162.765 51.1338 162.549 51.5986 162.405 52.1299C162.261 52.6501 162.189 53.2201 162.189 53.8398ZM181.613 49.4902V70.9062H176.832V46.0371H181.265L181.613 49.4902ZM192.985 54.8193V55.168C192.985 56.474 192.83 57.6859 192.521 58.8037C192.222 59.9215 191.779 60.8955 191.192 61.7256C190.606 62.5446 189.875 63.1865 189.001 63.6514C188.138 64.1051 187.142 64.332 186.013 64.332C184.917 64.332 183.965 64.1107 183.157 63.668C182.349 63.2253 181.669 62.6055 181.115 61.8086C180.573 61.0007 180.136 60.0654 179.804 59.0029C179.472 57.9404 179.217 56.8005 179.04 55.583V54.6699C179.217 53.3639 179.472 52.1686 179.804 51.084C180.136 49.9883 180.573 49.042 181.115 48.2451C181.669 47.4372 182.344 46.8118 183.141 46.3691C183.949 45.9264 184.895 45.7051 185.979 45.7051C187.119 45.7051 188.121 45.9209 188.984 46.3525C189.859 46.7842 190.589 47.404 191.176 48.2119C191.773 49.0199 192.222 49.9827 192.521 51.1006C192.83 52.2184 192.985 53.458 192.985 54.8193ZM188.188 55.168V54.8193C188.188 54.0557 188.121 53.3529 187.988 52.7109C187.867 52.0579 187.667 51.488 187.391 51.001C187.125 50.514 186.771 50.1377 186.328 49.8721C185.896 49.5954 185.371 49.457 184.751 49.457C184.098 49.457 183.539 49.5622 183.074 49.7725C182.62 49.9827 182.25 50.2871 181.962 50.6855C181.674 51.084 181.458 51.5599 181.314 52.1133C181.171 52.6667 181.082 53.292 181.049 53.9893V56.2969C181.104 57.1159 181.259 57.8519 181.514 58.5049C181.768 59.1468 182.161 59.6559 182.692 60.0322C183.224 60.4085 183.921 60.5967 184.784 60.5967C185.415 60.5967 185.946 60.4583 186.378 60.1816C186.81 59.8939 187.158 59.501 187.424 59.0029C187.701 58.5049 187.894 57.9294 188.005 57.2764C188.127 56.6234 188.188 55.9206 188.188 55.168ZM201.004 38.5V64H196.206V38.5H201.004ZM210.002 46.0371V64H205.204V46.0371H210.002ZM204.905 41.3555C204.905 40.6582 205.149 40.0827 205.636 39.6289C206.123 39.1751 206.776 38.9482 207.595 38.9482C208.403 38.9482 209.05 39.1751 209.537 39.6289C210.035 40.0827 210.284 40.6582 210.284 41.3555C210.284 42.0527 210.035 42.6283 209.537 43.082C209.05 43.5358 208.403 43.7627 207.595 43.7627C206.776 43.7627 206.123 43.5358 205.636 43.082C205.149 42.6283 204.905 42.0527 204.905 41.3555ZM223.648 59.9492V51.9473C223.648 51.3717 223.554 50.8792 223.366 50.4697C223.178 50.0492 222.885 49.7227 222.486 49.4902C222.099 49.2578 221.595 49.1416 220.976 49.1416C220.444 49.1416 219.985 49.2357 219.598 49.4238C219.21 49.6009 218.911 49.861 218.701 50.2041C218.491 50.5361 218.386 50.929 218.386 51.3828H213.604C213.604 50.6191 213.782 49.8942 214.136 49.208C214.49 48.5218 215.005 47.9186 215.68 47.3984C216.355 46.8672 217.157 46.4521 218.087 46.1533C219.028 45.8545 220.079 45.7051 221.241 45.7051C222.636 45.7051 223.875 45.9375 224.96 46.4023C226.045 46.8672 226.897 47.5645 227.517 48.4941C228.147 49.4238 228.463 50.5859 228.463 51.9805V59.667C228.463 60.652 228.524 61.46 228.646 62.0908C228.767 62.7106 228.944 63.2529 229.177 63.7178V64H224.346C224.113 63.513 223.936 62.9043 223.814 62.1738C223.704 61.4323 223.648 60.6908 223.648 59.9492ZM224.279 53.0596L224.312 55.7656H221.64C221.009 55.7656 220.461 55.8376 219.996 55.9814C219.531 56.1253 219.149 56.3301 218.851 56.5957C218.552 56.8503 218.33 57.1491 218.187 57.4922C218.054 57.8353 217.987 58.2116 217.987 58.6211C217.987 59.0306 218.081 59.4014 218.27 59.7334C218.458 60.0544 218.729 60.3089 219.083 60.4971C219.437 60.6742 219.852 60.7627 220.328 60.7627C221.048 60.7627 221.673 60.6188 222.204 60.3311C222.735 60.0433 223.145 59.6891 223.433 59.2686C223.731 58.848 223.886 58.4495 223.897 58.0732L225.159 60.0986C224.982 60.5524 224.739 61.0228 224.429 61.5098C224.13 61.9967 223.748 62.4561 223.283 62.8877C222.818 63.3083 222.259 63.6569 221.606 63.9336C220.953 64.1992 220.179 64.332 219.282 64.332C218.142 64.332 217.107 64.1051 216.178 63.6514C215.259 63.1865 214.529 62.5501 213.986 61.7422C213.455 60.9232 213.189 59.9935 213.189 58.9531C213.189 58.0124 213.367 57.1768 213.721 56.4463C214.075 55.7158 214.595 55.1016 215.281 54.6035C215.979 54.0944 216.847 53.7126 217.888 53.458C218.928 53.1924 220.134 53.0596 221.507 53.0596H224.279ZM236.83 49.8721V64H232.049V46.0371H236.531L236.83 49.8721ZM236.133 54.3877H234.838C234.838 53.0596 235.009 51.8643 235.353 50.8018C235.696 49.7282 236.177 48.8151 236.797 48.0625C237.417 47.2988 238.153 46.7178 239.005 46.3193C239.868 45.9098 240.831 45.7051 241.894 45.7051C242.735 45.7051 243.504 45.8268 244.201 46.0703C244.898 46.3138 245.496 46.7012 245.994 47.2324C246.503 47.7637 246.891 48.4665 247.156 49.3408C247.433 50.2152 247.571 51.2832 247.571 52.5449V64H242.757V52.5283C242.757 51.7314 242.646 51.1117 242.425 50.6689C242.203 50.2262 241.877 49.9163 241.445 49.7393C241.025 49.5511 240.505 49.457 239.885 49.457C239.243 49.457 238.684 49.5843 238.208 49.8389C237.743 50.0934 237.356 50.4476 237.046 50.9014C236.747 51.3441 236.52 51.8643 236.365 52.4619C236.21 53.0596 236.133 53.7015 236.133 54.3877ZM258.628 60.5967C259.215 60.5967 259.735 60.486 260.188 60.2646C260.642 60.0322 260.996 59.7113 261.251 59.3018C261.517 58.8812 261.655 58.3887 261.666 57.8242H266.165C266.154 59.0859 265.816 60.2093 265.152 61.1943C264.488 62.1683 263.597 62.9375 262.479 63.502C261.362 64.0553 260.111 64.332 258.728 64.332C257.333 64.332 256.116 64.0996 255.075 63.6348C254.046 63.1699 253.188 62.528 252.502 61.709C251.816 60.8789 251.301 59.916 250.958 58.8203C250.615 57.7135 250.443 56.5293 250.443 55.2676V54.7861C250.443 53.5133 250.615 52.3291 250.958 51.2334C251.301 50.1266 251.816 49.1637 252.502 48.3447C253.188 47.5146 254.046 46.8672 255.075 46.4023C256.104 45.9375 257.311 45.7051 258.694 45.7051C260.166 45.7051 261.456 45.9873 262.562 46.5518C263.68 47.1162 264.555 47.9242 265.186 48.9756C265.827 50.016 266.154 51.25 266.165 52.6777H261.666C261.655 52.0801 261.528 51.5378 261.284 51.0508C261.052 50.5638 260.709 50.1764 260.255 49.8887C259.812 49.5898 259.264 49.4404 258.611 49.4404C257.914 49.4404 257.344 49.5898 256.901 49.8887C256.459 50.1764 256.116 50.5749 255.872 51.084C255.629 51.582 255.457 52.152 255.357 52.7939C255.269 53.4248 255.225 54.0889 255.225 54.7861V55.2676C255.225 55.9648 255.269 56.6344 255.357 57.2764C255.446 57.9183 255.612 58.4883 255.855 58.9863C256.11 59.4844 256.459 59.8773 256.901 60.165C257.344 60.4528 257.92 60.5967 258.628 60.5967ZM277.205 64.332C275.811 64.332 274.56 64.1107 273.453 63.668C272.346 63.2142 271.406 62.5889 270.631 61.792C269.867 60.9951 269.281 60.071 268.871 59.0195C268.462 57.957 268.257 56.8281 268.257 55.6328V54.9688C268.257 53.6074 268.451 52.3623 268.838 51.2334C269.225 50.1045 269.779 49.125 270.498 48.2949C271.229 47.4648 272.114 46.8285 273.154 46.3857C274.195 45.932 275.368 45.7051 276.674 45.7051C277.947 45.7051 279.076 45.9154 280.061 46.3359C281.046 46.7565 281.87 47.3542 282.534 48.1289C283.209 48.9036 283.718 49.8333 284.062 50.918C284.405 51.9915 284.576 53.1868 284.576 54.5039V56.4961H270.299V53.3086H279.878V52.9434C279.878 52.2793 279.756 51.6872 279.513 51.167C279.28 50.6357 278.926 50.2152 278.45 49.9053C277.974 49.5954 277.366 49.4404 276.624 49.4404C275.993 49.4404 275.451 49.5788 274.997 49.8555C274.543 50.1322 274.173 50.5195 273.885 51.0176C273.608 51.5156 273.398 52.1022 273.254 52.7773C273.121 53.4414 273.055 54.1719 273.055 54.9688V55.6328C273.055 56.3522 273.154 57.0163 273.354 57.625C273.564 58.2337 273.857 58.7594 274.233 59.2021C274.621 59.6449 275.086 59.988 275.628 60.2314C276.181 60.4749 276.807 60.5967 277.504 60.5967C278.367 60.5967 279.17 60.4307 279.911 60.0986C280.664 59.7555 281.311 59.2409 281.854 58.5547L284.178 61.0781C283.801 61.6204 283.287 62.1406 282.634 62.6387C281.992 63.1367 281.217 63.5462 280.31 63.8672C279.402 64.1771 278.367 64.332 277.205 64.332Z" fill="white"/>
<rect x="416" y="32" width="52" height="52" rx="8" fill="white"/>
<path d="M438.59 66.5C438.11 66.5 437.654 66.3103 437.318 65.9782L430.522 59.266C429.826 58.5781 429.826 57.4397 430.522 56.7518C431.219 56.064 432.371 56.064 433.068 56.7518L438.59 62.207L450.932 50.0159C451.629 49.328 452.781 49.328 453.478 50.0159C454.174 50.7037 454.174 51.8422 453.478 52.53L439.863 65.9782C439.527 66.3103 439.071 66.5 438.59 66.5Z" fill="url(#paint1_linear_7390_33890)"/>
</g>
<g opacity="0.27" clip-path="url(#clip2_7390_33890)">
<path d="M331.174 221.801L331.214 221.732L310.669 186.256L269.679 186.205L269.64 186.274L290.032 221.5L269.621 256.853L269.765 257.105L270.061 257.107L290.472 221.753L331.174 221.801Z" fill="#2CA0FA"/>
<path d="M331.174 221.801L290.472 221.753L270.061 257.106L310.76 257.159L331.174 221.801Z" fill="#1E68FB"/>
<path d="M269.64 186.273L249.225 221.632L269.621 256.852L290.032 221.499L269.64 186.273Z" fill="#3E7DFC"/>
<path d="M443.99 286.935L444.03 286.867L423.485 251.391L382.495 251.34L382.456 251.408L402.842 286.631L382.431 321.984L382.581 322.24L382.876 322.241L403.288 286.888L443.99 286.935Z" fill="#2CA0FA"/>
<path d="M443.99 286.935L403.288 286.888L382.877 322.241L423.576 322.294L443.99 286.935Z" fill="#1E68FB"/>
<path d="M382.456 251.408L362.041 286.767L382.431 321.984L402.842 286.631L382.456 251.408Z" fill="#3E7DFC"/>
<path d="M379.788 284.896L303.486 240.843C302.721 240.401 302.162 239.675 301.931 238.824C301.701 237.972 301.818 237.065 302.257 236.302C302.698 235.538 303.425 234.981 304.279 234.754C305.132 234.526 306.042 234.647 306.808 235.089L383.11 279.142C383.874 279.585 384.432 280.313 384.66 281.164C384.889 282.016 384.77 282.923 384.33 283.686C383.889 284.447 383.163 285.002 382.311 285.229C381.46 285.455 380.553 285.336 379.788 284.896Z" fill="#058EFF"/>
<path d="M348.412 128.299L304.5 204.357C304.058 205.119 303.331 205.675 302.479 205.901C301.626 206.127 300.718 206.006 299.953 205.565C299.19 205.122 298.632 204.396 298.403 203.545C298.174 202.695 298.291 201.789 298.73 201.026L342.642 124.968C343.083 124.205 343.808 123.648 344.661 123.42C345.513 123.193 346.421 123.312 347.187 123.752C347.953 124.194 348.512 124.922 348.742 125.774C348.972 126.627 348.853 127.535 348.412 128.299Z" fill="#058EFF"/>
<path d="M461.223 193.431L417.31 269.489C417.092 269.867 416.802 270.197 416.456 270.462C416.11 270.728 415.714 270.922 415.293 271.034C414.871 271.147 414.431 271.175 413.998 271.117C413.565 271.06 413.147 270.918 412.768 270.699C412.004 270.258 411.445 269.532 411.216 268.681C410.987 267.83 411.105 266.923 411.545 266.161L455.458 190.102C455.675 189.724 455.965 189.392 456.311 189.127C456.658 188.861 457.053 188.666 457.475 188.553C457.898 188.44 458.338 188.411 458.772 188.469C459.205 188.526 459.624 188.668 460.003 188.887C460.382 189.106 460.714 189.397 460.98 189.744C461.247 190.091 461.442 190.486 461.556 190.909C461.669 191.331 461.698 191.771 461.641 192.203C461.584 192.636 461.441 193.053 461.223 193.431Z" fill="#058EFF"/>
<path d="M396.12 109.312L396.163 109.238L375.618 73.7619L334.628 73.7109L334.585 73.7848L354.981 109.005L334.57 144.358L334.714 144.611L335.009 144.612L355.42 109.259L396.12 109.312Z" fill="#2CA0FA"/>
<path d="M396.12 109.312L355.421 109.26L335.009 144.613L375.709 144.665L396.12 109.312Z" fill="#1E68FB"/>
<path d="M334.585 73.7852L314.174 109.138L334.57 144.359L354.981 109.006L334.585 73.7852Z" fill="#3E7DFC"/>
<path d="M508.936 174.447L508.979 174.373L488.434 138.897L447.444 138.846L447.401 138.92L467.791 174.137L447.38 209.49L447.529 209.745L447.825 209.747L468.236 174.394L508.936 174.447Z" fill="#2CA0FA"/>
<path d="M508.936 174.445L468.236 174.393L447.825 209.746L488.524 209.798L508.936 174.445Z" fill="#1E68FB"/>
<path d="M447.401 138.92L426.99 174.273L447.38 209.49L467.791 174.137L447.401 138.92Z" fill="#3E7DFC"/>
<path d="M444.737 172.401L368.435 128.348C368.056 128.129 367.723 127.839 367.456 127.492C367.189 127.146 366.992 126.751 366.878 126.329C366.764 125.907 366.735 125.467 366.791 125.034C366.847 124.601 366.989 124.184 367.207 123.806C367.425 123.428 367.716 123.097 368.062 122.832C368.409 122.566 368.805 122.372 369.227 122.26C369.65 122.148 370.09 122.12 370.524 122.178C370.957 122.236 371.375 122.379 371.754 122.599L448.056 166.652C448.435 166.871 448.767 167.161 449.033 167.508C449.299 167.854 449.495 168.249 449.608 168.671C449.722 169.092 449.751 169.532 449.695 169.964C449.638 170.396 449.497 170.813 449.279 171.19C449.061 171.568 448.771 171.899 448.425 172.164C448.079 172.429 447.683 172.623 447.261 172.735C446.84 172.848 446.4 172.876 445.967 172.819C445.533 172.761 445.116 172.619 444.737 172.401Z" fill="#058EFF"/>
<path fill-rule="evenodd" clip-rule="evenodd" d="M401.082 176.552L383.082 168.838C380.476 167.721 377.525 167.721 374.919 168.838L356.919 176.552C355.649 177.096 354.826 178.345 354.826 179.726V197.868C354.826 204.56 358.057 210.84 363.503 214.729L374.986 222.931C377.387 224.647 380.614 224.647 383.015 222.931L394.498 214.729C399.944 210.84 403.175 204.56 403.175 197.868V179.726C403.175 178.345 402.352 177.096 401.082 176.552ZM390.922 189.06C391.612 188.198 391.472 186.939 390.61 186.249C389.747 185.559 388.489 185.699 387.799 186.561L375.38 202.084L370.053 196.757C369.272 195.976 368.006 195.976 367.225 196.757C366.444 197.538 366.444 198.804 367.225 199.586L373.737 206.098C374.791 207.151 376.526 207.055 377.457 205.892L390.922 189.06Z" fill="#048FFF"/>
</g>
</g>
<defs>
<linearGradient id="paint0_linear_7390_33890" x1="500" y1="300" x2="6.00006" y2="7.99996" gradientUnits="userSpaceOnUse">
<stop offset="0.102239" stop-color="#4B24F5"/>
<stop offset="1" stop-color="#0292FF"/>
</linearGradient>
<linearGradient id="paint1_linear_7390_33890" x1="454" y1="66.5" x2="428.417" y2="53.6907" gradientUnits="userSpaceOnUse">
<stop offset="0.229161" stop-color="#3524F5"/>
</linearGradient>
<clipPath id="clip0_7390_33890">
<rect width="500" height="300" fill="white"/>
</clipPath>
<clipPath id="clip1_7390_33890">
<rect width="500" height="300" rx="16" fill="white"/>
</clipPath>
<clipPath id="clip2_7390_33890">
<rect width="201.316" height="211.707" fill="white" transform="translate(344.854 56) rotate(30)"/>
</clipPath>
</defs>
</svg>
