<?xml version="1.0" standalone="no"?>
<!DOCTYPE svg PUBLIC "-//W3C//DTD SVG 20010904//EN"
 "http://www.w3.org/TR/2001/REC-SVG-20010904/DTD/svg10.dtd">
<svg version="1.0" xmlns="http://www.w3.org/2000/svg"
 width="500.000000pt" height="143.000000pt" viewBox="0 0 500.000000 143.000000"
 preserveAspectRatio="xMidYMid meet">

<g transform="translate(0.000000,143.000000) scale(0.100000,-0.100000)"
fill="#000000" stroke="none">
<path d="M3830 887 c0 -214 4 -230 63 -245 30 -8 101 -1 113 11 3 3 3 19 -1
36 -5 25 -12 30 -38 33 l-32 3 -3 178 -2 177 -50 0 -50 0 0 -193z"/>
<path d="M4040 887 c0 -215 4 -229 65 -246 31 -8 98 -1 112 12 3 3 2 19 -2 36
-5 25 -12 30 -38 33 l-32 3 -3 178 -2 177 -50 0 -50 0 0 -193z"/>
<path d="M4550 886 c0 -217 4 -231 70 -245 35 -7 105 1 117 13 4 3 2 19 -3 34
-7 20 -15 26 -32 24 -41 -6 -52 14 -52 94 l0 74 40 0 40 0 0 40 0 40 -40 0
-40 0 0 60 0 60 -50 0 -50 0 0 -194z"/>
<path d="M640 953 c-18 -65 -34 -119 -35 -120 -1 -2 -86 45 -189 103 -212 119
-216 121 -216 103 0 -7 59 -168 132 -357 l131 -343 191 -97 c105 -53 198 -98
206 -100 11 -2 25 36 59 160 24 90 48 173 52 186 9 23 11 22 156 -52 81 -41
149 -73 151 -71 2 2 -45 111 -104 243 l-108 239 -188 112 c-103 61 -191 111
-196 111 -5 0 -24 -53 -42 -117z"/>
<path d="M1694 1041 c-68 -42 -99 -113 -92 -216 7 -118 70 -185 175 -185 60 0
99 13 131 43 44 41 56 77 57 167 0 100 -23 155 -78 189 -46 28 -148 29 -193 2z
m117 -71 c35 -19 51 -67 47 -138 -4 -55 -8 -68 -32 -88 -34 -30 -48 -30 -83 0
-25 21 -28 31 -31 100 -4 73 -3 76 26 106 33 33 43 35 73 20z"/>
<path d="M3001 923 c16 -76 36 -171 45 -210 l16 -73 54 0 c35 0 56 5 59 13 2
6 14 56 26 111 13 57 25 93 29 85 4 -8 15 -50 24 -94 27 -124 20 -115 82 -115
30 0 54 1 54 3 0 2 18 93 40 202 22 109 40 203 40 207 0 5 -24 8 -52 6 l-53
-3 -17 -113 c-21 -146 -22 -148 -37 -72 -7 36 -17 87 -23 113 l-10 48 -51 -3
-51 -3 -22 -108 c-20 -101 -34 -143 -34 -102 0 10 -10 69 -21 132 l-21 113
-53 0 -53 0 29 -137z"/>
<path d="M2057 958 l-37 -10 2 -217 3 -216 50 0 50 0 3 62 3 61 45 0 c83 0
124 47 132 150 9 125 -40 183 -153 181 -33 -1 -77 -6 -98 -11z m143 -98 c14
-35 9 -113 -10 -135 -7 -8 -23 -15 -36 -15 -23 0 -24 2 -24 90 l0 90 29 0 c22
0 31 -6 41 -30z"/>
<path d="M2445 960 c-28 -11 -72 -60 -84 -93 -28 -72 -4 -170 50 -210 34 -24
132 -26 177 -3 29 15 31 18 20 44 -7 15 -13 29 -14 30 -2 2 -19 -1 -39 -8 -43
-14 -81 -7 -95 19 -9 17 -5 20 40 30 66 14 97 35 110 76 14 44 -8 101 -45 115
-31 12 -92 12 -120 0z m82 -77 c7 -19 -29 -53 -58 -53 -23 0 -24 18 -3 48 18
26 52 29 61 5z"/>
<path d="M2775 953 c-20 -11 -30 -12 -33 -4 -2 6 -21 11 -43 11 l-40 0 3 -157
3 -158 48 -3 47 -3 0 100 c0 119 9 151 44 151 l25 0 3 -122 3 -123 50 0 50 0
3 105 c4 129 -2 165 -33 196 -29 29 -84 32 -130 7z"/>
<path d="M3562 953 c-54 -26 -76 -68 -80 -149 -4 -79 12 -129 49 -152 29 -18
94 -17 123 1 21 14 25 14 30 2 3 -10 20 -15 47 -15 l42 0 -7 46 c-3 26 -6 95
-6 155 l0 108 -37 10 c-55 16 -123 13 -161 -6z m96 -145 c-3 -90 -4 -93 -27
-96 -35 -5 -51 22 -51 88 0 65 19 100 56 100 l25 0 -3 -92z"/>
<path d="M4324 956 c-80 -35 -114 -173 -65 -263 26 -49 125 -70 206 -43 33 11
36 15 30 39 -9 38 -16 41 -62 29 -34 -10 -45 -9 -67 5 -36 24 -33 35 12 43
101 18 145 82 111 157 -21 46 -100 61 -165 33z m84 -80 c5 -22 -22 -46 -50
-46 -23 0 -24 33 -2 55 21 20 48 16 52 -9z"/>
<path d="M1955 431 c-80 -33 -77 -151 4 -182 54 -21 121 30 121 91 0 33 -26
75 -55 88 -30 14 -42 14 -70 3z m72 -26 c48 -34 33 -125 -23 -139 -70 -18
-115 88 -58 133 32 25 52 26 81 6z"/>
<path d="M3750 433 c-38 -15 -60 -47 -60 -88 0 -77 59 -118 127 -90 38 16 53
41 53 89 0 60 -67 110 -120 89z m71 -32 c28 -22 33 -92 9 -115 -30 -29 -67
-30 -94 -2 -36 35 -35 87 0 115 33 26 55 26 85 2z"/>
<path d="M1660 340 c0 -53 4 -90 10 -90 6 0 10 18 10 40 l0 40 50 0 c64 0 66
18 3 22 -44 3 -48 5 -51 31 -3 26 -2 27 47 27 28 0 51 5 51 10 0 6 -27 10 -60
10 l-60 0 0 -90z"/>
<path d="M2200 371 c0 -76 13 -109 46 -121 45 -18 91 4 104 48 16 58 13 132
-5 132 -12 0 -15 -14 -15 -70 0 -63 -2 -71 -25 -86 -20 -13 -31 -14 -49 -6
-25 11 -36 46 -36 118 0 24 -4 44 -10 44 -6 0 -10 -26 -10 -59z"/>
<path d="M2490 340 c0 -107 18 -122 22 -19 l3 70 50 -70 c28 -39 56 -71 63
-71 9 0 12 25 12 90 0 107 -18 122 -22 19 l-3 -72 -50 71 c-27 39 -56 71 -62
72 -10 0 -13 -24 -13 -90z"/>
<path d="M2770 340 l0 -90 51 0 c43 0 55 5 80 29 31 31 37 67 17 104 -19 36
-40 46 -95 47 l-53 0 0 -90z m114 54 c48 -48 19 -117 -52 -122 l-42 -3 0 70 0
71 39 0 c23 0 46 -7 55 -16z"/>
<path d="M3061 344 c-18 -47 -31 -88 -28 -91 9 -8 27 7 27 23 0 10 13 14 51
14 42 0 52 -3 56 -20 3 -11 12 -20 20 -20 8 0 13 6 10 13 -43 110 -72 167 -86
167 -11 0 -27 -28 -50 -86z m83 -12 c7 -20 4 -22 -33 -22 l-40 0 13 33 c7 17
16 41 20 52 7 18 9 17 20 -11 8 -17 17 -40 20 -52z"/>
<path d="M3285 420 c3 -5 17 -10 31 -10 23 0 24 -2 24 -80 0 -47 4 -80 10 -80
6 0 10 33 10 80 l0 80 30 0 c17 0 30 5 30 10 0 6 -30 10 -71 10 -44 0 -68 -4
-64 -10z"/>
<path d="M3540 340 c0 -53 4 -90 10 -90 6 0 10 37 10 90 0 53 -4 90 -10 90 -6
0 -10 -37 -10 -90z"/>
<path d="M3990 340 c0 -73 3 -90 15 -90 12 0 15 15 15 72 l0 73 51 -70 c71
-99 79 -97 79 14 0 108 -18 123 -22 19 l-3 -73 -53 73 c-71 98 -82 96 -82 -18z"/>
</g>
</svg>
