<svg width="500" height="300" viewBox="0 0 500 300" fill="none" xmlns="http://www.w3.org/2000/svg">
<g clip-path="url(#clip0_7390_33920)">
<g clip-path="url(#clip1_7390_33920)">
<rect width="500" height="300" rx="16" fill="#F5F5F5"/>
<rect width="500" height="300" rx="16" fill="url(#paint0_linear_7390_33920)"/>
<path d="M44.252 55.877H37.7305V51.7637H44.252C45.2598 51.7637 46.0801 51.5996 46.7129 51.2715C47.3457 50.9316 47.8086 50.4629 48.1016 49.8652C48.3945 49.2676 48.541 48.5938 48.541 47.8438C48.541 47.082 48.3945 46.373 48.1016 45.7168C47.8086 45.0605 47.3457 44.5332 46.7129 44.1348C46.0801 43.7363 45.2598 43.5371 44.252 43.5371H39.5586V65H34.2852V39.4062H44.252C46.2559 39.4062 47.9727 39.7695 49.4023 40.4961C50.8438 41.2109 51.9453 42.2012 52.707 43.4668C53.4688 44.7324 53.8496 46.1797 53.8496 47.8086C53.8496 49.4609 53.4688 50.8906 52.707 52.0977C51.9453 53.3047 50.8438 54.2363 49.4023 54.8926C47.9727 55.5488 46.2559 55.877 44.252 55.877ZM62.2344 50.1289V65H57.1719V45.9805H61.9355L62.2344 50.1289ZM67.9648 45.8574L67.877 50.5508C67.6309 50.5156 67.332 50.4863 66.9805 50.4629C66.6406 50.4277 66.3301 50.4102 66.0488 50.4102C65.334 50.4102 64.7129 50.5039 64.1855 50.6914C63.6699 50.8672 63.2363 51.1309 62.8848 51.4824C62.5449 51.834 62.2871 52.2617 62.1113 52.7656C61.9473 53.2695 61.8535 53.8438 61.8301 54.4883L60.8105 54.1719C60.8105 52.9414 60.9336 51.8105 61.1797 50.7793C61.4258 49.7363 61.7832 48.8281 62.252 48.0547C62.7324 47.2812 63.3184 46.6836 64.0098 46.2617C64.7012 45.8398 65.4922 45.6289 66.3828 45.6289C66.6641 45.6289 66.9512 45.6523 67.2441 45.6992C67.5371 45.7344 67.7773 45.7871 67.9648 45.8574ZM69.0195 55.6836V55.3145C69.0195 53.9199 69.2188 52.6367 69.6172 51.4648C70.0156 50.2812 70.5957 49.2559 71.3574 48.3887C72.1191 47.5215 73.0566 46.8477 74.1699 46.3672C75.2832 45.875 76.5605 45.6289 78.002 45.6289C79.4434 45.6289 80.7266 45.875 81.8516 46.3672C82.9766 46.8477 83.9199 47.5215 84.6816 48.3887C85.4551 49.2559 86.041 50.2812 86.4395 51.4648C86.8379 52.6367 87.0371 53.9199 87.0371 55.3145V55.6836C87.0371 57.0664 86.8379 58.3496 86.4395 59.5332C86.041 60.7051 85.4551 61.7305 84.6816 62.6094C83.9199 63.4766 82.9824 64.1504 81.8691 64.6309C80.7559 65.1113 79.4785 65.3516 78.0371 65.3516C76.5957 65.3516 75.3125 65.1113 74.1875 64.6309C73.0742 64.1504 72.1309 63.4766 71.3574 62.6094C70.5957 61.7305 70.0156 60.7051 69.6172 59.5332C69.2188 58.3496 69.0195 57.0664 69.0195 55.6836ZM74.082 55.3145V55.6836C74.082 56.4805 74.1523 57.2246 74.293 57.916C74.4336 58.6074 74.6562 59.2168 74.9609 59.7441C75.2773 60.2598 75.6875 60.6641 76.1914 60.957C76.6953 61.25 77.3105 61.3965 78.0371 61.3965C78.7402 61.3965 79.3438 61.25 79.8477 60.957C80.3516 60.6641 80.7559 60.2598 81.0605 59.7441C81.3652 59.2168 81.5879 58.6074 81.7285 57.916C81.8809 57.2246 81.957 56.4805 81.957 55.6836V55.3145C81.957 54.541 81.8809 53.8145 81.7285 53.1348C81.5879 52.4434 81.3594 51.834 81.043 51.3066C80.7383 50.7676 80.334 50.3457 79.8301 50.041C79.3262 49.7363 78.7168 49.584 78.002 49.584C77.2871 49.584 76.6777 49.7363 76.1738 50.041C75.6816 50.3457 75.2773 50.7676 74.9609 51.3066C74.6562 51.834 74.4336 52.4434 74.293 53.1348C74.1523 53.8145 74.082 54.541 74.082 55.3145ZM89.3398 55.6836V55.3145C89.3398 53.9199 89.5391 52.6367 89.9375 51.4648C90.3359 50.2812 90.916 49.2559 91.6777 48.3887C92.4395 47.5215 93.377 46.8477 94.4902 46.3672C95.6035 45.875 96.8809 45.6289 98.3223 45.6289C99.7637 45.6289 101.047 45.875 102.172 46.3672C103.297 46.8477 104.24 47.5215 105.002 48.3887C105.775 49.2559 106.361 50.2812 106.76 51.4648C107.158 52.6367 107.357 53.9199 107.357 55.3145V55.6836C107.357 57.0664 107.158 58.3496 106.76 59.5332C106.361 60.7051 105.775 61.7305 105.002 62.6094C104.24 63.4766 103.303 64.1504 102.189 64.6309C101.076 65.1113 99.7988 65.3516 98.3574 65.3516C96.916 65.3516 95.6328 65.1113 94.5078 64.6309C93.3945 64.1504 92.4512 63.4766 91.6777 62.6094C90.916 61.7305 90.3359 60.7051 89.9375 59.5332C89.5391 58.3496 89.3398 57.0664 89.3398 55.6836ZM94.4023 55.3145V55.6836C94.4023 56.4805 94.4727 57.2246 94.6133 57.916C94.7539 58.6074 94.9766 59.2168 95.2812 59.7441C95.5977 60.2598 96.0078 60.6641 96.5117 60.957C97.0156 61.25 97.6309 61.3965 98.3574 61.3965C99.0605 61.3965 99.6641 61.25 100.168 60.957C100.672 60.6641 101.076 60.2598 101.381 59.7441C101.686 59.2168 101.908 58.6074 102.049 57.916C102.201 57.2246 102.277 56.4805 102.277 55.6836V55.3145C102.277 54.541 102.201 53.8145 102.049 53.1348C101.908 52.4434 101.68 51.834 101.363 51.3066C101.059 50.7676 100.654 50.3457 100.15 50.041C99.6465 49.7363 99.0371 49.584 98.3223 49.584C97.6074 49.584 96.998 49.7363 96.4941 50.041C96.002 50.3457 95.5977 50.7676 95.2812 51.3066C94.9766 51.834 94.7539 52.4434 94.6133 53.1348C94.4727 53.8145 94.4023 54.541 94.4023 55.3145ZM116.92 65H111.822V44.293C111.822 42.8516 112.104 41.6387 112.666 40.6543C113.24 39.6582 114.043 38.9082 115.074 38.4043C116.117 37.8887 117.354 37.6309 118.783 37.6309C119.252 37.6309 119.703 37.666 120.137 37.7363C120.57 37.7949 120.992 37.8711 121.402 37.9648L121.35 41.7793C121.127 41.7207 120.893 41.6797 120.646 41.6562C120.4 41.6328 120.113 41.6211 119.785 41.6211C119.176 41.6211 118.654 41.7266 118.221 41.9375C117.799 42.1367 117.477 42.4355 117.254 42.834C117.031 43.2324 116.92 43.7188 116.92 44.293V65ZM120.717 45.9805V49.5664H108.992V45.9805H120.717ZM131.527 55.6836V55.3145C131.527 53.9199 131.727 52.6367 132.125 51.4648C132.523 50.2812 133.104 49.2559 133.865 48.3887C134.627 47.5215 135.564 46.8477 136.678 46.3672C137.791 45.875 139.068 45.6289 140.51 45.6289C141.951 45.6289 143.234 45.875 144.359 46.3672C145.484 46.8477 146.428 47.5215 147.189 48.3887C147.963 49.2559 148.549 50.2812 148.947 51.4648C149.346 52.6367 149.545 53.9199 149.545 55.3145V55.6836C149.545 57.0664 149.346 58.3496 148.947 59.5332C148.549 60.7051 147.963 61.7305 147.189 62.6094C146.428 63.4766 145.49 64.1504 144.377 64.6309C143.264 65.1113 141.986 65.3516 140.545 65.3516C139.104 65.3516 137.82 65.1113 136.695 64.6309C135.582 64.1504 134.639 63.4766 133.865 62.6094C133.104 61.7305 132.523 60.7051 132.125 59.5332C131.727 58.3496 131.527 57.0664 131.527 55.6836ZM136.59 55.3145V55.6836C136.59 56.4805 136.66 57.2246 136.801 57.916C136.941 58.6074 137.164 59.2168 137.469 59.7441C137.785 60.2598 138.195 60.6641 138.699 60.957C139.203 61.25 139.818 61.3965 140.545 61.3965C141.248 61.3965 141.852 61.25 142.355 60.957C142.859 60.6641 143.264 60.2598 143.568 59.7441C143.873 59.2168 144.096 58.6074 144.236 57.916C144.389 57.2246 144.465 56.4805 144.465 55.6836V55.3145C144.465 54.541 144.389 53.8145 144.236 53.1348C144.096 52.4434 143.867 51.834 143.551 51.3066C143.246 50.7676 142.842 50.3457 142.338 50.041C141.834 49.7363 141.225 49.584 140.51 49.584C139.795 49.584 139.186 49.7363 138.682 50.041C138.189 50.3457 137.785 50.7676 137.469 51.3066C137.164 51.834 136.941 52.4434 136.801 53.1348C136.66 53.8145 136.59 54.541 136.59 55.3145ZM159.107 65H154.01V44.293C154.01 42.8516 154.291 41.6387 154.854 40.6543C155.428 39.6582 156.23 38.9082 157.262 38.4043C158.305 37.8887 159.541 37.6309 160.971 37.6309C161.439 37.6309 161.891 37.666 162.324 37.7363C162.758 37.7949 163.18 37.8711 163.59 37.9648L163.537 41.7793C163.314 41.7207 163.08 41.6797 162.834 41.6562C162.588 41.6328 162.301 41.6211 161.973 41.6211C161.363 41.6211 160.842 41.7266 160.408 41.9375C159.986 42.1367 159.664 42.4355 159.441 42.834C159.219 43.2324 159.107 43.7188 159.107 44.293V65ZM162.904 45.9805V49.5664H151.18V45.9805H162.904ZM195.125 51.623V61.7656C194.727 62.2461 194.111 62.7676 193.279 63.3301C192.447 63.8809 191.375 64.3555 190.062 64.7539C188.75 65.1523 187.162 65.3516 185.299 65.3516C183.646 65.3516 182.141 65.082 180.781 64.543C179.422 63.9922 178.25 63.1895 177.266 62.1348C176.293 61.0801 175.543 59.791 175.016 58.2676C174.488 56.7324 174.225 54.9805 174.225 53.0117V51.4121C174.225 49.4434 174.477 47.6914 174.98 46.1562C175.496 44.6211 176.229 43.3262 177.178 42.2715C178.127 41.2168 179.258 40.4141 180.57 39.8633C181.883 39.3125 183.342 39.0371 184.947 39.0371C187.174 39.0371 189.002 39.4004 190.432 40.127C191.861 40.8418 192.951 41.8379 193.701 43.1152C194.463 44.3809 194.932 45.834 195.107 47.4746H189.992C189.863 46.6074 189.617 45.8516 189.254 45.207C188.891 44.5625 188.369 44.0586 187.689 43.6953C187.021 43.332 186.154 43.1504 185.088 43.1504C184.209 43.1504 183.424 43.332 182.732 43.6953C182.053 44.0469 181.479 44.5684 181.01 45.2598C180.541 45.9512 180.184 46.8066 179.938 47.8262C179.691 48.8457 179.568 50.0293 179.568 51.377V53.0117C179.568 54.3477 179.697 55.5312 179.955 56.5625C180.213 57.582 180.594 58.4434 181.098 59.1465C181.613 59.8379 182.246 60.3594 182.996 60.7109C183.746 61.0625 184.619 61.2383 185.615 61.2383C186.447 61.2383 187.139 61.168 187.689 61.0273C188.252 60.8867 188.703 60.7168 189.043 60.5176C189.395 60.3066 189.664 60.1074 189.852 59.9199V55.3848H185.035V51.623H195.125ZM207.816 65.3516C206.34 65.3516 205.016 65.1172 203.844 64.6484C202.672 64.168 201.676 63.5059 200.855 62.6621C200.047 61.8184 199.426 60.8398 198.992 59.7266C198.559 58.6016 198.342 57.4062 198.342 56.1406V55.4375C198.342 53.9961 198.547 52.6777 198.957 51.4824C199.367 50.2871 199.953 49.25 200.715 48.3711C201.488 47.4922 202.426 46.8184 203.527 46.3496C204.629 45.8691 205.871 45.6289 207.254 45.6289C208.602 45.6289 209.797 45.8516 210.84 46.2969C211.883 46.7422 212.756 47.375 213.459 48.1953C214.174 49.0156 214.713 50 215.076 51.1484C215.439 52.2852 215.621 53.5508 215.621 54.9453V57.0547H200.504V53.6797H210.646V53.293C210.646 52.5898 210.518 51.9629 210.26 51.4121C210.014 50.8496 209.639 50.4043 209.135 50.0762C208.631 49.748 207.986 49.584 207.201 49.584C206.533 49.584 205.959 49.7305 205.479 50.0234C204.998 50.3164 204.605 50.7266 204.301 51.2539C204.008 51.7812 203.785 52.4023 203.633 53.1172C203.492 53.8203 203.422 54.5938 203.422 55.4375V56.1406C203.422 56.9023 203.527 57.6055 203.738 58.25C203.961 58.8945 204.271 59.4512 204.67 59.9199C205.08 60.3887 205.572 60.752 206.146 61.0098C206.732 61.2676 207.395 61.3965 208.133 61.3965C209.047 61.3965 209.896 61.2207 210.682 60.8691C211.479 60.5059 212.164 59.9609 212.738 59.2344L215.199 61.9062C214.801 62.4805 214.256 63.0312 213.564 63.5586C212.885 64.0859 212.064 64.5195 211.104 64.8594C210.143 65.1875 209.047 65.3516 207.816 65.3516ZM223.461 50.041V65H218.398V45.9805H223.145L223.461 50.041ZM222.723 54.8223H221.352C221.352 53.416 221.533 52.1504 221.896 51.0254C222.26 49.8887 222.77 48.9219 223.426 48.125C224.082 47.3164 224.861 46.7012 225.764 46.2793C226.678 45.8457 227.697 45.6289 228.822 45.6289C229.713 45.6289 230.527 45.7578 231.266 46.0156C232.004 46.2734 232.637 46.6836 233.164 47.2461C233.703 47.8086 234.113 48.5527 234.395 49.4785C234.688 50.4043 234.834 51.5352 234.834 52.8711V65H229.736V52.8535C229.736 52.0098 229.619 51.3535 229.385 50.8848C229.15 50.416 228.805 50.0879 228.348 49.9004C227.902 49.7012 227.352 49.6016 226.695 49.6016C226.016 49.6016 225.424 49.7363 224.92 50.0059C224.428 50.2754 224.018 50.6504 223.689 51.1309C223.373 51.5996 223.133 52.1504 222.969 52.7832C222.805 53.416 222.723 54.0957 222.723 54.8223ZM249.916 60.8516V38H255.014V65H250.426L249.916 60.8516ZM237.893 55.7188V55.3496C237.893 53.8965 238.057 52.5781 238.385 51.3945C238.713 50.1992 239.193 49.1738 239.826 48.3184C240.459 47.4629 241.238 46.8008 242.164 46.332C243.09 45.8633 244.145 45.6289 245.328 45.6289C246.441 45.6289 247.414 45.8633 248.246 46.332C249.09 46.8008 249.805 47.4688 250.391 48.3359C250.988 49.1914 251.469 50.2051 251.832 51.377C252.195 52.5371 252.459 53.8086 252.623 55.1914V56C252.459 57.3242 252.195 58.5547 251.832 59.6914C251.469 60.8281 250.988 61.8242 250.391 62.6797C249.805 63.5234 249.09 64.1797 248.246 64.6484C247.402 65.1172 246.418 65.3516 245.293 65.3516C244.109 65.3516 243.055 65.1113 242.129 64.6309C241.215 64.1504 240.441 63.4766 239.809 62.6094C239.188 61.7422 238.713 60.7227 238.385 59.5508C238.057 58.3789 237.893 57.1016 237.893 55.7188ZM242.955 55.3496V55.7188C242.955 56.5039 243.014 57.2363 243.131 57.916C243.26 58.5957 243.465 59.1992 243.746 59.7266C244.039 60.2422 244.414 60.6465 244.871 60.9395C245.34 61.2207 245.908 61.3613 246.576 61.3613C247.443 61.3613 248.158 61.168 248.721 60.7812C249.283 60.3828 249.711 59.8379 250.004 59.1465C250.309 58.4551 250.484 57.6582 250.531 56.7559V54.4531C250.496 53.7148 250.391 53.0527 250.215 52.4668C250.051 51.8691 249.805 51.3594 249.477 50.9375C249.16 50.5156 248.762 50.1875 248.281 49.9531C247.812 49.7188 247.256 49.6016 246.611 49.6016C245.955 49.6016 245.393 49.7539 244.924 50.0586C244.455 50.3516 244.074 50.7559 243.781 51.2715C243.5 51.7871 243.289 52.3965 243.148 53.0996C243.02 53.791 242.955 54.541 242.955 55.3496ZM267.723 65.3516C266.246 65.3516 264.922 65.1172 263.75 64.6484C262.578 64.168 261.582 63.5059 260.762 62.6621C259.953 61.8184 259.332 60.8398 258.898 59.7266C258.465 58.6016 258.248 57.4062 258.248 56.1406V55.4375C258.248 53.9961 258.453 52.6777 258.863 51.4824C259.273 50.2871 259.859 49.25 260.621 48.3711C261.395 47.4922 262.332 46.8184 263.434 46.3496C264.535 45.8691 265.777 45.6289 267.16 45.6289C268.508 45.6289 269.703 45.8516 270.746 46.2969C271.789 46.7422 272.662 47.375 273.365 48.1953C274.08 49.0156 274.619 50 274.982 51.1484C275.346 52.2852 275.527 53.5508 275.527 54.9453V57.0547H260.41V53.6797H270.553V53.293C270.553 52.5898 270.424 51.9629 270.166 51.4121C269.92 50.8496 269.545 50.4043 269.041 50.0762C268.537 49.748 267.893 49.584 267.107 49.584C266.439 49.584 265.865 49.7305 265.385 50.0234C264.904 50.3164 264.512 50.7266 264.207 51.2539C263.914 51.7812 263.691 52.4023 263.539 53.1172C263.398 53.8203 263.328 54.5938 263.328 55.4375V56.1406C263.328 56.9023 263.434 57.6055 263.645 58.25C263.867 58.8945 264.178 59.4512 264.576 59.9199C264.986 60.3887 265.479 60.752 266.053 61.0098C266.639 61.2676 267.301 61.3965 268.039 61.3965C268.953 61.3965 269.803 61.2207 270.588 60.8691C271.385 60.5059 272.07 59.9609 272.645 59.2344L275.105 61.9062C274.707 62.4805 274.162 63.0312 273.471 63.5586C272.791 64.0859 271.971 64.5195 271.01 64.8594C270.049 65.1875 268.953 65.3516 267.723 65.3516ZM283.473 50.1289V65H278.41V45.9805H283.174L283.473 50.1289ZM289.203 45.8574L289.115 50.5508C288.869 50.5156 288.57 50.4863 288.219 50.4629C287.879 50.4277 287.568 50.4102 287.287 50.4102C286.572 50.4102 285.951 50.5039 285.424 50.6914C284.908 50.8672 284.475 51.1309 284.123 51.4824C283.783 51.834 283.525 52.2617 283.35 52.7656C283.186 53.2695 283.092 53.8438 283.068 54.4883L282.049 54.1719C282.049 52.9414 282.172 51.8105 282.418 50.7793C282.664 49.7363 283.021 48.8281 283.49 48.0547C283.971 47.2812 284.557 46.6836 285.248 46.2617C285.939 45.8398 286.73 45.6289 287.621 45.6289C287.902 45.6289 288.189 45.6523 288.482 45.6992C288.775 45.7344 289.016 45.7871 289.203 45.8574Z" fill="white"/>
<rect x="416" y="32" width="52" height="52" rx="8" fill="white"/>
<path d="M438.59 66.5C438.11 66.5 437.654 66.3103 437.318 65.9782L430.522 59.266C429.826 58.5781 429.826 57.4397 430.522 56.7518C431.219 56.064 432.371 56.064 433.068 56.7518L438.59 62.207L450.932 50.0159C451.629 49.328 452.781 49.328 453.478 50.0159C454.174 50.7037 454.174 51.8422 453.478 52.53L439.863 65.9782C439.527 66.3103 439.071 66.5 438.59 66.5Z" fill="#0DA4F0"/>
</g>
<g opacity="0.07">
<path d="M398.225 161.959C431.082 152.538 450.081 118.265 440.659 85.4084C431.238 52.5513 396.964 33.5526 364.107 42.9741C331.25 52.3955 312.251 86.6696 321.672 119.527C331.094 152.384 365.368 171.381 398.225 161.959Z" fill="white"/>
<path d="M500.679 261.086C521.361 255.155 526.773 228.734 510.377 214.921C485.62 194.111 446.937 186.412 408.381 197.468C369.826 208.523 341.1 235.55 331.132 266.318C324.547 286.72 343.137 306.259 363.82 300.329L500.679 261.086Z" fill="white"/>
</g>
</g>
<defs>
<linearGradient id="paint0_linear_7390_33920" x1="500" y1="300" x2="-1.60933e-05" y2="2.68221e-05" gradientUnits="userSpaceOnUse">
<stop offset="0.0408417" stop-color="#21D5FE"/>
<stop offset="0.519706" stop-color="#0DA4F0"/>
</linearGradient>
<clipPath id="clip0_7390_33920">
<rect width="500" height="300" fill="white"/>
</clipPath>
<clipPath id="clip1_7390_33920">
<rect width="500" height="300" rx="16" fill="white"/>
</clipPath>
</defs>
</svg>
