<svg width="500" height="300" viewBox="0 0 500 300" fill="none" xmlns="http://www.w3.org/2000/svg">
<g clip-path="url(#clip0_7390_33912)">
<g clip-path="url(#clip1_7390_33912)">
<rect width="500" height="300" rx="16" fill="#F5F5F5"/>
<rect width="500" height="300" rx="16" fill="url(#paint0_linear_7390_33912)"/>
<path d="M44.252 55.877H37.7305V51.7637H44.252C45.2598 51.7637 46.0801 51.5996 46.7129 51.2715C47.3457 50.9316 47.8086 50.4629 48.1016 49.8652C48.3945 49.2676 48.541 48.5938 48.541 47.8438C48.541 47.082 48.3945 46.373 48.1016 45.7168C47.8086 45.0605 47.3457 44.5332 46.7129 44.1348C46.0801 43.7363 45.2598 43.5371 44.252 43.5371H39.5586V65H34.2852V39.4062H44.252C46.2559 39.4062 47.9727 39.7695 49.4023 40.4961C50.8438 41.2109 51.9453 42.2012 52.707 43.4668C53.4688 44.7324 53.8496 46.1797 53.8496 47.8086C53.8496 49.4609 53.4688 50.8906 52.707 52.0977C51.9453 53.3047 50.8438 54.2363 49.4023 54.8926C47.9727 55.5488 46.2559 55.877 44.252 55.877ZM62.2344 50.1289V65H57.1719V45.9805H61.9355L62.2344 50.1289ZM67.9648 45.8574L67.877 50.5508C67.6309 50.5156 67.332 50.4863 66.9805 50.4629C66.6406 50.4277 66.3301 50.4102 66.0488 50.4102C65.334 50.4102 64.7129 50.5039 64.1855 50.6914C63.6699 50.8672 63.2363 51.1309 62.8848 51.4824C62.5449 51.834 62.2871 52.2617 62.1113 52.7656C61.9473 53.2695 61.8535 53.8438 61.8301 54.4883L60.8105 54.1719C60.8105 52.9414 60.9336 51.8105 61.1797 50.7793C61.4258 49.7363 61.7832 48.8281 62.252 48.0547C62.7324 47.2812 63.3184 46.6836 64.0098 46.2617C64.7012 45.8398 65.4922 45.6289 66.3828 45.6289C66.6641 45.6289 66.9512 45.6523 67.2441 45.6992C67.5371 45.7344 67.7773 45.7871 67.9648 45.8574ZM69.0195 55.6836V55.3145C69.0195 53.9199 69.2188 52.6367 69.6172 51.4648C70.0156 50.2812 70.5957 49.2559 71.3574 48.3887C72.1191 47.5215 73.0566 46.8477 74.1699 46.3672C75.2832 45.875 76.5605 45.6289 78.002 45.6289C79.4434 45.6289 80.7266 45.875 81.8516 46.3672C82.9766 46.8477 83.9199 47.5215 84.6816 48.3887C85.4551 49.2559 86.041 50.2812 86.4395 51.4648C86.8379 52.6367 87.0371 53.9199 87.0371 55.3145V55.6836C87.0371 57.0664 86.8379 58.3496 86.4395 59.5332C86.041 60.7051 85.4551 61.7305 84.6816 62.6094C83.9199 63.4766 82.9824 64.1504 81.8691 64.6309C80.7559 65.1113 79.4785 65.3516 78.0371 65.3516C76.5957 65.3516 75.3125 65.1113 74.1875 64.6309C73.0742 64.1504 72.1309 63.4766 71.3574 62.6094C70.5957 61.7305 70.0156 60.7051 69.6172 59.5332C69.2188 58.3496 69.0195 57.0664 69.0195 55.6836ZM74.082 55.3145V55.6836C74.082 56.4805 74.1523 57.2246 74.293 57.916C74.4336 58.6074 74.6562 59.2168 74.9609 59.7441C75.2773 60.2598 75.6875 60.6641 76.1914 60.957C76.6953 61.25 77.3105 61.3965 78.0371 61.3965C78.7402 61.3965 79.3438 61.25 79.8477 60.957C80.3516 60.6641 80.7559 60.2598 81.0605 59.7441C81.3652 59.2168 81.5879 58.6074 81.7285 57.916C81.8809 57.2246 81.957 56.4805 81.957 55.6836V55.3145C81.957 54.541 81.8809 53.8145 81.7285 53.1348C81.5879 52.4434 81.3594 51.834 81.043 51.3066C80.7383 50.7676 80.334 50.3457 79.8301 50.041C79.3262 49.7363 78.7168 49.584 78.002 49.584C77.2871 49.584 76.6777 49.7363 76.1738 50.041C75.6816 50.3457 75.2773 50.7676 74.9609 51.3066C74.6562 51.834 74.4336 52.4434 74.293 53.1348C74.1523 53.8145 74.082 54.541 74.082 55.3145ZM89.3398 55.6836V55.3145C89.3398 53.9199 89.5391 52.6367 89.9375 51.4648C90.3359 50.2812 90.916 49.2559 91.6777 48.3887C92.4395 47.5215 93.377 46.8477 94.4902 46.3672C95.6035 45.875 96.8809 45.6289 98.3223 45.6289C99.7637 45.6289 101.047 45.875 102.172 46.3672C103.297 46.8477 104.24 47.5215 105.002 48.3887C105.775 49.2559 106.361 50.2812 106.76 51.4648C107.158 52.6367 107.357 53.9199 107.357 55.3145V55.6836C107.357 57.0664 107.158 58.3496 106.76 59.5332C106.361 60.7051 105.775 61.7305 105.002 62.6094C104.24 63.4766 103.303 64.1504 102.189 64.6309C101.076 65.1113 99.7988 65.3516 98.3574 65.3516C96.916 65.3516 95.6328 65.1113 94.5078 64.6309C93.3945 64.1504 92.4512 63.4766 91.6777 62.6094C90.916 61.7305 90.3359 60.7051 89.9375 59.5332C89.5391 58.3496 89.3398 57.0664 89.3398 55.6836ZM94.4023 55.3145V55.6836C94.4023 56.4805 94.4727 57.2246 94.6133 57.916C94.7539 58.6074 94.9766 59.2168 95.2812 59.7441C95.5977 60.2598 96.0078 60.6641 96.5117 60.957C97.0156 61.25 97.6309 61.3965 98.3574 61.3965C99.0605 61.3965 99.6641 61.25 100.168 60.957C100.672 60.6641 101.076 60.2598 101.381 59.7441C101.686 59.2168 101.908 58.6074 102.049 57.916C102.201 57.2246 102.277 56.4805 102.277 55.6836V55.3145C102.277 54.541 102.201 53.8145 102.049 53.1348C101.908 52.4434 101.68 51.834 101.363 51.3066C101.059 50.7676 100.654 50.3457 100.15 50.041C99.6465 49.7363 99.0371 49.584 98.3223 49.584C97.6074 49.584 96.998 49.7363 96.4941 50.041C96.002 50.3457 95.5977 50.7676 95.2812 51.3066C94.9766 51.834 94.7539 52.4434 94.6133 53.1348C94.4727 53.8145 94.4023 54.541 94.4023 55.3145ZM116.92 65H111.822V44.293C111.822 42.8516 112.104 41.6387 112.666 40.6543C113.24 39.6582 114.043 38.9082 115.074 38.4043C116.117 37.8887 117.354 37.6309 118.783 37.6309C119.252 37.6309 119.703 37.666 120.137 37.7363C120.57 37.7949 120.992 37.8711 121.402 37.9648L121.35 41.7793C121.127 41.7207 120.893 41.6797 120.646 41.6562C120.4 41.6328 120.113 41.6211 119.785 41.6211C119.176 41.6211 118.654 41.7266 118.221 41.9375C117.799 42.1367 117.477 42.4355 117.254 42.834C117.031 43.2324 116.92 43.7188 116.92 44.293V65ZM120.717 45.9805V49.5664H108.992V45.9805H120.717ZM131.527 55.6836V55.3145C131.527 53.9199 131.727 52.6367 132.125 51.4648C132.523 50.2812 133.104 49.2559 133.865 48.3887C134.627 47.5215 135.564 46.8477 136.678 46.3672C137.791 45.875 139.068 45.6289 140.51 45.6289C141.951 45.6289 143.234 45.875 144.359 46.3672C145.484 46.8477 146.428 47.5215 147.189 48.3887C147.963 49.2559 148.549 50.2812 148.947 51.4648C149.346 52.6367 149.545 53.9199 149.545 55.3145V55.6836C149.545 57.0664 149.346 58.3496 148.947 59.5332C148.549 60.7051 147.963 61.7305 147.189 62.6094C146.428 63.4766 145.49 64.1504 144.377 64.6309C143.264 65.1113 141.986 65.3516 140.545 65.3516C139.104 65.3516 137.82 65.1113 136.695 64.6309C135.582 64.1504 134.639 63.4766 133.865 62.6094C133.104 61.7305 132.523 60.7051 132.125 59.5332C131.727 58.3496 131.527 57.0664 131.527 55.6836ZM136.59 55.3145V55.6836C136.59 56.4805 136.66 57.2246 136.801 57.916C136.941 58.6074 137.164 59.2168 137.469 59.7441C137.785 60.2598 138.195 60.6641 138.699 60.957C139.203 61.25 139.818 61.3965 140.545 61.3965C141.248 61.3965 141.852 61.25 142.355 60.957C142.859 60.6641 143.264 60.2598 143.568 59.7441C143.873 59.2168 144.096 58.6074 144.236 57.916C144.389 57.2246 144.465 56.4805 144.465 55.6836V55.3145C144.465 54.541 144.389 53.8145 144.236 53.1348C144.096 52.4434 143.867 51.834 143.551 51.3066C143.246 50.7676 142.842 50.3457 142.338 50.041C141.834 49.7363 141.225 49.584 140.51 49.584C139.795 49.584 139.186 49.7363 138.682 50.041C138.189 50.3457 137.785 50.7676 137.469 51.3066C137.164 51.834 136.941 52.4434 136.801 53.1348C136.66 53.8145 136.59 54.541 136.59 55.3145ZM159.107 65H154.01V44.293C154.01 42.8516 154.291 41.6387 154.854 40.6543C155.428 39.6582 156.23 38.9082 157.262 38.4043C158.305 37.8887 159.541 37.6309 160.971 37.6309C161.439 37.6309 161.891 37.666 162.324 37.7363C162.758 37.7949 163.18 37.8711 163.59 37.9648L163.537 41.7793C163.314 41.7207 163.08 41.6797 162.834 41.6562C162.588 41.6328 162.301 41.6211 161.973 41.6211C161.363 41.6211 160.842 41.7266 160.408 41.9375C159.986 42.1367 159.664 42.4355 159.441 42.834C159.219 43.2324 159.107 43.7188 159.107 44.293V65ZM162.904 45.9805V49.5664H151.18V45.9805H162.904ZM191.908 49.8301V53.9434H178.549V49.8301H191.908ZM180.113 39.4062V65H174.84V39.4062H180.113ZM195.67 39.4062V65H190.414V39.4062H195.67ZM211.191 60.4473V45.9805H216.254V65H211.49L211.191 60.4473ZM211.754 56.5449L213.248 56.5098C213.248 57.7754 213.102 58.9531 212.809 60.043C212.516 61.1211 212.076 62.0586 211.49 62.8555C210.904 63.6406 210.166 64.2559 209.275 64.7012C208.385 65.1348 207.336 65.3516 206.129 65.3516C205.203 65.3516 204.348 65.2227 203.562 64.9648C202.789 64.6953 202.121 64.2793 201.559 63.7168C201.008 63.1426 200.574 62.4102 200.258 61.5195C199.953 60.6172 199.801 59.5332 199.801 58.2676V45.9805H204.863V58.3027C204.863 58.8652 204.928 59.3398 205.057 59.7266C205.197 60.1133 205.391 60.4297 205.637 60.6758C205.883 60.9219 206.17 61.0977 206.498 61.2031C206.838 61.3086 207.213 61.3613 207.623 61.3613C208.666 61.3613 209.486 61.1504 210.084 60.7285C210.693 60.3066 211.121 59.7324 211.367 59.0059C211.625 58.2676 211.754 57.4473 211.754 56.5449ZM225.184 49.918V65H220.104V45.9805H224.867L225.184 49.918ZM224.48 54.8223H223.074C223.074 53.498 223.232 52.2793 223.549 51.166C223.877 50.041 224.352 49.0684 224.973 48.248C225.605 47.416 226.385 46.7715 227.311 46.3145C228.236 45.8574 229.309 45.6289 230.527 45.6289C231.371 45.6289 232.145 45.7578 232.848 46.0156C233.551 46.2617 234.154 46.6543 234.658 47.1934C235.174 47.7207 235.572 48.4121 235.854 49.2676C236.135 50.1113 236.275 51.125 236.275 52.3086V65H231.213V52.8711C231.213 52.0039 231.096 51.3359 230.861 50.8672C230.627 50.3984 230.293 50.0703 229.859 49.8828C229.438 49.6953 228.928 49.6016 228.33 49.6016C227.674 49.6016 227.1 49.7363 226.607 50.0059C226.127 50.2754 225.729 50.6504 225.412 51.1309C225.096 51.5996 224.861 52.1504 224.709 52.7832C224.557 53.416 224.48 54.0957 224.48 54.8223ZM235.801 54.2422L233.99 54.4707C233.99 53.2285 234.143 52.0742 234.447 51.0078C234.764 49.9414 235.227 49.0039 235.836 48.1953C236.457 47.3867 237.225 46.7598 238.139 46.3145C239.053 45.8574 240.107 45.6289 241.303 45.6289C242.217 45.6289 243.049 45.7637 243.799 46.0332C244.549 46.291 245.188 46.707 245.715 47.2812C246.254 47.8438 246.664 48.582 246.945 49.4961C247.238 50.4102 247.385 51.5293 247.385 52.8535V65H242.305V52.8535C242.305 51.9746 242.188 51.3066 241.953 50.8496C241.73 50.3809 241.402 50.0586 240.969 49.8828C240.547 49.6953 240.043 49.6016 239.457 49.6016C238.848 49.6016 238.314 49.7246 237.857 49.9707C237.4 50.2051 237.02 50.5332 236.715 50.9551C236.41 51.377 236.182 51.8691 236.029 52.4316C235.877 52.9824 235.801 53.5859 235.801 54.2422ZM261.57 60.7109V52.2383C261.57 51.6289 261.471 51.1074 261.271 50.6738C261.072 50.2285 260.762 49.8828 260.34 49.6367C259.93 49.3906 259.396 49.2676 258.74 49.2676C258.178 49.2676 257.691 49.3672 257.281 49.5664C256.871 49.7539 256.555 50.0293 256.332 50.3926C256.109 50.7441 255.998 51.1602 255.998 51.6406H250.936C250.936 50.832 251.123 50.0645 251.498 49.3379C251.873 48.6113 252.418 47.9727 253.133 47.4219C253.848 46.8594 254.697 46.4199 255.682 46.1035C256.678 45.7871 257.791 45.6289 259.021 45.6289C260.498 45.6289 261.811 45.875 262.959 46.3672C264.107 46.8594 265.01 47.5977 265.666 48.582C266.334 49.5664 266.668 50.7969 266.668 52.2734V60.4121C266.668 61.4551 266.732 62.3105 266.861 62.9785C266.99 63.6348 267.178 64.209 267.424 64.7012V65H262.309C262.062 64.4844 261.875 63.8398 261.746 63.0664C261.629 62.2812 261.57 61.4961 261.57 60.7109ZM262.238 53.416L262.273 56.2812H259.443C258.775 56.2812 258.195 56.3574 257.703 56.5098C257.211 56.6621 256.807 56.8789 256.49 57.1602C256.174 57.4297 255.939 57.7461 255.787 58.1094C255.646 58.4727 255.576 58.8711 255.576 59.3047C255.576 59.7383 255.676 60.1309 255.875 60.4824C256.074 60.8223 256.361 61.0918 256.736 61.291C257.111 61.4785 257.551 61.5723 258.055 61.5723C258.816 61.5723 259.479 61.4199 260.041 61.1152C260.604 60.8105 261.037 60.4355 261.342 59.9902C261.658 59.5449 261.822 59.123 261.834 58.7246L263.17 60.8691C262.982 61.3496 262.725 61.8477 262.396 62.3633C262.08 62.8789 261.676 63.3652 261.184 63.8223C260.691 64.2676 260.1 64.6367 259.408 64.9297C258.717 65.2109 257.896 65.3516 256.947 65.3516C255.74 65.3516 254.645 65.1113 253.66 64.6309C252.688 64.1387 251.914 63.4648 251.34 62.6094C250.777 61.7422 250.496 60.7578 250.496 59.6562C250.496 58.6602 250.684 57.7754 251.059 57.002C251.434 56.2285 251.984 55.5781 252.711 55.0508C253.449 54.5117 254.369 54.1074 255.471 53.8379C256.572 53.5566 257.85 53.416 259.303 53.416H262.238ZM275.527 50.041V65H270.465V45.9805H275.211L275.527 50.041ZM274.789 54.8223H273.418C273.418 53.416 273.6 52.1504 273.963 51.0254C274.326 49.8887 274.836 48.9219 275.492 48.125C276.148 47.3164 276.928 46.7012 277.83 46.2793C278.744 45.8457 279.764 45.6289 280.889 45.6289C281.779 45.6289 282.594 45.7578 283.332 46.0156C284.07 46.2734 284.703 46.6836 285.23 47.2461C285.77 47.8086 286.18 48.5527 286.461 49.4785C286.754 50.4043 286.9 51.5352 286.9 52.8711V65H281.803V52.8535C281.803 52.0098 281.686 51.3535 281.451 50.8848C281.217 50.416 280.871 50.0879 280.414 49.9004C279.969 49.7012 279.418 49.6016 278.762 49.6016C278.082 49.6016 277.49 49.7363 276.986 50.0059C276.494 50.2754 276.084 50.6504 275.756 51.1309C275.439 51.5996 275.199 52.1504 275.035 52.7832C274.871 53.416 274.789 54.0957 274.789 54.8223ZM296.094 45.9805V65H291.014V45.9805H296.094ZM290.697 41.0234C290.697 40.2852 290.955 39.6758 291.471 39.1953C291.986 38.7148 292.678 38.4746 293.545 38.4746C294.4 38.4746 295.086 38.7148 295.602 39.1953C296.129 39.6758 296.393 40.2852 296.393 41.0234C296.393 41.7617 296.129 42.3711 295.602 42.8516C295.086 43.332 294.4 43.5723 293.545 43.5723C292.678 43.5723 291.986 43.332 291.471 42.8516C290.955 42.3711 290.697 41.7617 290.697 41.0234ZM309.594 45.9805V49.5664H298.52V45.9805H309.594ZM301.262 41.2871H306.324V59.2695C306.324 59.8203 306.395 60.2422 306.535 60.5352C306.688 60.8281 306.91 61.0332 307.203 61.1504C307.496 61.2559 307.865 61.3086 308.311 61.3086C308.627 61.3086 308.908 61.2969 309.154 61.2734C309.412 61.2383 309.629 61.2031 309.805 61.168L309.822 64.8945C309.389 65.0352 308.92 65.1465 308.416 65.2285C307.912 65.3105 307.355 65.3516 306.746 65.3516C305.633 65.3516 304.66 65.1699 303.828 64.8066C303.008 64.4316 302.375 63.834 301.93 63.0137C301.484 62.1934 301.262 61.1152 301.262 59.7793V41.2871ZM318.119 62.8555L323.164 45.9805H328.596L320.949 67.8652C320.785 68.3457 320.562 68.8613 320.281 69.4121C320.012 69.9629 319.643 70.4844 319.174 70.9766C318.717 71.4805 318.137 71.8906 317.434 72.207C316.742 72.5234 315.893 72.6816 314.885 72.6816C314.404 72.6816 314.012 72.6523 313.707 72.5938C313.402 72.5352 313.039 72.4531 312.617 72.3477V68.6387C312.746 68.6387 312.881 68.6387 313.021 68.6387C313.162 68.6504 313.297 68.6562 313.426 68.6562C314.094 68.6562 314.639 68.5801 315.061 68.4277C315.482 68.2754 315.822 68.041 316.08 67.7246C316.338 67.4199 316.543 67.0215 316.695 66.5293L318.119 62.8555ZM316.01 45.9805L320.141 59.7617L320.861 65.123L317.416 65.4922L310.578 45.9805H316.01Z" fill="white"/>
<rect x="416" y="32" width="52" height="52" rx="8" fill="white"/>
<path d="M438.59 66.5C438.11 66.5 437.654 66.3103 437.318 65.9782L430.522 59.266C429.826 58.5781 429.826 57.4397 430.522 56.7518C431.219 56.064 432.371 56.064 433.068 56.7518L438.59 62.207L450.932 50.0159C451.629 49.328 452.781 49.328 453.478 50.0159C454.174 50.7037 454.174 51.8422 453.478 52.53L439.863 65.9782C439.527 66.3103 439.071 66.5 438.59 66.5Z" fill="#93AFD4"/>
</g>
<path opacity="0.15" fill-rule="evenodd" clip-rule="evenodd" d="M400.958 294.688C458.576 279.446 492.929 220.382 477.687 162.763C466.56 120.7 432.078 91.0365 391.854 84.0155L388.857 125.89L418.526 118.041C421.181 117.339 423.903 118.922 424.605 121.577L434.062 157.328L436.947 156.565C439.602 155.862 442.324 157.445 443.026 160.101L450.021 186.543C450.724 189.198 449.14 191.92 446.485 192.622L443.601 193.385L456.654 242.731C457.356 245.386 455.773 248.108 453.118 248.811L378.652 268.509L376.523 298.254C384.611 298.009 392.799 296.846 400.958 294.688ZM351.256 296.012L352.733 275.365L331.964 280.859C329.309 281.561 326.587 279.978 325.885 277.323L312.832 227.977L309.471 228.866C306.816 229.569 304.094 227.986 303.392 225.331L296.397 198.888C295.694 196.233 297.278 193.511 299.933 192.809L303.293 191.92L293.836 156.169C293.134 153.514 294.717 150.792 297.372 150.09L326.699 142.332L324.329 133.371C323.626 130.716 325.209 127.994 327.865 127.292L364.014 117.729L366.525 82.6417C359.636 83.0864 352.689 84.2018 345.763 86.034C288.145 101.276 253.792 160.34 269.033 217.958C279.826 258.757 312.591 287.891 351.256 296.012ZM355.684 234.132L340.713 238.092C339.385 238.443 338.594 239.804 338.945 241.132L340.599 247.382C340.95 248.709 342.31 249.501 343.638 249.15L354.821 246.191L355.684 234.132ZM380.739 239.335L425.369 227.53C426.696 227.178 427.488 225.817 427.137 224.49L425.484 218.24C425.132 216.912 423.771 216.121 422.444 216.472L381.602 227.276L380.739 239.335ZM404.9 309.591C470.749 292.172 510.01 224.67 492.591 158.821C475.172 92.9715 407.67 53.7111 341.82 71.1301C275.971 88.5491 236.711 156.051 254.13 221.901C271.549 287.75 339.051 327.01 404.9 309.591ZM340.859 209.472C346.965 207.856 350.566 201.441 348.9 195.143C347.234 188.845 340.932 185.05 334.826 186.665C328.718 188.281 325.118 194.695 326.784 200.994C328.45 207.291 334.751 211.087 340.859 209.472ZM416.314 173.854C417.93 179.961 414.288 186.221 408.182 187.837C402.075 189.452 395.815 185.811 394.199 179.704C392.583 173.597 396.224 167.337 402.332 165.721C408.438 164.106 414.699 167.747 416.314 173.854Z" fill="white"/>
</g>
<defs>
<linearGradient id="paint0_linear_7390_33912" x1="500" y1="300" x2="6.00006" y2="7.99996" gradientUnits="userSpaceOnUse">
<stop offset="0.102239" stop-color="#A2D1EB"/>
<stop offset="0.775023" stop-color="#93AFD4"/>
</linearGradient>
<clipPath id="clip0_7390_33912">
<rect width="500" height="300" fill="white"/>
</clipPath>
<clipPath id="clip1_7390_33912">
<rect width="500" height="300" rx="16" fill="white"/>
</clipPath>
</defs>
</svg>
