<svg width="500" height="300" viewBox="0 0 500 300" fill="none" xmlns="http://www.w3.org/2000/svg">
<g clip-path="url(#clip0_7390_33915)">
<g clip-path="url(#clip1_7390_33915)">
<rect width="500" height="300" rx="16" fill="#F5F5F5"/>
<rect width="500" height="300" rx="16" fill="url(#paint0_linear_7390_33915)"/>
<path d="M44.252 55.877H37.7305V51.7637H44.252C45.2598 51.7637 46.0801 51.5996 46.7129 51.2715C47.3457 50.9316 47.8086 50.4629 48.1016 49.8652C48.3945 49.2676 48.541 48.5938 48.541 47.8438C48.541 47.082 48.3945 46.373 48.1016 45.7168C47.8086 45.0605 47.3457 44.5332 46.7129 44.1348C46.0801 43.7363 45.2598 43.5371 44.252 43.5371H39.5586V65H34.2852V39.4062H44.252C46.2559 39.4062 47.9727 39.7695 49.4023 40.4961C50.8438 41.2109 51.9453 42.2012 52.707 43.4668C53.4688 44.7324 53.8496 46.1797 53.8496 47.8086C53.8496 49.4609 53.4688 50.8906 52.707 52.0977C51.9453 53.3047 50.8438 54.2363 49.4023 54.8926C47.9727 55.5488 46.2559 55.877 44.252 55.877ZM62.2344 50.1289V65H57.1719V45.9805H61.9355L62.2344 50.1289ZM67.9648 45.8574L67.877 50.5508C67.6309 50.5156 67.332 50.4863 66.9805 50.4629C66.6406 50.4277 66.3301 50.4102 66.0488 50.4102C65.334 50.4102 64.7129 50.5039 64.1855 50.6914C63.6699 50.8672 63.2363 51.1309 62.8848 51.4824C62.5449 51.834 62.2871 52.2617 62.1113 52.7656C61.9473 53.2695 61.8535 53.8438 61.8301 54.4883L60.8105 54.1719C60.8105 52.9414 60.9336 51.8105 61.1797 50.7793C61.4258 49.7363 61.7832 48.8281 62.252 48.0547C62.7324 47.2812 63.3184 46.6836 64.0098 46.2617C64.7012 45.8398 65.4922 45.6289 66.3828 45.6289C66.6641 45.6289 66.9512 45.6523 67.2441 45.6992C67.5371 45.7344 67.7773 45.7871 67.9648 45.8574ZM69.0195 55.6836V55.3145C69.0195 53.9199 69.2188 52.6367 69.6172 51.4648C70.0156 50.2812 70.5957 49.2559 71.3574 48.3887C72.1191 47.5215 73.0566 46.8477 74.1699 46.3672C75.2832 45.875 76.5605 45.6289 78.002 45.6289C79.4434 45.6289 80.7266 45.875 81.8516 46.3672C82.9766 46.8477 83.9199 47.5215 84.6816 48.3887C85.4551 49.2559 86.041 50.2812 86.4395 51.4648C86.8379 52.6367 87.0371 53.9199 87.0371 55.3145V55.6836C87.0371 57.0664 86.8379 58.3496 86.4395 59.5332C86.041 60.7051 85.4551 61.7305 84.6816 62.6094C83.9199 63.4766 82.9824 64.1504 81.8691 64.6309C80.7559 65.1113 79.4785 65.3516 78.0371 65.3516C76.5957 65.3516 75.3125 65.1113 74.1875 64.6309C73.0742 64.1504 72.1309 63.4766 71.3574 62.6094C70.5957 61.7305 70.0156 60.7051 69.6172 59.5332C69.2188 58.3496 69.0195 57.0664 69.0195 55.6836ZM74.082 55.3145V55.6836C74.082 56.4805 74.1523 57.2246 74.293 57.916C74.4336 58.6074 74.6562 59.2168 74.9609 59.7441C75.2773 60.2598 75.6875 60.6641 76.1914 60.957C76.6953 61.25 77.3105 61.3965 78.0371 61.3965C78.7402 61.3965 79.3438 61.25 79.8477 60.957C80.3516 60.6641 80.7559 60.2598 81.0605 59.7441C81.3652 59.2168 81.5879 58.6074 81.7285 57.916C81.8809 57.2246 81.957 56.4805 81.957 55.6836V55.3145C81.957 54.541 81.8809 53.8145 81.7285 53.1348C81.5879 52.4434 81.3594 51.834 81.043 51.3066C80.7383 50.7676 80.334 50.3457 79.8301 50.041C79.3262 49.7363 78.7168 49.584 78.002 49.584C77.2871 49.584 76.6777 49.7363 76.1738 50.041C75.6816 50.3457 75.2773 50.7676 74.9609 51.3066C74.6562 51.834 74.4336 52.4434 74.293 53.1348C74.1523 53.8145 74.082 54.541 74.082 55.3145ZM89.3398 55.6836V55.3145C89.3398 53.9199 89.5391 52.6367 89.9375 51.4648C90.3359 50.2812 90.916 49.2559 91.6777 48.3887C92.4395 47.5215 93.377 46.8477 94.4902 46.3672C95.6035 45.875 96.8809 45.6289 98.3223 45.6289C99.7637 45.6289 101.047 45.875 102.172 46.3672C103.297 46.8477 104.24 47.5215 105.002 48.3887C105.775 49.2559 106.361 50.2812 106.76 51.4648C107.158 52.6367 107.357 53.9199 107.357 55.3145V55.6836C107.357 57.0664 107.158 58.3496 106.76 59.5332C106.361 60.7051 105.775 61.7305 105.002 62.6094C104.24 63.4766 103.303 64.1504 102.189 64.6309C101.076 65.1113 99.7988 65.3516 98.3574 65.3516C96.916 65.3516 95.6328 65.1113 94.5078 64.6309C93.3945 64.1504 92.4512 63.4766 91.6777 62.6094C90.916 61.7305 90.3359 60.7051 89.9375 59.5332C89.5391 58.3496 89.3398 57.0664 89.3398 55.6836ZM94.4023 55.3145V55.6836C94.4023 56.4805 94.4727 57.2246 94.6133 57.916C94.7539 58.6074 94.9766 59.2168 95.2812 59.7441C95.5977 60.2598 96.0078 60.6641 96.5117 60.957C97.0156 61.25 97.6309 61.3965 98.3574 61.3965C99.0605 61.3965 99.6641 61.25 100.168 60.957C100.672 60.6641 101.076 60.2598 101.381 59.7441C101.686 59.2168 101.908 58.6074 102.049 57.916C102.201 57.2246 102.277 56.4805 102.277 55.6836V55.3145C102.277 54.541 102.201 53.8145 102.049 53.1348C101.908 52.4434 101.68 51.834 101.363 51.3066C101.059 50.7676 100.654 50.3457 100.15 50.041C99.6465 49.7363 99.0371 49.584 98.3223 49.584C97.6074 49.584 96.998 49.7363 96.4941 50.041C96.002 50.3457 95.5977 50.7676 95.2812 51.3066C94.9766 51.834 94.7539 52.4434 94.6133 53.1348C94.4727 53.8145 94.4023 54.541 94.4023 55.3145ZM116.92 65H111.822V44.293C111.822 42.8516 112.104 41.6387 112.666 40.6543C113.24 39.6582 114.043 38.9082 115.074 38.4043C116.117 37.8887 117.354 37.6309 118.783 37.6309C119.252 37.6309 119.703 37.666 120.137 37.7363C120.57 37.7949 120.992 37.8711 121.402 37.9648L121.35 41.7793C121.127 41.7207 120.893 41.6797 120.646 41.6562C120.4 41.6328 120.113 41.6211 119.785 41.6211C119.176 41.6211 118.654 41.7266 118.221 41.9375C117.799 42.1367 117.477 42.4355 117.254 42.834C117.031 43.2324 116.92 43.7188 116.92 44.293V65ZM120.717 45.9805V49.5664H108.992V45.9805H120.717ZM131.527 55.6836V55.3145C131.527 53.9199 131.727 52.6367 132.125 51.4648C132.523 50.2812 133.104 49.2559 133.865 48.3887C134.627 47.5215 135.564 46.8477 136.678 46.3672C137.791 45.875 139.068 45.6289 140.51 45.6289C141.951 45.6289 143.234 45.875 144.359 46.3672C145.484 46.8477 146.428 47.5215 147.189 48.3887C147.963 49.2559 148.549 50.2812 148.947 51.4648C149.346 52.6367 149.545 53.9199 149.545 55.3145V55.6836C149.545 57.0664 149.346 58.3496 148.947 59.5332C148.549 60.7051 147.963 61.7305 147.189 62.6094C146.428 63.4766 145.49 64.1504 144.377 64.6309C143.264 65.1113 141.986 65.3516 140.545 65.3516C139.104 65.3516 137.82 65.1113 136.695 64.6309C135.582 64.1504 134.639 63.4766 133.865 62.6094C133.104 61.7305 132.523 60.7051 132.125 59.5332C131.727 58.3496 131.527 57.0664 131.527 55.6836ZM136.59 55.3145V55.6836C136.59 56.4805 136.66 57.2246 136.801 57.916C136.941 58.6074 137.164 59.2168 137.469 59.7441C137.785 60.2598 138.195 60.6641 138.699 60.957C139.203 61.25 139.818 61.3965 140.545 61.3965C141.248 61.3965 141.852 61.25 142.355 60.957C142.859 60.6641 143.264 60.2598 143.568 59.7441C143.873 59.2168 144.096 58.6074 144.236 57.916C144.389 57.2246 144.465 56.4805 144.465 55.6836V55.3145C144.465 54.541 144.389 53.8145 144.236 53.1348C144.096 52.4434 143.867 51.834 143.551 51.3066C143.246 50.7676 142.842 50.3457 142.338 50.041C141.834 49.7363 141.225 49.584 140.51 49.584C139.795 49.584 139.186 49.7363 138.682 50.041C138.189 50.3457 137.785 50.7676 137.469 51.3066C137.164 51.834 136.941 52.4434 136.801 53.1348C136.66 53.8145 136.59 54.541 136.59 55.3145ZM159.107 65H154.01V44.293C154.01 42.8516 154.291 41.6387 154.854 40.6543C155.428 39.6582 156.23 38.9082 157.262 38.4043C158.305 37.8887 159.541 37.6309 160.971 37.6309C161.439 37.6309 161.891 37.666 162.324 37.7363C162.758 37.7949 163.18 37.8711 163.59 37.9648L163.537 41.7793C163.314 41.7207 163.08 41.6797 162.834 41.6562C162.588 41.6328 162.301 41.6211 161.973 41.6211C161.363 41.6211 160.842 41.7266 160.408 41.9375C159.986 42.1367 159.664 42.4355 159.441 42.834C159.219 43.2324 159.107 43.7188 159.107 44.293V65ZM162.904 45.9805V49.5664H151.18V45.9805H162.904ZM183.277 65.3516C181.801 65.3516 180.477 65.1172 179.305 64.6484C178.133 64.168 177.137 63.5059 176.316 62.6621C175.508 61.8184 174.887 60.8398 174.453 59.7266C174.02 58.6016 173.803 57.4062 173.803 56.1406V55.4375C173.803 53.9961 174.008 52.6777 174.418 51.4824C174.828 50.2871 175.414 49.25 176.176 48.3711C176.949 47.4922 177.887 46.8184 178.988 46.3496C180.09 45.8691 181.332 45.6289 182.715 45.6289C184.062 45.6289 185.258 45.8516 186.301 46.2969C187.344 46.7422 188.217 47.375 188.92 48.1953C189.635 49.0156 190.174 50 190.537 51.1484C190.9 52.2852 191.082 53.5508 191.082 54.9453V57.0547H175.965V53.6797H186.107V53.293C186.107 52.5898 185.979 51.9629 185.721 51.4121C185.475 50.8496 185.1 50.4043 184.596 50.0762C184.092 49.748 183.447 49.584 182.662 49.584C181.994 49.584 181.42 49.7305 180.939 50.0234C180.459 50.3164 180.066 50.7266 179.762 51.2539C179.469 51.7812 179.246 52.4023 179.094 53.1172C178.953 53.8203 178.883 54.5938 178.883 55.4375V56.1406C178.883 56.9023 178.988 57.6055 179.199 58.25C179.422 58.8945 179.732 59.4512 180.131 59.9199C180.541 60.3887 181.033 60.752 181.607 61.0098C182.193 61.2676 182.855 61.3965 183.594 61.3965C184.508 61.3965 185.357 61.2207 186.143 60.8691C186.939 60.5059 187.625 59.9609 188.199 59.2344L190.66 61.9062C190.262 62.4805 189.717 63.0312 189.025 63.5586C188.346 64.0859 187.525 64.5195 186.564 64.8594C185.604 65.1875 184.508 65.3516 183.277 65.3516ZM199.027 49.918V65H193.947V45.9805H198.711L199.027 49.918ZM198.324 54.8223H196.918C196.918 53.498 197.076 52.2793 197.393 51.166C197.721 50.041 198.195 49.0684 198.816 48.248C199.449 47.416 200.229 46.7715 201.154 46.3145C202.08 45.8574 203.152 45.6289 204.371 45.6289C205.215 45.6289 205.988 45.7578 206.691 46.0156C207.395 46.2617 207.998 46.6543 208.502 47.1934C209.018 47.7207 209.416 48.4121 209.697 49.2676C209.979 50.1113 210.119 51.125 210.119 52.3086V65H205.057V52.8711C205.057 52.0039 204.939 51.3359 204.705 50.8672C204.471 50.3984 204.137 50.0703 203.703 49.8828C203.281 49.6953 202.771 49.6016 202.174 49.6016C201.518 49.6016 200.943 49.7363 200.451 50.0059C199.971 50.2754 199.572 50.6504 199.256 51.1309C198.939 51.5996 198.705 52.1504 198.553 52.7832C198.4 53.416 198.324 54.0957 198.324 54.8223ZM209.645 54.2422L207.834 54.4707C207.834 53.2285 207.986 52.0742 208.291 51.0078C208.607 49.9414 209.07 49.0039 209.68 48.1953C210.301 47.3867 211.068 46.7598 211.982 46.3145C212.896 45.8574 213.951 45.6289 215.146 45.6289C216.061 45.6289 216.893 45.7637 217.643 46.0332C218.393 46.291 219.031 46.707 219.559 47.2812C220.098 47.8438 220.508 48.582 220.789 49.4961C221.082 50.4102 221.229 51.5293 221.229 52.8535V65H216.148V52.8535C216.148 51.9746 216.031 51.3066 215.797 50.8496C215.574 50.3809 215.246 50.0586 214.812 49.8828C214.391 49.6953 213.887 49.6016 213.301 49.6016C212.691 49.6016 212.158 49.7246 211.701 49.9707C211.244 50.2051 210.863 50.5332 210.559 50.9551C210.254 51.377 210.025 51.8691 209.873 52.4316C209.721 52.9824 209.645 53.5859 209.645 54.2422ZM235.414 60.7109V52.2383C235.414 51.6289 235.314 51.1074 235.115 50.6738C234.916 50.2285 234.605 49.8828 234.184 49.6367C233.773 49.3906 233.24 49.2676 232.584 49.2676C232.021 49.2676 231.535 49.3672 231.125 49.5664C230.715 49.7539 230.398 50.0293 230.176 50.3926C229.953 50.7441 229.842 51.1602 229.842 51.6406H224.779C224.779 50.832 224.967 50.0645 225.342 49.3379C225.717 48.6113 226.262 47.9727 226.977 47.4219C227.691 46.8594 228.541 46.4199 229.525 46.1035C230.521 45.7871 231.635 45.6289 232.865 45.6289C234.342 45.6289 235.654 45.875 236.803 46.3672C237.951 46.8594 238.854 47.5977 239.51 48.582C240.178 49.5664 240.512 50.7969 240.512 52.2734V60.4121C240.512 61.4551 240.576 62.3105 240.705 62.9785C240.834 63.6348 241.021 64.209 241.268 64.7012V65H236.152C235.906 64.4844 235.719 63.8398 235.59 63.0664C235.473 62.2812 235.414 61.4961 235.414 60.7109ZM236.082 53.416L236.117 56.2812H233.287C232.619 56.2812 232.039 56.3574 231.547 56.5098C231.055 56.6621 230.65 56.8789 230.334 57.1602C230.018 57.4297 229.783 57.7461 229.631 58.1094C229.49 58.4727 229.42 58.8711 229.42 59.3047C229.42 59.7383 229.52 60.1309 229.719 60.4824C229.918 60.8223 230.205 61.0918 230.58 61.291C230.955 61.4785 231.395 61.5723 231.898 61.5723C232.66 61.5723 233.322 61.4199 233.885 61.1152C234.447 60.8105 234.881 60.4355 235.186 59.9902C235.502 59.5449 235.666 59.123 235.678 58.7246L237.014 60.8691C236.826 61.3496 236.568 61.8477 236.24 62.3633C235.924 62.8789 235.52 63.3652 235.027 63.8223C234.535 64.2676 233.943 64.6367 233.252 64.9297C232.561 65.2109 231.74 65.3516 230.791 65.3516C229.584 65.3516 228.488 65.1113 227.504 64.6309C226.531 64.1387 225.758 63.4648 225.184 62.6094C224.621 61.7422 224.34 60.7578 224.34 59.6562C224.34 58.6602 224.527 57.7754 224.902 57.002C225.277 56.2285 225.828 55.5781 226.555 55.0508C227.293 54.5117 228.213 54.1074 229.314 53.8379C230.416 53.5566 231.693 53.416 233.146 53.416H236.082ZM249.758 45.9805V65H244.678V45.9805H249.758ZM244.361 41.0234C244.361 40.2852 244.619 39.6758 245.135 39.1953C245.65 38.7148 246.342 38.4746 247.209 38.4746C248.064 38.4746 248.75 38.7148 249.266 39.1953C249.793 39.6758 250.057 40.2852 250.057 41.0234C250.057 41.7617 249.793 42.3711 249.266 42.8516C248.75 43.332 248.064 43.5723 247.209 43.5723C246.342 43.5723 245.65 43.332 245.135 42.8516C244.619 42.3711 244.361 41.7617 244.361 41.0234ZM259.285 38V65H254.205V38H259.285Z" fill="white"/>
<rect x="416" y="32" width="52" height="52" rx="8" fill="white"/>
<path d="M438.59 66.5C438.11 66.5 437.654 66.3103 437.318 65.9782L430.522 59.266C429.826 58.5781 429.826 57.4397 430.522 56.7518C431.219 56.064 432.371 56.064 433.068 56.7518L438.59 62.207L450.932 50.0159C451.629 49.328 452.781 49.328 453.478 50.0159C454.174 50.7037 454.174 51.8422 453.478 52.53L439.863 65.9782C439.527 66.3103 439.071 66.5 438.59 66.5Z" fill="#03AF97"/>
</g>
<path opacity="0.13" fill-rule="evenodd" clip-rule="evenodd" d="M513.214 145.354C494.557 77.2466 424.925 35.9826 355.902 52.8673C285.689 70.0431 242.693 140.886 259.869 211.099C277.045 281.312 347.888 324.308 418.101 307.132C436.555 302.618 453.512 294.291 468.111 282.755C473.782 278.273 474.747 270.042 470.265 264.371C465.783 258.7 457.553 257.735 451.881 262.217C440.215 271.436 426.668 278.088 411.881 281.705C355.71 295.446 299.036 261.05 285.296 204.879C271.555 148.709 305.951 92.0344 362.122 78.2937C418.292 64.5531 474.967 98.9494 488.707 155.12L491.817 167.833L492.275 169.997C494.713 183.625 488.436 195.608 478.967 197.925C469 200.363 457.225 191.666 453.678 177.163L450.568 164.45L449.834 161.707C440.116 128.233 405.634 108.072 371.452 116.433C336.345 125.021 314.847 160.443 323.435 195.549C332.023 230.656 367.445 252.154 402.551 243.566C421.09 239.031 435.833 227.014 444.349 211.517C455.396 221.975 470.274 226.999 485.187 223.351C510.327 217.201 524.001 189.238 517.244 161.613L514.134 148.9L513.214 145.354ZM348.861 189.329C343.708 168.265 356.607 147.012 377.671 141.86C398.735 136.707 419.988 149.605 425.141 170.669C430.293 191.733 417.395 212.986 396.331 218.139C375.267 223.292 354.014 210.393 348.861 189.329Z" fill="white"/>
</g>
<defs>
<linearGradient id="paint0_linear_7390_33915" x1="500" y1="300" x2="6.00006" y2="7.99996" gradientUnits="userSpaceOnUse">
<stop offset="0.0408417" stop-color="#32DEC7"/>
<stop offset="0.630366" stop-color="#03AF97"/>
</linearGradient>
<clipPath id="clip0_7390_33915">
<rect width="500" height="300" fill="white"/>
</clipPath>
<clipPath id="clip1_7390_33915">
<rect width="500" height="300" rx="16" fill="white"/>
</clipPath>
</defs>
</svg>
