<svg width="500" height="300" viewBox="0 0 500 300" fill="none" xmlns="http://www.w3.org/2000/svg">
<g clip-path="url(#clip0_7390_33835)">
<g clip-path="url(#clip1_7390_33835)">
<rect width="500" height="300" rx="16" fill="#F5F5F5"/>
<rect width="500" height="300" rx="16" fill="url(#paint0_linear_7390_33835)"/>
<path d="M44.252 55.877H37.7305V51.7637H44.252C45.2598 51.7637 46.0801 51.5996 46.7129 51.2715C47.3457 50.9316 47.8086 50.4629 48.1016 49.8652C48.3945 49.2676 48.541 48.5938 48.541 47.8438C48.541 47.082 48.3945 46.373 48.1016 45.7168C47.8086 45.0605 47.3457 44.5332 46.7129 44.1348C46.0801 43.7363 45.2598 43.5371 44.252 43.5371H39.5586V65H34.2852V39.4062H44.252C46.2559 39.4062 47.9727 39.7695 49.4023 40.4961C50.8438 41.2109 51.9453 42.2012 52.707 43.4668C53.4688 44.7324 53.8496 46.1797 53.8496 47.8086C53.8496 49.4609 53.4688 50.8906 52.707 52.0977C51.9453 53.3047 50.8438 54.2363 49.4023 54.8926C47.9727 55.5488 46.2559 55.877 44.252 55.877ZM62.2344 50.1289V65H57.1719V45.9805H61.9355L62.2344 50.1289ZM67.9648 45.8574L67.877 50.5508C67.6309 50.5156 67.332 50.4863 66.9805 50.4629C66.6406 50.4277 66.3301 50.4102 66.0488 50.4102C65.334 50.4102 64.7129 50.5039 64.1855 50.6914C63.6699 50.8672 63.2363 51.1309 62.8848 51.4824C62.5449 51.834 62.2871 52.2617 62.1113 52.7656C61.9473 53.2695 61.8535 53.8438 61.8301 54.4883L60.8105 54.1719C60.8105 52.9414 60.9336 51.8105 61.1797 50.7793C61.4258 49.7363 61.7832 48.8281 62.252 48.0547C62.7324 47.2812 63.3184 46.6836 64.0098 46.2617C64.7012 45.8398 65.4922 45.6289 66.3828 45.6289C66.6641 45.6289 66.9512 45.6523 67.2441 45.6992C67.5371 45.7344 67.7773 45.7871 67.9648 45.8574ZM69.0195 55.6836V55.3145C69.0195 53.9199 69.2188 52.6367 69.6172 51.4648C70.0156 50.2812 70.5957 49.2559 71.3574 48.3887C72.1191 47.5215 73.0566 46.8477 74.1699 46.3672C75.2832 45.875 76.5605 45.6289 78.002 45.6289C79.4434 45.6289 80.7266 45.875 81.8516 46.3672C82.9766 46.8477 83.9199 47.5215 84.6816 48.3887C85.4551 49.2559 86.041 50.2812 86.4395 51.4648C86.8379 52.6367 87.0371 53.9199 87.0371 55.3145V55.6836C87.0371 57.0664 86.8379 58.3496 86.4395 59.5332C86.041 60.7051 85.4551 61.7305 84.6816 62.6094C83.9199 63.4766 82.9824 64.1504 81.8691 64.6309C80.7559 65.1113 79.4785 65.3516 78.0371 65.3516C76.5957 65.3516 75.3125 65.1113 74.1875 64.6309C73.0742 64.1504 72.1309 63.4766 71.3574 62.6094C70.5957 61.7305 70.0156 60.7051 69.6172 59.5332C69.2188 58.3496 69.0195 57.0664 69.0195 55.6836ZM74.082 55.3145V55.6836C74.082 56.4805 74.1523 57.2246 74.293 57.916C74.4336 58.6074 74.6562 59.2168 74.9609 59.7441C75.2773 60.2598 75.6875 60.6641 76.1914 60.957C76.6953 61.25 77.3105 61.3965 78.0371 61.3965C78.7402 61.3965 79.3438 61.25 79.8477 60.957C80.3516 60.6641 80.7559 60.2598 81.0605 59.7441C81.3652 59.2168 81.5879 58.6074 81.7285 57.916C81.8809 57.2246 81.957 56.4805 81.957 55.6836V55.3145C81.957 54.541 81.8809 53.8145 81.7285 53.1348C81.5879 52.4434 81.3594 51.834 81.043 51.3066C80.7383 50.7676 80.334 50.3457 79.8301 50.041C79.3262 49.7363 78.7168 49.584 78.002 49.584C77.2871 49.584 76.6777 49.7363 76.1738 50.041C75.6816 50.3457 75.2773 50.7676 74.9609 51.3066C74.6562 51.834 74.4336 52.4434 74.293 53.1348C74.1523 53.8145 74.082 54.541 74.082 55.3145ZM89.3398 55.6836V55.3145C89.3398 53.9199 89.5391 52.6367 89.9375 51.4648C90.3359 50.2812 90.916 49.2559 91.6777 48.3887C92.4395 47.5215 93.377 46.8477 94.4902 46.3672C95.6035 45.875 96.8809 45.6289 98.3223 45.6289C99.7637 45.6289 101.047 45.875 102.172 46.3672C103.297 46.8477 104.24 47.5215 105.002 48.3887C105.775 49.2559 106.361 50.2812 106.76 51.4648C107.158 52.6367 107.357 53.9199 107.357 55.3145V55.6836C107.357 57.0664 107.158 58.3496 106.76 59.5332C106.361 60.7051 105.775 61.7305 105.002 62.6094C104.24 63.4766 103.303 64.1504 102.189 64.6309C101.076 65.1113 99.7988 65.3516 98.3574 65.3516C96.916 65.3516 95.6328 65.1113 94.5078 64.6309C93.3945 64.1504 92.4512 63.4766 91.6777 62.6094C90.916 61.7305 90.3359 60.7051 89.9375 59.5332C89.5391 58.3496 89.3398 57.0664 89.3398 55.6836ZM94.4023 55.3145V55.6836C94.4023 56.4805 94.4727 57.2246 94.6133 57.916C94.7539 58.6074 94.9766 59.2168 95.2812 59.7441C95.5977 60.2598 96.0078 60.6641 96.5117 60.957C97.0156 61.25 97.6309 61.3965 98.3574 61.3965C99.0605 61.3965 99.6641 61.25 100.168 60.957C100.672 60.6641 101.076 60.2598 101.381 59.7441C101.686 59.2168 101.908 58.6074 102.049 57.916C102.201 57.2246 102.277 56.4805 102.277 55.6836V55.3145C102.277 54.541 102.201 53.8145 102.049 53.1348C101.908 52.4434 101.68 51.834 101.363 51.3066C101.059 50.7676 100.654 50.3457 100.15 50.041C99.6465 49.7363 99.0371 49.584 98.3223 49.584C97.6074 49.584 96.998 49.7363 96.4941 50.041C96.002 50.3457 95.5977 50.7676 95.2812 51.3066C94.9766 51.834 94.7539 52.4434 94.6133 53.1348C94.4727 53.8145 94.4023 54.541 94.4023 55.3145ZM116.92 65H111.822V44.293C111.822 42.8516 112.104 41.6387 112.666 40.6543C113.24 39.6582 114.043 38.9082 115.074 38.4043C116.117 37.8887 117.354 37.6309 118.783 37.6309C119.252 37.6309 119.703 37.666 120.137 37.7363C120.57 37.7949 120.992 37.8711 121.402 37.9648L121.35 41.7793C121.127 41.7207 120.893 41.6797 120.646 41.6562C120.4 41.6328 120.113 41.6211 119.785 41.6211C119.176 41.6211 118.654 41.7266 118.221 41.9375C117.799 42.1367 117.477 42.4355 117.254 42.834C117.031 43.2324 116.92 43.7188 116.92 44.293V65ZM120.717 45.9805V49.5664H108.992V45.9805H120.717ZM131.527 55.6836V55.3145C131.527 53.9199 131.727 52.6367 132.125 51.4648C132.523 50.2812 133.104 49.2559 133.865 48.3887C134.627 47.5215 135.564 46.8477 136.678 46.3672C137.791 45.875 139.068 45.6289 140.51 45.6289C141.951 45.6289 143.234 45.875 144.359 46.3672C145.484 46.8477 146.428 47.5215 147.189 48.3887C147.963 49.2559 148.549 50.2812 148.947 51.4648C149.346 52.6367 149.545 53.9199 149.545 55.3145V55.6836C149.545 57.0664 149.346 58.3496 148.947 59.5332C148.549 60.7051 147.963 61.7305 147.189 62.6094C146.428 63.4766 145.49 64.1504 144.377 64.6309C143.264 65.1113 141.986 65.3516 140.545 65.3516C139.104 65.3516 137.82 65.1113 136.695 64.6309C135.582 64.1504 134.639 63.4766 133.865 62.6094C133.104 61.7305 132.523 60.7051 132.125 59.5332C131.727 58.3496 131.527 57.0664 131.527 55.6836ZM136.59 55.3145V55.6836C136.59 56.4805 136.66 57.2246 136.801 57.916C136.941 58.6074 137.164 59.2168 137.469 59.7441C137.785 60.2598 138.195 60.6641 138.699 60.957C139.203 61.25 139.818 61.3965 140.545 61.3965C141.248 61.3965 141.852 61.25 142.355 60.957C142.859 60.6641 143.264 60.2598 143.568 59.7441C143.873 59.2168 144.096 58.6074 144.236 57.916C144.389 57.2246 144.465 56.4805 144.465 55.6836V55.3145C144.465 54.541 144.389 53.8145 144.236 53.1348C144.096 52.4434 143.867 51.834 143.551 51.3066C143.246 50.7676 142.842 50.3457 142.338 50.041C141.834 49.7363 141.225 49.584 140.51 49.584C139.795 49.584 139.186 49.7363 138.682 50.041C138.189 50.3457 137.785 50.7676 137.469 51.3066C137.164 51.834 136.941 52.4434 136.801 53.1348C136.66 53.8145 136.59 54.541 136.59 55.3145ZM159.107 65H154.01V44.293C154.01 42.8516 154.291 41.6387 154.854 40.6543C155.428 39.6582 156.23 38.9082 157.262 38.4043C158.305 37.8887 159.541 37.6309 160.971 37.6309C161.439 37.6309 161.891 37.666 162.324 37.7363C162.758 37.7949 163.18 37.8711 163.59 37.9648L163.537 41.7793C163.314 41.7207 163.08 41.6797 162.834 41.6562C162.588 41.6328 162.301 41.6211 161.973 41.6211C161.363 41.6211 160.842 41.7266 160.408 41.9375C159.986 42.1367 159.664 42.4355 159.441 42.834C159.219 43.2324 159.107 43.7188 159.107 44.293V65ZM162.904 45.9805V49.5664H151.18V45.9805H162.904ZM179.586 49.6367V72.3125H174.523V45.9805H179.217L179.586 49.6367ZM191.627 55.2793V55.6484C191.627 57.0312 191.463 58.3145 191.135 59.498C190.818 60.6816 190.35 61.7129 189.729 62.5918C189.107 63.459 188.334 64.1387 187.408 64.6309C186.494 65.1113 185.439 65.3516 184.244 65.3516C183.084 65.3516 182.076 65.1172 181.221 64.6484C180.365 64.1797 179.645 63.5234 179.059 62.6797C178.484 61.8242 178.021 60.834 177.67 59.709C177.318 58.584 177.049 57.377 176.861 56.0879V55.1211C177.049 53.7383 177.318 52.4727 177.67 51.3242C178.021 50.1641 178.484 49.1621 179.059 48.3184C179.645 47.4629 180.359 46.8008 181.203 46.332C182.059 45.8633 183.061 45.6289 184.209 45.6289C185.416 45.6289 186.477 45.8574 187.391 46.3145C188.316 46.7715 189.09 47.4277 189.711 48.2832C190.344 49.1387 190.818 50.1582 191.135 51.3418C191.463 52.5254 191.627 53.8379 191.627 55.2793ZM186.547 55.6484V55.2793C186.547 54.4707 186.477 53.7266 186.336 53.0469C186.207 52.3555 185.996 51.752 185.703 51.2363C185.422 50.7207 185.047 50.3223 184.578 50.041C184.121 49.748 183.564 49.6016 182.908 49.6016C182.217 49.6016 181.625 49.7129 181.133 49.9355C180.652 50.1582 180.26 50.4805 179.955 50.9023C179.65 51.3242 179.422 51.8281 179.27 52.4141C179.117 53 179.023 53.6621 178.988 54.4004V56.8438C179.047 57.7109 179.211 58.4902 179.48 59.1816C179.75 59.8613 180.166 60.4004 180.729 60.7988C181.291 61.1973 182.029 61.3965 182.943 61.3965C183.611 61.3965 184.174 61.25 184.631 60.957C185.088 60.6523 185.457 60.2363 185.738 59.709C186.031 59.1816 186.236 58.5723 186.354 57.8809C186.482 57.1895 186.547 56.4453 186.547 55.6484ZM199.713 38V65H194.65V38H199.713ZM198.992 54.8223H197.604C197.615 53.498 197.791 52.2793 198.131 51.166C198.471 50.041 198.957 49.0684 199.59 48.248C200.223 47.416 200.979 46.7715 201.857 46.3145C202.748 45.8574 203.732 45.6289 204.811 45.6289C205.748 45.6289 206.598 45.7637 207.359 46.0332C208.133 46.291 208.795 46.7129 209.346 47.2988C209.908 47.873 210.342 48.6289 210.646 49.5664C210.951 50.5039 211.104 51.6406 211.104 52.9766V65H206.006V52.9414C206.006 52.0977 205.883 51.4355 205.637 50.9551C205.402 50.4629 205.057 50.1172 204.6 49.918C204.154 49.707 203.604 49.6016 202.947 49.6016C202.221 49.6016 201.6 49.7363 201.084 50.0059C200.58 50.2754 200.176 50.6504 199.871 51.1309C199.566 51.5996 199.344 52.1504 199.203 52.7832C199.062 53.416 198.992 54.0957 198.992 54.8223ZM214.145 55.6836V55.3145C214.145 53.9199 214.344 52.6367 214.742 51.4648C215.141 50.2812 215.721 49.2559 216.482 48.3887C217.244 47.5215 218.182 46.8477 219.295 46.3672C220.408 45.875 221.686 45.6289 223.127 45.6289C224.568 45.6289 225.852 45.875 226.977 46.3672C228.102 46.8477 229.045 47.5215 229.807 48.3887C230.58 49.2559 231.166 50.2812 231.564 51.4648C231.963 52.6367 232.162 53.9199 232.162 55.3145V55.6836C232.162 57.0664 231.963 58.3496 231.564 59.5332C231.166 60.7051 230.58 61.7305 229.807 62.6094C229.045 63.4766 228.107 64.1504 226.994 64.6309C225.881 65.1113 224.604 65.3516 223.162 65.3516C221.721 65.3516 220.438 65.1113 219.312 64.6309C218.199 64.1504 217.256 63.4766 216.482 62.6094C215.721 61.7305 215.141 60.7051 214.742 59.5332C214.344 58.3496 214.145 57.0664 214.145 55.6836ZM219.207 55.3145V55.6836C219.207 56.4805 219.277 57.2246 219.418 57.916C219.559 58.6074 219.781 59.2168 220.086 59.7441C220.402 60.2598 220.812 60.6641 221.316 60.957C221.82 61.25 222.436 61.3965 223.162 61.3965C223.865 61.3965 224.469 61.25 224.973 60.957C225.477 60.6641 225.881 60.2598 226.186 59.7441C226.49 59.2168 226.713 58.6074 226.854 57.916C227.006 57.2246 227.082 56.4805 227.082 55.6836V55.3145C227.082 54.541 227.006 53.8145 226.854 53.1348C226.713 52.4434 226.484 51.834 226.168 51.3066C225.863 50.7676 225.459 50.3457 224.955 50.041C224.451 49.7363 223.842 49.584 223.127 49.584C222.412 49.584 221.803 49.7363 221.299 50.041C220.807 50.3457 220.402 50.7676 220.086 51.3066C219.781 51.834 219.559 52.4434 219.418 53.1348C219.277 53.8145 219.207 54.541 219.207 55.3145ZM240.23 50.041V65H235.168V45.9805H239.914L240.23 50.041ZM239.492 54.8223H238.121C238.121 53.416 238.303 52.1504 238.666 51.0254C239.029 49.8887 239.539 48.9219 240.195 48.125C240.852 47.3164 241.631 46.7012 242.533 46.2793C243.447 45.8457 244.467 45.6289 245.592 45.6289C246.482 45.6289 247.297 45.7578 248.035 46.0156C248.773 46.2734 249.406 46.6836 249.934 47.2461C250.473 47.8086 250.883 48.5527 251.164 49.4785C251.457 50.4043 251.604 51.5352 251.604 52.8711V65H246.506V52.8535C246.506 52.0098 246.389 51.3535 246.154 50.8848C245.92 50.416 245.574 50.0879 245.117 49.9004C244.672 49.7012 244.121 49.6016 243.465 49.6016C242.785 49.6016 242.193 49.7363 241.689 50.0059C241.197 50.2754 240.787 50.6504 240.459 51.1309C240.143 51.5996 239.902 52.1504 239.738 52.7832C239.574 53.416 239.492 54.0957 239.492 54.8223ZM264.207 65.3516C262.73 65.3516 261.406 65.1172 260.234 64.6484C259.062 64.168 258.066 63.5059 257.246 62.6621C256.438 61.8184 255.816 60.8398 255.383 59.7266C254.949 58.6016 254.732 57.4062 254.732 56.1406V55.4375C254.732 53.9961 254.938 52.6777 255.348 51.4824C255.758 50.2871 256.344 49.25 257.105 48.3711C257.879 47.4922 258.816 46.8184 259.918 46.3496C261.02 45.8691 262.262 45.6289 263.645 45.6289C264.992 45.6289 266.188 45.8516 267.23 46.2969C268.273 46.7422 269.146 47.375 269.85 48.1953C270.564 49.0156 271.104 50 271.467 51.1484C271.83 52.2852 272.012 53.5508 272.012 54.9453V57.0547H256.895V53.6797H267.037V53.293C267.037 52.5898 266.908 51.9629 266.65 51.4121C266.404 50.8496 266.029 50.4043 265.525 50.0762C265.021 49.748 264.377 49.584 263.592 49.584C262.924 49.584 262.35 49.7305 261.869 50.0234C261.389 50.3164 260.996 50.7266 260.691 51.2539C260.398 51.7812 260.176 52.4023 260.023 53.1172C259.883 53.8203 259.812 54.5938 259.812 55.4375V56.1406C259.812 56.9023 259.918 57.6055 260.129 58.25C260.352 58.8945 260.662 59.4512 261.061 59.9199C261.471 60.3887 261.963 60.752 262.537 61.0098C263.123 61.2676 263.785 61.3965 264.523 61.3965C265.438 61.3965 266.287 61.2207 267.072 60.8691C267.869 60.5059 268.555 59.9609 269.129 59.2344L271.59 61.9062C271.191 62.4805 270.646 63.0312 269.955 63.5586C269.275 64.0859 268.455 64.5195 267.494 64.8594C266.533 65.1875 265.438 65.3516 264.207 65.3516ZM305.006 39.4062V65H299.732L289.449 47.8438V65H284.176V39.4062H289.449L299.75 56.5801V39.4062H305.006ZM308.469 55.6836V55.3145C308.469 53.9199 308.668 52.6367 309.066 51.4648C309.465 50.2812 310.045 49.2559 310.807 48.3887C311.568 47.5215 312.506 46.8477 313.619 46.3672C314.732 45.875 316.01 45.6289 317.451 45.6289C318.893 45.6289 320.176 45.875 321.301 46.3672C322.426 46.8477 323.369 47.5215 324.131 48.3887C324.904 49.2559 325.49 50.2812 325.889 51.4648C326.287 52.6367 326.486 53.9199 326.486 55.3145V55.6836C326.486 57.0664 326.287 58.3496 325.889 59.5332C325.49 60.7051 324.904 61.7305 324.131 62.6094C323.369 63.4766 322.432 64.1504 321.318 64.6309C320.205 65.1113 318.928 65.3516 317.486 65.3516C316.045 65.3516 314.762 65.1113 313.637 64.6309C312.523 64.1504 311.58 63.4766 310.807 62.6094C310.045 61.7305 309.465 60.7051 309.066 59.5332C308.668 58.3496 308.469 57.0664 308.469 55.6836ZM313.531 55.3145V55.6836C313.531 56.4805 313.602 57.2246 313.742 57.916C313.883 58.6074 314.105 59.2168 314.41 59.7441C314.727 60.2598 315.137 60.6641 315.641 60.957C316.145 61.25 316.76 61.3965 317.486 61.3965C318.189 61.3965 318.793 61.25 319.297 60.957C319.801 60.6641 320.205 60.2598 320.51 59.7441C320.814 59.2168 321.037 58.6074 321.178 57.916C321.33 57.2246 321.406 56.4805 321.406 55.6836V55.3145C321.406 54.541 321.33 53.8145 321.178 53.1348C321.037 52.4434 320.809 51.834 320.492 51.3066C320.188 50.7676 319.783 50.3457 319.279 50.041C318.775 49.7363 318.166 49.584 317.451 49.584C316.736 49.584 316.127 49.7363 315.623 50.041C315.131 50.3457 314.727 50.7676 314.41 51.3066C314.105 51.834 313.883 52.4434 313.742 53.1348C313.602 53.8145 313.531 54.541 313.531 55.3145ZM329.844 62.5566C329.844 61.8066 330.102 61.1797 330.617 60.6758C331.145 60.1719 331.842 59.9199 332.709 59.9199C333.576 59.9199 334.268 60.1719 334.783 60.6758C335.311 61.1797 335.574 61.8066 335.574 62.5566C335.574 63.3066 335.311 63.9336 334.783 64.4375C334.268 64.9414 333.576 65.1934 332.709 65.1934C331.842 65.1934 331.145 64.9414 330.617 64.4375C330.102 63.9336 329.844 63.3066 329.844 62.5566Z" fill="white"/>
<rect x="416" y="32" width="52" height="52" rx="8" fill="white"/>
<path d="M438.59 66.5C438.11 66.5 437.654 66.3103 437.318 65.9782L430.522 59.266C429.826 58.5781 429.826 57.4397 430.522 56.7518C431.219 56.064 432.371 56.064 433.068 56.7518L438.59 62.207L450.932 50.0159C451.629 49.328 452.781 49.328 453.478 50.0159C454.174 50.7037 454.174 51.8422 453.478 52.53L439.863 65.9782C439.527 66.3103 439.071 66.5 438.59 66.5Z" fill="#03B97B"/>
</g>
<g opacity="0.14">
<path d="M372.107 193.776L347.1 210.903C341.828 214.514 334.768 213.194 331.022 208.015C330.004 206.528 328.964 205.155 327.946 203.668C318.431 189.631 310.162 175.238 303.138 160.489C296.228 145.761 291.14 131.374 288.08 117.484C285.156 103.501 284.744 90.5776 286.959 78.7346C288.407 70.991 291.158 63.8447 295.168 57.5233C299.2 51.088 304.72 45.5202 311.82 40.9551C320.45 35.1438 329.081 33.1044 337.508 34.6802C340.697 35.2765 343.757 36.556 346.349 38.4549C349.054 40.3751 351.29 42.9147 352.786 46.2587L372.241 88.4365C373.759 91.6667 374.749 94.5627 375.306 97.2596C375.883 99.8427 376.006 102.341 375.601 104.504C375.09 107.237 373.782 109.821 371.698 112.142C369.727 114.484 367.053 116.813 363.809 119.035L353.472 126.412C351.985 127.431 351.139 128.805 350.798 130.627C350.627 131.538 350.592 132.356 350.65 133.31C350.821 134.285 351.035 135.032 351.135 135.758C352.482 139.899 355.096 145.456 358.999 152.314C363.016 159.194 367.354 166.251 372.147 173.394C373.072 174.746 374.112 176.119 375.038 177.471C378.762 182.764 377.513 190.073 372.107 193.776Z" fill="white"/>
<path d="M489.259 255.507C488.663 258.696 487.476 261.892 485.741 264.867C485.229 265.715 484.717 266.562 484.091 267.388C481.389 271.125 478.159 274.528 474.176 277.555C467.446 282.661 460.466 285.952 452.987 287.5C452.873 287.478 452.738 287.571 452.624 287.55C445.394 289.026 437.83 289.144 429.972 287.674C418.357 285.502 406.456 280.448 394.403 272.419C382.351 264.39 370.661 254.425 359.447 242.546C355.623 238.413 351.8 234.28 348.246 229.962L392.447 199.689C395.189 202.676 397.695 205.031 399.852 206.73C400.379 207.065 400.998 207.534 401.731 208.025C402.578 208.537 403.468 208.821 404.493 209.013C406.429 209.375 408.037 208.968 409.524 207.95L419.776 201.028C423.155 198.713 426.292 197.061 429.167 196.184C432.084 195.079 434.853 194.772 437.699 195.305C439.863 195.709 442.055 196.591 444.369 198.084C446.683 199.577 449.025 201.547 451.51 204.016L484.198 237.825C486.776 240.429 488.378 243.203 489.098 246.284C489.705 249.344 489.856 252.319 489.259 255.507Z" fill="white"/>
</g>
</g>
<defs>
<linearGradient id="paint0_linear_7390_33835" x1="500" y1="300" x2="6.00006" y2="7.99996" gradientUnits="userSpaceOnUse">
<stop offset="0.0408417" stop-color="#1CEA93"/>
<stop offset="0.630366" stop-color="#03B97B"/>
</linearGradient>
<clipPath id="clip0_7390_33835">
<rect width="500" height="300" fill="white"/>
</clipPath>
<clipPath id="clip1_7390_33835">
<rect width="500" height="300" rx="16" fill="white"/>
</clipPath>
</defs>
</svg>
