<svg width="500" height="300" viewBox="0 0 500 300" fill="none" xmlns="http://www.w3.org/2000/svg">
<g clip-path="url(#clip0_7390_33830)">
<g clip-path="url(#clip1_7390_33830)">
<rect width="500" height="300" rx="16" fill="#F5F5F5"/>
<rect width="500" height="300" rx="16" fill="url(#paint0_linear_7390_33830)"/>
<path d="M44.252 55.877H37.7305V51.7637H44.252C45.2598 51.7637 46.0801 51.5996 46.7129 51.2715C47.3457 50.9316 47.8086 50.4629 48.1016 49.8652C48.3945 49.2676 48.541 48.5938 48.541 47.8438C48.541 47.082 48.3945 46.373 48.1016 45.7168C47.8086 45.0605 47.3457 44.5332 46.7129 44.1348C46.0801 43.7363 45.2598 43.5371 44.252 43.5371H39.5586V65H34.2852V39.4062H44.252C46.2559 39.4062 47.9727 39.7695 49.4023 40.4961C50.8438 41.2109 51.9453 42.2012 52.707 43.4668C53.4688 44.7324 53.8496 46.1797 53.8496 47.8086C53.8496 49.4609 53.4688 50.8906 52.707 52.0977C51.9453 53.3047 50.8438 54.2363 49.4023 54.8926C47.9727 55.5488 46.2559 55.877 44.252 55.877ZM62.2344 50.1289V65H57.1719V45.9805H61.9355L62.2344 50.1289ZM67.9648 45.8574L67.877 50.5508C67.6309 50.5156 67.332 50.4863 66.9805 50.4629C66.6406 50.4277 66.3301 50.4102 66.0488 50.4102C65.334 50.4102 64.7129 50.5039 64.1855 50.6914C63.6699 50.8672 63.2363 51.1309 62.8848 51.4824C62.5449 51.834 62.2871 52.2617 62.1113 52.7656C61.9473 53.2695 61.8535 53.8438 61.8301 54.4883L60.8105 54.1719C60.8105 52.9414 60.9336 51.8105 61.1797 50.7793C61.4258 49.7363 61.7832 48.8281 62.252 48.0547C62.7324 47.2812 63.3184 46.6836 64.0098 46.2617C64.7012 45.8398 65.4922 45.6289 66.3828 45.6289C66.6641 45.6289 66.9512 45.6523 67.2441 45.6992C67.5371 45.7344 67.7773 45.7871 67.9648 45.8574ZM69.0195 55.6836V55.3145C69.0195 53.9199 69.2188 52.6367 69.6172 51.4648C70.0156 50.2812 70.5957 49.2559 71.3574 48.3887C72.1191 47.5215 73.0566 46.8477 74.1699 46.3672C75.2832 45.875 76.5605 45.6289 78.002 45.6289C79.4434 45.6289 80.7266 45.875 81.8516 46.3672C82.9766 46.8477 83.9199 47.5215 84.6816 48.3887C85.4551 49.2559 86.041 50.2812 86.4395 51.4648C86.8379 52.6367 87.0371 53.9199 87.0371 55.3145V55.6836C87.0371 57.0664 86.8379 58.3496 86.4395 59.5332C86.041 60.7051 85.4551 61.7305 84.6816 62.6094C83.9199 63.4766 82.9824 64.1504 81.8691 64.6309C80.7559 65.1113 79.4785 65.3516 78.0371 65.3516C76.5957 65.3516 75.3125 65.1113 74.1875 64.6309C73.0742 64.1504 72.1309 63.4766 71.3574 62.6094C70.5957 61.7305 70.0156 60.7051 69.6172 59.5332C69.2188 58.3496 69.0195 57.0664 69.0195 55.6836ZM74.082 55.3145V55.6836C74.082 56.4805 74.1523 57.2246 74.293 57.916C74.4336 58.6074 74.6562 59.2168 74.9609 59.7441C75.2773 60.2598 75.6875 60.6641 76.1914 60.957C76.6953 61.25 77.3105 61.3965 78.0371 61.3965C78.7402 61.3965 79.3438 61.25 79.8477 60.957C80.3516 60.6641 80.7559 60.2598 81.0605 59.7441C81.3652 59.2168 81.5879 58.6074 81.7285 57.916C81.8809 57.2246 81.957 56.4805 81.957 55.6836V55.3145C81.957 54.541 81.8809 53.8145 81.7285 53.1348C81.5879 52.4434 81.3594 51.834 81.043 51.3066C80.7383 50.7676 80.334 50.3457 79.8301 50.041C79.3262 49.7363 78.7168 49.584 78.002 49.584C77.2871 49.584 76.6777 49.7363 76.1738 50.041C75.6816 50.3457 75.2773 50.7676 74.9609 51.3066C74.6562 51.834 74.4336 52.4434 74.293 53.1348C74.1523 53.8145 74.082 54.541 74.082 55.3145ZM89.3398 55.6836V55.3145C89.3398 53.9199 89.5391 52.6367 89.9375 51.4648C90.3359 50.2812 90.916 49.2559 91.6777 48.3887C92.4395 47.5215 93.377 46.8477 94.4902 46.3672C95.6035 45.875 96.8809 45.6289 98.3223 45.6289C99.7637 45.6289 101.047 45.875 102.172 46.3672C103.297 46.8477 104.24 47.5215 105.002 48.3887C105.775 49.2559 106.361 50.2812 106.76 51.4648C107.158 52.6367 107.357 53.9199 107.357 55.3145V55.6836C107.357 57.0664 107.158 58.3496 106.76 59.5332C106.361 60.7051 105.775 61.7305 105.002 62.6094C104.24 63.4766 103.303 64.1504 102.189 64.6309C101.076 65.1113 99.7988 65.3516 98.3574 65.3516C96.916 65.3516 95.6328 65.1113 94.5078 64.6309C93.3945 64.1504 92.4512 63.4766 91.6777 62.6094C90.916 61.7305 90.3359 60.7051 89.9375 59.5332C89.5391 58.3496 89.3398 57.0664 89.3398 55.6836ZM94.4023 55.3145V55.6836C94.4023 56.4805 94.4727 57.2246 94.6133 57.916C94.7539 58.6074 94.9766 59.2168 95.2812 59.7441C95.5977 60.2598 96.0078 60.6641 96.5117 60.957C97.0156 61.25 97.6309 61.3965 98.3574 61.3965C99.0605 61.3965 99.6641 61.25 100.168 60.957C100.672 60.6641 101.076 60.2598 101.381 59.7441C101.686 59.2168 101.908 58.6074 102.049 57.916C102.201 57.2246 102.277 56.4805 102.277 55.6836V55.3145C102.277 54.541 102.201 53.8145 102.049 53.1348C101.908 52.4434 101.68 51.834 101.363 51.3066C101.059 50.7676 100.654 50.3457 100.15 50.041C99.6465 49.7363 99.0371 49.584 98.3223 49.584C97.6074 49.584 96.998 49.7363 96.4941 50.041C96.002 50.3457 95.5977 50.7676 95.2812 51.3066C94.9766 51.834 94.7539 52.4434 94.6133 53.1348C94.4727 53.8145 94.4023 54.541 94.4023 55.3145ZM116.92 65H111.822V44.293C111.822 42.8516 112.104 41.6387 112.666 40.6543C113.24 39.6582 114.043 38.9082 115.074 38.4043C116.117 37.8887 117.354 37.6309 118.783 37.6309C119.252 37.6309 119.703 37.666 120.137 37.7363C120.57 37.7949 120.992 37.8711 121.402 37.9648L121.35 41.7793C121.127 41.7207 120.893 41.6797 120.646 41.6562C120.4 41.6328 120.113 41.6211 119.785 41.6211C119.176 41.6211 118.654 41.7266 118.221 41.9375C117.799 42.1367 117.477 42.4355 117.254 42.834C117.031 43.2324 116.92 43.7188 116.92 44.293V65ZM120.717 45.9805V49.5664H108.992V45.9805H120.717ZM131.527 55.6836V55.3145C131.527 53.9199 131.727 52.6367 132.125 51.4648C132.523 50.2812 133.104 49.2559 133.865 48.3887C134.627 47.5215 135.564 46.8477 136.678 46.3672C137.791 45.875 139.068 45.6289 140.51 45.6289C141.951 45.6289 143.234 45.875 144.359 46.3672C145.484 46.8477 146.428 47.5215 147.189 48.3887C147.963 49.2559 148.549 50.2812 148.947 51.4648C149.346 52.6367 149.545 53.9199 149.545 55.3145V55.6836C149.545 57.0664 149.346 58.3496 148.947 59.5332C148.549 60.7051 147.963 61.7305 147.189 62.6094C146.428 63.4766 145.49 64.1504 144.377 64.6309C143.264 65.1113 141.986 65.3516 140.545 65.3516C139.104 65.3516 137.82 65.1113 136.695 64.6309C135.582 64.1504 134.639 63.4766 133.865 62.6094C133.104 61.7305 132.523 60.7051 132.125 59.5332C131.727 58.3496 131.527 57.0664 131.527 55.6836ZM136.59 55.3145V55.6836C136.59 56.4805 136.66 57.2246 136.801 57.916C136.941 58.6074 137.164 59.2168 137.469 59.7441C137.785 60.2598 138.195 60.6641 138.699 60.957C139.203 61.25 139.818 61.3965 140.545 61.3965C141.248 61.3965 141.852 61.25 142.355 60.957C142.859 60.6641 143.264 60.2598 143.568 59.7441C143.873 59.2168 144.096 58.6074 144.236 57.916C144.389 57.2246 144.465 56.4805 144.465 55.6836V55.3145C144.465 54.541 144.389 53.8145 144.236 53.1348C144.096 52.4434 143.867 51.834 143.551 51.3066C143.246 50.7676 142.842 50.3457 142.338 50.041C141.834 49.7363 141.225 49.584 140.51 49.584C139.795 49.584 139.186 49.7363 138.682 50.041C138.189 50.3457 137.785 50.7676 137.469 51.3066C137.164 51.834 136.941 52.4434 136.801 53.1348C136.66 53.8145 136.59 54.541 136.59 55.3145ZM159.107 65H154.01V44.293C154.01 42.8516 154.291 41.6387 154.854 40.6543C155.428 39.6582 156.23 38.9082 157.262 38.4043C158.305 37.8887 159.541 37.6309 160.971 37.6309C161.439 37.6309 161.891 37.666 162.324 37.7363C162.758 37.7949 163.18 37.8711 163.59 37.9648L163.537 41.7793C163.314 41.7207 163.08 41.6797 162.834 41.6562C162.588 41.6328 162.301 41.6211 161.973 41.6211C161.363 41.6211 160.842 41.7266 160.408 41.9375C159.986 42.1367 159.664 42.4355 159.441 42.834C159.219 43.2324 159.107 43.7188 159.107 44.293V65ZM162.904 45.9805V49.5664H151.18V45.9805H162.904ZM195.863 51.6055V52.8184C195.863 54.7637 195.6 56.5098 195.072 58.0566C194.545 59.6035 193.801 60.9219 192.84 62.0117C191.879 63.0898 190.73 63.916 189.395 64.4902C188.07 65.0645 186.6 65.3516 184.982 65.3516C183.377 65.3516 181.906 65.0645 180.57 64.4902C179.246 63.916 178.098 63.0898 177.125 62.0117C176.152 60.9219 175.396 59.6035 174.857 58.0566C174.33 56.5098 174.066 54.7637 174.066 52.8184V51.6055C174.066 49.6484 174.33 47.9023 174.857 46.3672C175.385 44.8203 176.129 43.502 177.09 42.4121C178.062 41.3223 179.211 40.4902 180.535 39.916C181.871 39.3418 183.342 39.0547 184.947 39.0547C186.564 39.0547 188.035 39.3418 189.359 39.916C190.695 40.4902 191.844 41.3223 192.805 42.4121C193.777 43.502 194.527 44.8203 195.055 46.3672C195.594 47.9023 195.863 49.6484 195.863 51.6055ZM190.537 52.8184V51.5703C190.537 50.2109 190.414 49.0156 190.168 47.9844C189.922 46.9531 189.559 46.0859 189.078 45.3828C188.598 44.6797 188.012 44.1523 187.32 43.8008C186.629 43.4375 185.838 43.2559 184.947 43.2559C184.057 43.2559 183.266 43.4375 182.574 43.8008C181.895 44.1523 181.314 44.6797 180.834 45.3828C180.365 46.0859 180.008 46.9531 179.762 47.9844C179.516 49.0156 179.393 50.2109 179.393 51.5703V52.8184C179.393 54.166 179.516 55.3613 179.762 56.4043C180.008 57.4355 180.371 58.3086 180.852 59.0234C181.332 59.7266 181.918 60.2598 182.609 60.623C183.301 60.9863 184.092 61.168 184.982 61.168C185.873 61.168 186.664 60.9863 187.355 60.623C188.047 60.2598 188.627 59.7266 189.096 59.0234C189.564 58.3086 189.922 57.4355 190.168 56.4043C190.414 55.3613 190.537 54.166 190.537 52.8184ZM205.812 61.3086L210.031 45.9805H215.322L208.906 65H205.707L205.812 61.3086ZM202.912 45.9805L207.148 61.3262L207.236 65H204.02L197.604 45.9805H202.912ZM226.098 65.3516C224.621 65.3516 223.297 65.1172 222.125 64.6484C220.953 64.168 219.957 63.5059 219.137 62.6621C218.328 61.8184 217.707 60.8398 217.273 59.7266C216.84 58.6016 216.623 57.4062 216.623 56.1406V55.4375C216.623 53.9961 216.828 52.6777 217.238 51.4824C217.648 50.2871 218.234 49.25 218.996 48.3711C219.77 47.4922 220.707 46.8184 221.809 46.3496C222.91 45.8691 224.152 45.6289 225.535 45.6289C226.883 45.6289 228.078 45.8516 229.121 46.2969C230.164 46.7422 231.037 47.375 231.74 48.1953C232.455 49.0156 232.994 50 233.357 51.1484C233.721 52.2852 233.902 53.5508 233.902 54.9453V57.0547H218.785V53.6797H228.928V53.293C228.928 52.5898 228.799 51.9629 228.541 51.4121C228.295 50.8496 227.92 50.4043 227.416 50.0762C226.912 49.748 226.268 49.584 225.482 49.584C224.814 49.584 224.24 49.7305 223.76 50.0234C223.279 50.3164 222.887 50.7266 222.582 51.2539C222.289 51.7812 222.066 52.4023 221.914 53.1172C221.773 53.8203 221.703 54.5938 221.703 55.4375V56.1406C221.703 56.9023 221.809 57.6055 222.02 58.25C222.242 58.8945 222.553 59.4512 222.951 59.9199C223.361 60.3887 223.854 60.752 224.428 61.0098C225.014 61.2676 225.676 61.3965 226.414 61.3965C227.328 61.3965 228.178 61.2207 228.963 60.8691C229.76 60.5059 230.445 59.9609 231.02 59.2344L233.48 61.9062C233.082 62.4805 232.537 63.0312 231.846 63.5586C231.166 64.0859 230.346 64.5195 229.385 64.8594C228.424 65.1875 227.328 65.3516 226.098 65.3516ZM241.848 50.1289V65H236.785V45.9805H241.549L241.848 50.1289ZM247.578 45.8574L247.49 50.5508C247.244 50.5156 246.945 50.4863 246.594 50.4629C246.254 50.4277 245.943 50.4102 245.662 50.4102C244.947 50.4102 244.326 50.5039 243.799 50.6914C243.283 50.8672 242.85 51.1309 242.498 51.4824C242.158 51.834 241.9 52.2617 241.725 52.7656C241.561 53.2695 241.467 53.8438 241.443 54.4883L240.424 54.1719C240.424 52.9414 240.547 51.8105 240.793 50.7793C241.039 49.7363 241.396 48.8281 241.865 48.0547C242.346 47.2812 242.932 46.6836 243.623 46.2617C244.314 45.8398 245.105 45.6289 245.996 45.6289C246.277 45.6289 246.564 45.6523 246.857 45.6992C247.15 45.7344 247.391 45.7871 247.578 45.8574ZM271.062 39.3535V65H266V45.1895L259.918 47.123V43.1328L270.518 39.3535H271.062ZM284.58 50.0059H287.287C288.154 50.0059 288.869 49.8594 289.432 49.5664C289.994 49.2617 290.41 48.8398 290.68 48.3008C290.961 47.75 291.102 47.1113 291.102 46.3848C291.102 45.7285 290.973 45.1484 290.715 44.6445C290.469 44.1289 290.088 43.7305 289.572 43.4492C289.057 43.1562 288.406 43.0098 287.621 43.0098C287 43.0098 286.426 43.1328 285.898 43.3789C285.371 43.625 284.949 43.9707 284.633 44.416C284.316 44.8613 284.158 45.4004 284.158 46.0332H279.078C279.078 44.627 279.453 43.4023 280.203 42.3594C280.965 41.3164 281.984 40.502 283.262 39.916C284.539 39.3301 285.945 39.0371 287.48 39.0371C289.215 39.0371 290.732 39.3184 292.033 39.8809C293.334 40.4316 294.348 41.2461 295.074 42.3242C295.801 43.4023 296.164 44.7383 296.164 46.332C296.164 47.1406 295.977 47.9258 295.602 48.6875C295.227 49.4375 294.688 50.1172 293.984 50.7266C293.293 51.3242 292.449 51.8047 291.453 52.168C290.457 52.5195 289.338 52.6953 288.096 52.6953H284.58V50.0059ZM284.58 53.8555V51.2363H288.096C289.49 51.2363 290.715 51.3945 291.77 51.7109C292.824 52.0273 293.709 52.4844 294.424 53.082C295.139 53.668 295.678 54.3652 296.041 55.1738C296.404 55.9707 296.586 56.8555 296.586 57.8281C296.586 59.0234 296.357 60.0898 295.9 61.0273C295.443 61.9531 294.799 62.7383 293.967 63.3828C293.146 64.0273 292.186 64.5195 291.084 64.8594C289.982 65.1875 288.781 65.3516 287.48 65.3516C286.402 65.3516 285.342 65.2051 284.299 64.9121C283.268 64.6074 282.33 64.1562 281.486 63.5586C280.654 62.9492 279.986 62.1875 279.482 61.2734C278.99 60.3477 278.744 59.252 278.744 57.9863H283.824C283.824 58.6426 283.988 59.2285 284.316 59.7441C284.645 60.2598 285.096 60.6641 285.67 60.957C286.256 61.25 286.906 61.3965 287.621 61.3965C288.43 61.3965 289.121 61.25 289.695 60.957C290.281 60.6523 290.727 60.2305 291.031 59.6914C291.348 59.1406 291.506 58.502 291.506 57.7754C291.506 56.8379 291.336 56.0879 290.996 55.5254C290.656 54.9512 290.17 54.5293 289.537 54.2598C288.904 53.9902 288.154 53.8555 287.287 53.8555H284.58Z" fill="white"/>
<rect x="416" y="32" width="52" height="52" rx="8" fill="white"/>
<path d="M438.59 66.5C438.11 66.5 437.654 66.3103 437.318 65.9782L430.522 59.266C429.826 58.5781 429.826 57.4397 430.522 56.7518C431.219 56.064 432.371 56.064 433.068 56.7518L438.59 62.207L450.932 50.0159C451.629 49.328 452.781 49.328 453.478 50.0159C454.174 50.7037 454.174 51.8422 453.478 52.53L439.863 65.9782C439.527 66.3103 439.071 66.5 438.59 66.5Z" fill="#E9D389"/>
</g>
<g opacity="0.1">
<path d="M398.225 161.959C431.082 152.538 450.081 118.265 440.659 85.4084C431.238 52.5513 396.964 33.5526 364.107 42.9741C331.25 52.3955 312.251 86.6696 321.672 119.527C331.094 152.384 365.368 171.381 398.225 161.959Z" fill="white"/>
<path d="M500.679 261.086C521.361 255.155 526.773 228.734 510.377 214.921C485.62 194.111 446.937 186.412 408.381 197.468C369.826 208.523 341.1 235.55 331.132 266.318C324.547 286.72 343.137 306.259 363.82 300.329L500.679 261.086Z" fill="white"/>
</g>
</g>
<defs>
<linearGradient id="paint0_linear_7390_33830" x1="500" y1="300" x2="-1.60933e-05" y2="2.68221e-05" gradientUnits="userSpaceOnUse">
<stop offset="0.0408417" stop-color="#ECD999"/>
<stop offset="0.472353" stop-color="#E9D389"/>
</linearGradient>
<clipPath id="clip0_7390_33830">
<rect width="500" height="300" fill="white"/>
</clipPath>
<clipPath id="clip1_7390_33830">
<rect width="500" height="300" rx="16" fill="white"/>
</clipPath>
</defs>
</svg>
