<svg width="500" height="300" viewBox="0 0 500 300" fill="none" xmlns="http://www.w3.org/2000/svg">
<g clip-path="url(#clip0_7390_33841)">
<g clip-path="url(#clip1_7390_33841)">
<rect width="500" height="300" rx="16" fill="#F5F5F5"/>
<rect width="500" height="300" rx="16" fill="url(#paint0_linear_7390_33841)"/>
<path d="M43.5137 59.6562L49.543 39.4062H55.4141L46.502 65H42.6348L43.5137 59.6562ZM37.959 39.4062L43.9707 59.6562L44.8848 65H40.9824L32.123 39.4062H37.959ZM65.4688 65.3516C63.9922 65.3516 62.668 65.1172 61.4961 64.6484C60.3242 64.168 59.3281 63.5059 58.5078 62.6621C57.6992 61.8184 57.0781 60.8398 56.6445 59.7266C56.2109 58.6016 55.9941 57.4062 55.9941 56.1406V55.4375C55.9941 53.9961 56.1992 52.6777 56.6094 51.4824C57.0195 50.2871 57.6055 49.25 58.3672 48.3711C59.1406 47.4922 60.0781 46.8184 61.1797 46.3496C62.2812 45.8691 63.5234 45.6289 64.9062 45.6289C66.2539 45.6289 67.4492 45.8516 68.4922 46.2969C69.5352 46.7422 70.4082 47.375 71.1113 48.1953C71.8262 49.0156 72.3652 50 72.7285 51.1484C73.0918 52.2852 73.2734 53.5508 73.2734 54.9453V57.0547H58.1562V53.6797H68.2988V53.293C68.2988 52.5898 68.1699 51.9629 67.9121 51.4121C67.666 50.8496 67.291 50.4043 66.7871 50.0762C66.2832 49.748 65.6387 49.584 64.8535 49.584C64.1855 49.584 63.6113 49.7305 63.1309 50.0234C62.6504 50.3164 62.2578 50.7266 61.9531 51.2539C61.6602 51.7812 61.4375 52.4023 61.2852 53.1172C61.1445 53.8203 61.0742 54.5938 61.0742 55.4375V56.1406C61.0742 56.9023 61.1797 57.6055 61.3906 58.25C61.6133 58.8945 61.9238 59.4512 62.3223 59.9199C62.7324 60.3887 63.2246 60.752 63.7988 61.0098C64.3848 61.2676 65.0469 61.3965 65.7852 61.3965C66.6992 61.3965 67.5488 61.2207 68.334 60.8691C69.1309 60.5059 69.8164 59.9609 70.3906 59.2344L72.8516 61.9062C72.4531 62.4805 71.9082 63.0312 71.2168 63.5586C70.5371 64.0859 69.7168 64.5195 68.7559 64.8594C67.7949 65.1875 66.6992 65.3516 65.4688 65.3516ZM81.2188 50.1289V65H76.1562V45.9805H80.9199L81.2188 50.1289ZM86.9492 45.8574L86.8613 50.5508C86.6152 50.5156 86.3164 50.4863 85.9648 50.4629C85.625 50.4277 85.3145 50.4102 85.0332 50.4102C84.3184 50.4102 83.6973 50.5039 83.1699 50.6914C82.6543 50.8672 82.2207 51.1309 81.8691 51.4824C81.5293 51.834 81.2715 52.2617 81.0957 52.7656C80.9316 53.2695 80.8379 53.8438 80.8145 54.4883L79.7949 54.1719C79.7949 52.9414 79.918 51.8105 80.1641 50.7793C80.4102 49.7363 80.7676 48.8281 81.2363 48.0547C81.7168 47.2812 82.3027 46.6836 82.9941 46.2617C83.6855 45.8398 84.4766 45.6289 85.3672 45.6289C85.6484 45.6289 85.9355 45.6523 86.2285 45.6992C86.5215 45.7344 86.7617 45.7871 86.9492 45.8574ZM94.6836 45.9805V65H89.6035V45.9805H94.6836ZM89.2871 41.0234C89.2871 40.2852 89.5449 39.6758 90.0605 39.1953C90.5762 38.7148 91.2676 38.4746 92.1348 38.4746C92.9902 38.4746 93.6758 38.7148 94.1914 39.1953C94.7188 39.6758 94.9824 40.2852 94.9824 41.0234C94.9824 41.7617 94.7188 42.3711 94.1914 42.8516C93.6758 43.332 92.9902 43.5723 92.1348 43.5723C91.2676 43.5723 90.5762 43.332 90.0605 42.8516C89.5449 42.3711 89.2871 41.7617 89.2871 41.0234ZM105.195 65H100.115V45.1191C100.115 43.502 100.443 42.1367 101.1 41.0234C101.768 39.9102 102.717 39.0664 103.947 38.4922C105.189 37.918 106.689 37.6309 108.447 37.6309C109.443 37.6309 110.41 37.7305 111.348 37.9297C112.285 38.1172 113.252 38.3633 114.248 38.668L113.51 42.7285C112.865 42.5293 112.174 42.3418 111.436 42.166C110.697 41.9902 109.807 41.9023 108.764 41.9023C107.592 41.9023 106.701 42.1777 106.092 42.7285C105.494 43.2676 105.195 44.0645 105.195 45.1191V65ZM108.975 45.9805V49.5664H97.2852V45.9805H108.975ZM116.604 45.9805V65H111.523V45.9805H116.604ZM131.105 60.7109V52.2383C131.105 51.6289 131.006 51.1074 130.807 50.6738C130.607 50.2285 130.297 49.8828 129.875 49.6367C129.465 49.3906 128.932 49.2676 128.275 49.2676C127.713 49.2676 127.227 49.3672 126.816 49.5664C126.406 49.7539 126.09 50.0293 125.867 50.3926C125.645 50.7441 125.533 51.1602 125.533 51.6406H120.471C120.471 50.832 120.658 50.0645 121.033 49.3379C121.408 48.6113 121.953 47.9727 122.668 47.4219C123.383 46.8594 124.232 46.4199 125.217 46.1035C126.213 45.7871 127.326 45.6289 128.557 45.6289C130.033 45.6289 131.346 45.875 132.494 46.3672C133.643 46.8594 134.545 47.5977 135.201 48.582C135.869 49.5664 136.203 50.7969 136.203 52.2734V60.4121C136.203 61.4551 136.268 62.3105 136.396 62.9785C136.525 63.6348 136.713 64.209 136.959 64.7012V65H131.844C131.598 64.4844 131.41 63.8398 131.281 63.0664C131.164 62.2812 131.105 61.4961 131.105 60.7109ZM131.773 53.416L131.809 56.2812H128.979C128.311 56.2812 127.73 56.3574 127.238 56.5098C126.746 56.6621 126.342 56.8789 126.025 57.1602C125.709 57.4297 125.475 57.7461 125.322 58.1094C125.182 58.4727 125.111 58.8711 125.111 59.3047C125.111 59.7383 125.211 60.1309 125.41 60.4824C125.609 60.8223 125.896 61.0918 126.271 61.291C126.646 61.4785 127.086 61.5723 127.59 61.5723C128.352 61.5723 129.014 61.4199 129.576 61.1152C130.139 60.8105 130.572 60.4355 130.877 59.9902C131.193 59.5449 131.357 59.123 131.369 58.7246L132.705 60.8691C132.518 61.3496 132.26 61.8477 131.932 62.3633C131.615 62.8789 131.211 63.3652 130.719 63.8223C130.227 64.2676 129.635 64.6367 128.943 64.9297C128.252 65.2109 127.432 65.3516 126.482 65.3516C125.275 65.3516 124.18 65.1113 123.195 64.6309C122.223 64.1387 121.449 63.4648 120.875 62.6094C120.312 61.7422 120.031 60.7578 120.031 59.6562C120.031 58.6602 120.219 57.7754 120.594 57.002C120.969 56.2285 121.52 55.5781 122.246 55.0508C122.984 54.5117 123.904 54.1074 125.006 53.8379C126.107 53.5566 127.385 53.416 128.838 53.416H131.773ZM140.105 38H145.168V60.6406L144.658 65H140.105V38ZM157.209 55.2969V55.666C157.209 57.084 157.057 58.3848 156.752 59.5684C156.459 60.752 156.002 61.7773 155.381 62.6445C154.76 63.5 153.986 64.168 153.061 64.6484C152.146 65.1172 151.068 65.3516 149.826 65.3516C148.666 65.3516 147.658 65.1172 146.803 64.6484C145.959 64.1797 145.25 63.5176 144.676 62.6621C144.102 61.8066 143.639 60.8047 143.287 59.6562C142.936 58.5078 142.672 57.2539 142.496 55.8945V55.0859C142.672 53.7266 142.936 52.4727 143.287 51.3242C143.639 50.1758 144.102 49.1738 144.676 48.3184C145.25 47.4629 145.959 46.8008 146.803 46.332C147.646 45.8633 148.643 45.6289 149.791 45.6289C151.045 45.6289 152.135 45.8691 153.061 46.3496C153.998 46.8184 154.771 47.4863 155.381 48.3535C156.002 49.209 156.459 50.2285 156.752 51.4121C157.057 52.584 157.209 53.8789 157.209 55.2969ZM152.146 55.666V55.2969C152.146 54.5234 152.088 53.7969 151.971 53.1172C151.865 52.4258 151.678 51.8223 151.408 51.3066C151.139 50.7793 150.77 50.3633 150.301 50.0586C149.844 49.7539 149.252 49.6016 148.525 49.6016C147.834 49.6016 147.248 49.7188 146.768 49.9531C146.287 50.1875 145.889 50.5156 145.572 50.9375C145.268 51.3594 145.039 51.8633 144.887 52.4492C144.734 53.0234 144.641 53.6562 144.605 54.3477V56.6504C144.641 57.5762 144.793 58.3965 145.062 59.1113C145.344 59.8145 145.766 60.3711 146.328 60.7812C146.902 61.1797 147.646 61.3789 148.561 61.3789C149.275 61.3789 149.867 61.2383 150.336 60.957C150.805 60.6758 151.168 60.2773 151.426 59.7617C151.695 59.2461 151.883 58.6426 151.988 57.9512C152.094 57.248 152.146 56.4863 152.146 55.666ZM165.699 38V65H160.619V38H165.699ZM178.637 65.3516C177.16 65.3516 175.836 65.1172 174.664 64.6484C173.492 64.168 172.496 63.5059 171.676 62.6621C170.867 61.8184 170.246 60.8398 169.812 59.7266C169.379 58.6016 169.162 57.4062 169.162 56.1406V55.4375C169.162 53.9961 169.367 52.6777 169.777 51.4824C170.188 50.2871 170.773 49.25 171.535 48.3711C172.309 47.4922 173.246 46.8184 174.348 46.3496C175.449 45.8691 176.691 45.6289 178.074 45.6289C179.422 45.6289 180.617 45.8516 181.66 46.2969C182.703 46.7422 183.576 47.375 184.279 48.1953C184.994 49.0156 185.533 50 185.896 51.1484C186.26 52.2852 186.441 53.5508 186.441 54.9453V57.0547H171.324V53.6797H181.467V53.293C181.467 52.5898 181.338 51.9629 181.08 51.4121C180.834 50.8496 180.459 50.4043 179.955 50.0762C179.451 49.748 178.807 49.584 178.021 49.584C177.354 49.584 176.779 49.7305 176.299 50.0234C175.818 50.3164 175.426 50.7266 175.121 51.2539C174.828 51.7812 174.605 52.4023 174.453 53.1172C174.312 53.8203 174.242 54.5938 174.242 55.4375V56.1406C174.242 56.9023 174.348 57.6055 174.559 58.25C174.781 58.8945 175.092 59.4512 175.49 59.9199C175.9 60.3887 176.393 60.752 176.967 61.0098C177.553 61.2676 178.215 61.3965 178.953 61.3965C179.867 61.3965 180.717 61.2207 181.502 60.8691C182.299 60.5059 182.984 59.9609 183.559 59.2344L186.02 61.9062C185.621 62.4805 185.076 63.0312 184.385 63.5586C183.705 64.0859 182.885 64.5195 181.924 64.8594C180.963 65.1875 179.867 65.3516 178.637 65.3516ZM204.213 39.4062V65H198.957V39.4062H204.213ZM217.01 65H211.438L211.473 60.8867H217.01C218.393 60.8867 219.559 60.5762 220.508 59.9551C221.457 59.3223 222.172 58.4023 222.652 57.1953C223.145 55.9883 223.391 54.5293 223.391 52.8184V51.5703C223.391 50.2578 223.25 49.1035 222.969 48.1074C222.699 47.1113 222.295 46.2734 221.756 45.5938C221.217 44.9141 220.555 44.4043 219.77 44.0645C218.984 43.7129 218.082 43.5371 217.062 43.5371H211.332V39.4062H217.062C218.773 39.4062 220.338 39.6992 221.756 40.2852C223.186 40.8594 224.422 41.6855 225.465 42.7637C226.508 43.8418 227.311 45.1309 227.873 46.6309C228.447 48.1191 228.734 49.7773 228.734 51.6055V52.8184C228.734 54.6348 228.447 56.293 227.873 57.793C227.311 59.293 226.508 60.582 225.465 61.6602C224.434 62.7266 223.197 63.5527 221.756 64.1387C220.326 64.7129 218.744 65 217.01 65ZM214.426 39.4062V65H209.152V39.4062H214.426Z" fill="white"/>
<rect x="416" y="32" width="52" height="52" rx="8" fill="white"/>
<path d="M438.59 66.5C438.11 66.5 437.654 66.3103 437.318 65.9782L430.522 59.266C429.826 58.5781 429.826 57.4397 430.522 56.7518C431.219 56.064 432.371 56.064 433.068 56.7518L438.59 62.207L450.932 50.0159C451.629 49.328 452.781 49.328 453.478 50.0159C454.174 50.7037 454.174 51.8422 453.478 52.53L439.863 65.9782C439.527 66.3103 439.071 66.5 438.59 66.5Z" fill="#1459E2"/>
</g>
<g opacity="0.07">
<path d="M398.225 161.959C431.082 152.538 450.081 118.265 440.659 85.4084C431.238 52.5513 396.964 33.5526 364.107 42.9741C331.25 52.3955 312.251 86.6696 321.672 119.527C331.094 152.384 365.368 171.381 398.225 161.959Z" fill="white"/>
<path d="M500.679 261.086C521.361 255.155 526.773 228.734 510.377 214.921C485.62 194.111 446.937 186.412 408.381 197.468C369.826 208.523 341.1 235.55 331.132 266.318C324.547 286.72 343.137 306.259 363.82 300.329L500.679 261.086Z" fill="white"/>
</g>
</g>
<defs>
<linearGradient id="paint0_linear_7390_33841" x1="500" y1="300" x2="6.00006" y2="7.99996" gradientUnits="userSpaceOnUse">
<stop offset="0.0408417" stop-color="#299BFB"/>
<stop offset="0.682292" stop-color="#1459E2"/>
</linearGradient>
<clipPath id="clip0_7390_33841">
<rect width="500" height="300" fill="white"/>
</clipPath>
<clipPath id="clip1_7390_33841">
<rect width="500" height="300" rx="16" fill="white"/>
</clipPath>
</defs>
</svg>
